<svg width="50" height="20" viewBox="0 0 50 20" fill="none" xmlns="http://www.w3.org/2000/svg">
<path d="M49.824 19H48.552L47.532 15.724L47.172 14.608V19H45.816V11.008H47.232L48.156 14.284L48.48 15.412V11.008H49.824V19Z" fill="black"/>
<path d="M45.2787 19H43.7307L43.6227 17.716H42.7107L42.5787 19H41.1867L42.3507 11.008H44.1267L45.2787 19ZM43.4907 16.468L43.2267 13.36L42.8787 16.468H43.4907Z" fill="black"/>
<path d="M40.8769 17.14C40.8769 18.4 40.0609 19.156 38.9929 19.156C37.8049 19.156 37.0969 18.46 37.0969 17.272V16.576H38.4289V17.32C38.4289 17.644 38.5969 17.86 38.9209 17.86C39.2329 17.86 39.3889 17.668 39.3889 17.332C39.3889 16.684 39.0049 16.192 38.4649 15.52C37.8649 14.848 37.1329 13.888 37.1329 12.892C37.1329 11.8 37.7689 10.864 39.0649 10.864C40.0969 10.864 40.7929 11.608 40.7929 12.736V13.432H39.4609V12.64C39.4609 12.352 39.2929 12.184 39.0649 12.184C38.8369 12.184 38.6209 12.34 38.6209 12.652C38.6209 13.42 39.0049 13.756 39.5569 14.488C40.2049 15.268 40.8769 16.108 40.8769 17.14Z" fill="black"/>
<path d="M36.7156 19H35.1676L35.0596 17.716H34.1476L34.0156 19H32.6236L33.7876 11.008H35.5636L36.7156 19ZM34.9276 16.468L34.6636 13.36L34.3156 16.468H34.9276Z" fill="black"/>
<path d="M32.0993 19H30.5633V15.82H29.6873V19H28.1393V11.008H29.6873V14.404H30.5633V11.008H32.0993V19Z" fill="black"/>
<path d="M25.5773 19H24.0293V11.008H25.5773V19Z" fill="black"/>
<path d="M23.2124 17.236C23.2124 18.436 22.4204 19 21.3764 19H19.3844V11.008H21.3764C22.4204 11.008 23.2124 11.668 23.2124 12.868V17.236ZM21.6764 17.164V12.856C21.6764 12.52 21.5444 12.34 21.2444 12.34H20.9324V17.668H21.2444C21.5444 17.668 21.6764 17.5 21.6764 17.164Z" fill="black"/>
<path d="M18.6478 19H15.3958V11.008H18.6478V12.364H16.9318V14.272H18.0598V15.52H16.9318V17.596H18.6478V19Z" fill="black"/>
<path d="M14.5235 19H12.9875V15.82H12.1115V19H10.5635V11.008H12.1115V14.404H12.9875V11.008H14.5235V19Z" fill="black"/>
<path d="M9.82687 19H6.57487V11.008H9.82687V12.364H8.11088V14.272H9.23888V15.52H8.11088V17.596H9.82687V19Z" fill="black"/>
<path d="M5.70001 19H4.22401V13.264L3.97201 15.16L3.42001 19H2.43601L1.93201 15.16L1.70401 13.264V19H0.348007V11.008H2.37601L2.86801 14.14L3.04801 15.76L3.22801 14.14L3.70801 11.008H5.70001V19Z" fill="black"/>
<path d="M49.7047 9H47.8567V1.008H49.7047V9Z" fill="#1A76D1"/>
<path d="M47.1342 7.116C47.1342 8.34 46.1862 9.18 44.8782 9.18C43.5822 9.18 42.6942 8.34 42.6942 7.116V5.82H44.4462V7.2C44.4462 7.452 44.6382 7.596 44.8662 7.596C45.0942 7.596 45.2862 7.452 45.2862 7.2V1.008H47.1342V7.116Z" fill="#1A76D1"/>
<path d="M42.5483 9H40.7003L40.5803 7.8H39.4883L39.3203 9H37.6523L39.0443 1.008H41.1803L42.5483 9ZM40.4123 6.432L40.1003 3.528L39.6923 6.432H40.4123Z" fill="#1A76D1"/>
<path d="M37.3352 9H36.3032L36.0992 8.34C35.8352 8.88 35.2952 9.18 34.7312 9.18C33.4712 9.18 32.6912 8.28 32.6912 7.176V2.832C32.6912 1.824 33.6392 0.839996 35.0192 0.839996C36.3992 0.839996 37.2872 1.824 37.2872 2.832V3.996H35.5232V2.832C35.5232 2.592 35.3672 2.412 35.0552 2.412C34.7432 2.412 34.5752 2.592 34.5752 2.832V7.188C34.5752 7.428 34.7672 7.62 35.0672 7.62C35.3912 7.62 35.5592 7.428 35.5592 7.188V6.18H35.0552V4.992H37.3352V9Z" fill="#1A76D1"/>
<path d="M30.5394 9H29.0034C28.7154 9 28.5714 8.304 28.5714 7.764V6.3C28.5714 6.096 28.4394 5.844 28.1754 5.844H27.7554V9H25.9074V1.008H28.4994C29.3994 1.008 30.2754 1.608 30.2754 2.688V4.08C30.2754 4.476 30.0114 4.908 29.5314 5.136C30.0114 5.364 30.3114 5.784 30.3114 6.204V7.668C30.3114 8.172 30.4194 8.58 30.5394 8.964V9ZM28.5234 4.14V2.844C28.5234 2.568 28.4154 2.46 28.2114 2.46H27.7554V4.524H28.2114C28.4154 4.524 28.5234 4.416 28.5234 4.14Z" fill="#1A76D1"/>
<path d="M25.194 7.092C25.194 8.34 24.186 9.18 22.89 9.18C21.582 9.18 20.574 8.34 20.574 7.092V2.916C20.574 1.68 21.582 0.839996 22.89 0.839996C24.186 0.839996 25.194 1.68 25.194 2.916V7.092ZM23.31 7.2V2.808C23.31 2.556 23.118 2.412 22.89 2.412C22.662 2.412 22.458 2.556 22.458 2.808V7.2C22.458 7.452 22.662 7.596 22.89 7.596C23.118 7.596 23.31 7.452 23.31 7.2Z" fill="#1A76D1"/>
<path d="M20.216 2.592H18.908V9H17.06V2.592H15.764V1.008H20.216V2.592Z" fill="#1A76D1"/>
<path d="M15.4066 7.092C15.4066 8.34 14.5906 9.18 13.2706 9.18C11.9026 9.18 10.8826 8.304 10.8826 6.984V3.024C10.8826 1.716 11.9026 0.828003 13.2706 0.828003C14.5906 0.828003 15.4066 1.68 15.4066 2.916V3.972H13.7866V2.892C13.7866 2.616 13.6066 2.412 13.2706 2.412C12.9346 2.412 12.7666 2.616 12.7666 2.892V7.116C12.7666 7.392 12.9346 7.596 13.2706 7.596C13.6066 7.596 13.7866 7.392 13.7866 7.116V6.036H15.4066V7.092Z" fill="#1A76D1"/>
<path d="M10.2292 7.092C10.2292 8.34 9.22116 9.18 7.92516 9.18C6.61716 9.18 5.60916 8.34 5.60916 7.092V2.916C5.60916 1.68 6.61716 0.839996 7.92516 0.839996C9.22116 0.839996 10.2292 1.68 10.2292 2.916V7.092ZM8.34516 7.2V2.808C8.34516 2.556 8.15316 2.412 7.92516 2.412C7.69716 2.412 7.49316 2.556 7.49316 2.808V7.2C7.49316 7.452 7.69716 7.596 7.92516 7.596C8.15316 7.596 8.34516 7.452 8.34516 7.2Z" fill="#1A76D1"/>
<path d="M4.956 6.996C4.956 8.28 4.056 9 2.724 9H0.384003V1.008H2.724C4.056 1.008 4.956 1.872 4.956 3.156V6.996ZM3.108 6.876V3.132C3.108 2.736 2.952 2.532 2.592 2.532H2.232V7.488H2.592C2.952 7.488 3.108 7.272 3.108 6.876Z" fill="#1A76D1"/>
</svg>
