<svg width="35" height="35" viewBox="0 0 35 35" fill="none" xmlns="http://www.w3.org/2000/svg">
<circle cx="17.5" cy="17.5" r="17.5" fill="#1A76D1"/>
<path d="M9.2002 4.54321C9.23494 4.54636 9.26968 4.54951 9.30548 4.55275C9.6335 4.64788 9.80786 4.88273 9.9967 5.14746C10.0349 5.19961 10.0349 5.19961 10.0738 5.25281C10.1492 5.35576 10.224 5.45911 10.2988 5.5625C11.458 7.14939 12.8686 8.5158 14.498 9.61523C14.5471 9.64852 14.5471 9.64852 14.5971 9.68247C16.4632 10.9422 18.523 11.8242 20.6653 12.4902C21.5658 12.7719 22.2844 13.0995 22.75 13.9609C23.0726 14.6501 23.0876 15.388 22.8371 16.1064C22.6183 16.682 22.338 17.2273 21.9688 17.7207C21.9375 17.7627 21.9063 17.8048 21.8741 17.8481C21.1362 18.7929 20.2425 19.6159 19.0391 19.8691C18.8543 19.8891 18.6724 19.8925 18.4867 19.8905C18.4133 19.8899 18.4133 19.8899 18.3384 19.8894C17.515 19.8712 16.8073 19.5554 16.207 18.9902C16.0356 18.8013 15.8764 18.6047 15.7188 18.4043C15.6547 18.3239 15.5906 18.2435 15.5265 18.1632C15.4953 18.124 15.4641 18.0848 15.4319 18.0444C15.0853 17.6156 14.7239 17.1996 14.3516 16.793C14.3288 16.768 14.3061 16.7431 14.2827 16.7174C13.887 16.2836 13.4903 15.8542 13.0439 15.4716C12.9364 15.3777 12.8314 15.2813 12.7268 15.1841C12.4316 14.9104 12.1282 14.6504 11.8125 14.4004C11.7817 14.3758 11.7509 14.3512 11.7191 14.3259C10.5059 13.3595 9.21518 12.5126 7.85742 11.7637C7.80542 11.7349 7.75343 11.7061 7.69985 11.6765C6.98267 11.2813 6.25934 10.9129 5.51234 10.5763C5.46507 10.555 5.41781 10.5337 5.36912 10.5117C5.26357 10.4645 5.15765 10.4181 5.0515 10.3723C4.99549 10.3476 4.93948 10.3229 4.88177 10.2975C4.80562 10.2645 4.80562 10.2645 4.72793 10.2309C4.5117 10.1113 4.32884 9.94978 4.24414 9.71289C4.22774 9.59902 4.22774 9.59902 4.22583 9.47791C4.22445 9.43831 4.22306 9.39872 4.22163 9.35793C4.28617 8.97562 4.58412 8.71692 4.84693 8.4556C4.88793 8.41428 4.92892 8.37295 4.97115 8.33037C5.08296 8.21782 5.19509 8.10561 5.30741 7.99357C5.40135 7.89978 5.49506 7.80577 5.58878 7.71176C5.80987 7.48998 6.03134 7.26859 6.25306 7.04743C6.48146 6.81959 6.70923 6.59113 6.93669 6.36236C7.13245 6.16552 7.32858 5.96907 7.52501 5.77292C7.64215 5.65595 7.75914 5.53884 7.87577 5.42136C8.00585 5.29057 8.13653 5.1604 8.26738 5.03039C8.32493 4.97213 8.32493 4.97213 8.38363 4.91271C8.62924 4.67039 8.83751 4.50248 9.2002 4.54321Z" fill="white"/>
<path d="M21.4155 21.6599C22.0164 22.2176 22.6288 22.9603 22.7414 23.8698C22.8203 25.1607 22.3463 26.1872 21.8145 27.2908C21.683 27.5636 21.6462 27.7558 21.6423 28.0665C21.641 28.1407 21.6396 28.2148 21.6382 28.289C21.6363 28.4053 21.6345 28.5217 21.6333 28.6381C21.632 28.7508 21.6298 28.8634 21.6275 28.9761C21.6266 29.0433 21.6256 29.1106 21.6247 29.1799C21.3171 32.1042 15.3727 32.1782 15.4744 29.042C15.5124 28.7686 15.5941 28.512 15.677 28.2528C15.9183 27.4871 15.7629 26.6893 15.6004 25.9224C15.3552 24.7545 15.4002 23.3204 15.9511 22.2703C16.4721 21.38 17.1926 20.9314 18.093 20.7108C19.2705 20.5456 20.4602 20.8403 21.4155 21.6599Z" fill="white"/>
<path d="M14.3943 3.97864C14.4425 3.97769 14.4907 3.97675 14.5404 3.97578C14.8751 4.02878 15.1287 4.26022 15.3831 4.46997C15.4476 4.52241 15.5122 4.5748 15.5768 4.62714C15.6089 4.65313 15.6409 4.67913 15.6739 4.70591C15.8114 4.81651 15.9509 4.92429 16.0911 5.03149C16.117 5.05138 16.143 5.07126 16.1697 5.09174C16.2472 5.15104 16.3248 5.21029 16.4023 5.26953C16.7997 5.57424 17.1955 5.88079 17.5906 6.1884C17.9097 6.43675 18.23 6.68354 18.5508 6.92969C18.9482 7.23463 19.3443 7.54121 19.7396 7.84898C19.9532 8.01522 20.1671 8.18089 20.3818 8.3457C20.6733 8.56948 20.9634 8.79512 21.2533 9.0209C21.4669 9.18713 21.6808 9.35278 21.8955 9.51758C22.1486 9.71186 22.4006 9.90749 22.6523 10.1035C23.0094 10.3815 23.3675 10.6581 23.7266 10.9336C24.2328 11.322 24.7374 11.7126 25.2402 12.1055C25.3132 12.1624 25.3132 12.1624 25.3877 12.2205C25.675 12.4472 25.9491 12.6859 26.2168 12.9355C26.2554 12.9709 26.294 13.0063 26.3337 13.0427C27.754 14.3965 28.6869 16.4563 28.762 18.4189C28.766 18.6063 28.7673 18.7936 28.7681 18.9811C28.7696 19.0741 28.7696 19.0741 28.7711 19.169C28.7754 20.2466 28.5004 21.303 28.2756 22.351C28.2403 22.5157 28.2052 22.6804 28.17 22.8451C28.0872 23.2335 28.004 23.6219 27.9206 24.0103C27.8349 24.4095 27.7498 24.8089 27.6649 25.2083C27.5916 25.5533 27.5179 25.8981 27.444 26.2429C27.4 26.448 27.3561 26.6532 27.3126 26.8584C27.2718 27.0509 27.2305 27.2433 27.1889 27.4356C27.1738 27.5059 27.1588 27.5762 27.144 27.6465C26.9475 28.5802 26.8456 30.2299 25.5809 30.0417C24.6805 29.6236 25.2473 28.3835 25.4104 27.6608C25.4187 27.6214 25.4271 27.582 25.4357 27.5414C25.4635 27.4109 25.4923 27.2806 25.521 27.1503C25.541 27.0572 25.561 26.9641 25.5809 26.871C25.6346 26.6211 25.689 26.3714 25.7435 26.1217C25.8 25.8627 25.8557 25.6036 25.9114 25.3444C26.0017 24.9251 26.0923 24.5059 26.1833 24.0868C26.3456 23.3392 26.5067 22.5913 26.6672 21.8434C26.7143 21.6242 26.7615 21.4052 26.809 21.1861C26.8311 21.0839 26.8531 20.9817 26.8752 20.8795C26.9015 20.7572 26.928 20.6349 26.9546 20.5126C27.3336 18.7477 27.042 16.8968 26.0689 15.3706C25.5503 14.5816 24.9376 13.9515 24.1822 13.3876C23.985 13.2403 23.7927 13.0875 23.6014 12.9325C23.3222 12.707 23.0372 12.4904 22.749 12.2764C22.5258 12.1099 22.3073 11.9387 22.0908 11.7637C21.8413 11.562 21.5883 11.3662 21.3309 11.1747C21.0304 10.951 20.7343 10.7224 20.4404 10.4901C20.2335 10.3266 20.0254 10.1647 19.8173 10.0028C19.7796 9.97355 19.742 9.94429 19.7032 9.91414C19.4403 9.70987 19.1765 9.50671 18.9124 9.30395C18.7098 9.14813 18.5083 8.991 18.3066 8.83398C17.9496 8.55597 17.5915 8.27938 17.2324 8.00391C16.835 7.69897 16.4389 7.39239 16.0436 7.08461C15.83 6.91837 15.6161 6.7527 15.4014 6.58789C15.0373 6.30835 14.6749 6.02658 14.3131 5.74404C14.2371 5.68502 14.1608 5.62643 14.0842 5.56816C14.0448 5.5381 14.0055 5.50803 13.9649 5.47705C13.9292 5.44992 13.8934 5.42279 13.8566 5.39484C13.691 5.2556 13.6335 5.12354 13.6025 4.91228C13.5854 4.63769 13.6355 4.45793 13.786 4.22907C13.966 4.03664 14.1343 3.97898 14.3943 3.97864Z" fill="white"/>
<path d="M5.16593 12.431C5.38894 12.5553 5.57336 12.7173 5.7638 12.8909C5.83635 12.9557 5.90895 13.0205 5.9816 13.0851C6.01733 13.1171 6.05306 13.149 6.08987 13.1819C6.23573 13.3107 6.38469 13.4351 6.53451 13.5587C6.77776 13.76 7.018 13.9648 7.25686 14.1719C7.49683 14.38 7.7381 14.5859 7.98224 14.7884C8.25982 15.0186 8.53337 15.2538 8.80621 15.4903C9.01345 15.6696 9.2223 15.8465 9.43298 16.0212C9.71056 16.2515 9.98412 16.4866 10.257 16.7231C10.4642 16.9025 10.673 17.0793 10.8837 17.2541C11.1612 17.4843 11.4347 17.7193 11.7074 17.9558C11.9175 18.1377 12.1297 18.3164 12.3435 18.4934C13.4446 19.4103 14.2191 20.3662 14.3948 21.8893C14.4317 22.2616 14.4136 22.6337 14.4003 23.0071C14.3976 23.094 14.395 23.1808 14.3925 23.2677C14.387 23.4528 14.3811 23.6379 14.3749 23.823C14.3653 24.1158 14.3567 24.4088 14.3483 24.7017C14.3337 25.209 14.3183 25.7163 14.3025 26.2236C14.2944 26.4847 14.2865 26.7459 14.2787 27.007C14.2724 27.2121 14.2661 27.4172 14.2597 27.6223C14.2568 27.7187 14.2538 27.8151 14.251 27.9114C14.2247 28.7864 14.5348 30.7671 13.1915 30.7105C12.9512 30.6723 12.8241 30.54 12.6645 30.3567C12.5125 30.1176 12.53 29.8905 12.5375 29.6097C12.5384 29.568 12.5811 28.8551 12.582 28.8121C12.5852 28.6729 12.5887 28.5338 12.5923 28.3946C12.5947 28.2957 12.597 28.1968 12.5994 28.0979C12.6174 27.3551 12.6405 26.6125 12.6645 25.8699C12.6679 25.7627 12.6714 25.6556 12.6748 25.5484C12.6782 25.4408 12.6817 25.3333 12.6852 25.2257C12.6877 25.1459 12.6877 25.1459 12.6904 25.0645C12.6992 24.7908 12.7083 24.5171 12.7177 24.2434C12.727 23.9714 12.7358 23.6994 12.7442 23.4273C12.7474 23.3256 12.7509 23.2239 12.7545 23.1222C12.7886 22.174 12.7578 21.3621 12.141 20.6188C12.1169 20.5895 12.0927 20.5601 12.0678 20.5299C11.8404 20.2731 11.5744 20.0642 11.3127 19.8491C11.1211 19.6912 10.9326 19.5294 10.7447 19.3667C10.7125 19.3388 10.6803 19.311 10.6472 19.2823C10.5157 19.1685 10.3844 19.0546 10.2531 18.9408C9.89012 18.6262 9.52601 18.3136 9.15679 18.0074C8.90705 17.7997 8.66127 17.5871 8.41557 17.3741C8.20833 17.1948 7.99949 17.0179 7.7888 16.8431C7.51122 16.6129 7.23767 16.3778 6.96482 16.1412C6.75759 15.9619 6.54874 15.785 6.33806 15.6103C6.06071 15.3802 5.78732 15.1454 5.51482 14.9089C5.30068 14.7235 5.08421 14.5416 4.86615 14.3614C4.04104 13.6762 4.04104 13.6762 4.00061 13.3456C3.99655 13.037 4.00705 12.8444 4.21029 12.6052C4.49262 12.3345 4.81656 12.2461 5.16593 12.431Z" fill="white"/>
<path d="M24.9625 16.9303C25.586 17.4131 25.9178 18.2782 26.0215 19.0391C26.1168 20.1598 25.9559 21.2892 25.2177 22.1833C24.8812 22.5344 24.5146 22.6855 24.0262 22.7075C23.5861 22.6869 23.2238 22.5023 22.8965 22.2129C22.242 21.3573 21.9657 20.2464 22.0771 19.1813C22.1768 18.4444 22.4447 17.4809 23.043 16.9883C23.6651 16.615 24.3376 16.4819 24.9625 16.9303Z" fill="white"/>
</svg>
