<svg width="117" height="47" viewBox="0 0 117 47" fill="none" xmlns="http://www.w3.org/2000/svg">
<circle cx="23.5" cy="23.5" r="19.5" fill="#1A76D1"/>
<path d="M14.2516 9.06243C14.2904 9.06593 14.3291 9.06944 14.369 9.07305C14.7345 9.17905 14.9288 9.44075 15.1392 9.73573C15.1817 9.79384 15.1817 9.79384 15.2251 9.85312C15.3091 9.96784 15.3925 10.083 15.4758 10.1982C16.7675 11.9665 18.3393 13.489 20.155 14.7141C20.2096 14.7512 20.2096 14.7512 20.2653 14.789C22.3447 16.1928 24.6399 17.1756 27.027 17.9176C28.0304 18.2315 28.8312 18.5966 29.35 19.5565C29.7095 20.3244 29.7262 21.1467 29.447 21.9471C29.2032 22.5885 28.891 23.1962 28.4795 23.7459C28.4447 23.7928 28.4099 23.8396 28.374 23.8879C27.5517 24.9407 26.5559 25.8577 25.215 26.1399C25.0091 26.1621 24.8064 26.1659 24.5995 26.1637C24.5176 26.1631 24.5176 26.1631 24.4342 26.1624C23.5167 26.1422 22.7281 25.7903 22.0593 25.1605C21.8682 24.95 21.6908 24.7309 21.5152 24.5076C21.4438 24.418 21.3724 24.3285 21.3009 24.239C21.2662 24.1953 21.2314 24.1516 21.1955 24.1066C20.8093 23.6288 20.4067 23.1652 19.9917 22.7122C19.9664 22.6844 19.9411 22.6566 19.915 22.628C19.4741 22.1446 19.032 21.6661 18.5346 21.2397C18.4148 21.1351 18.2979 21.0277 18.1813 20.9194C17.8524 20.6144 17.5143 20.3248 17.1625 20.0461C17.1282 20.0187 17.0938 19.9913 17.0584 19.9631C15.7066 18.8863 14.2683 17.9426 12.7554 17.1081C12.6975 17.076 12.6395 17.044 12.5798 17.0109C11.7807 16.5706 10.9747 16.16 10.1423 15.7851C10.0897 15.7613 10.037 15.7375 9.98273 15.713C9.86511 15.6604 9.74709 15.6087 9.62881 15.5577C9.56639 15.5302 9.50398 15.5027 9.43968 15.4743C9.35483 15.4376 9.35483 15.4376 9.26826 15.4002C9.02732 15.2668 8.82357 15.0869 8.72918 14.8229C8.7109 14.696 8.7109 14.696 8.70878 14.5611C8.70723 14.517 8.70569 14.4729 8.7041 14.4274C8.77602 14.0014 9.10802 13.7131 9.40086 13.4219C9.44654 13.3759 9.49222 13.3298 9.53928 13.2824C9.66387 13.157 9.78881 13.032 9.91397 12.9071C10.0186 12.8026 10.1231 12.6978 10.2275 12.5931C10.4739 12.346 10.7206 12.0993 10.9677 11.8528C11.2222 11.599 11.476 11.3444 11.7295 11.0895C11.9476 10.8701 12.1661 10.6512 12.385 10.4327C12.5155 10.3023 12.6459 10.1718 12.7759 10.0409C12.9208 9.89519 13.0664 9.75015 13.2122 9.60528C13.2763 9.54037 13.2763 9.54037 13.3418 9.47415C13.6154 9.20414 13.8475 9.01703 14.2516 9.06243Z" fill="white"/>
<path d="M27.8631 28.1354C28.5326 28.7567 29.215 29.5843 29.3404 30.5978C29.4283 32.0362 28.9002 33.1801 28.3076 34.4097C28.1611 34.7137 28.12 34.9278 28.1157 35.2741C28.1143 35.3567 28.1127 35.4394 28.1112 35.522C28.109 35.6516 28.1071 35.7813 28.1057 35.911C28.1042 36.0366 28.1018 36.1621 28.0993 36.2876C28.0982 36.3626 28.0972 36.4375 28.0961 36.5148C27.7534 39.7733 21.1296 39.8557 21.243 36.361C21.2853 36.0565 21.3763 35.7705 21.4686 35.4817C21.7376 34.6285 21.5644 33.7395 21.3833 32.8849C21.1101 31.5836 21.1603 29.9856 21.7741 28.8155C22.3547 27.8235 23.1575 27.3235 24.1608 27.0778C25.4729 26.8936 26.7985 27.2221 27.8631 28.1354Z" fill="white"/>
<path d="M20.0394 8.43333C20.0931 8.43228 20.1468 8.43123 20.2022 8.43015C20.5752 8.48921 20.8577 8.74709 21.1412 8.98082C21.2131 9.03925 21.2851 9.09762 21.3571 9.15595C21.3928 9.18491 21.4285 9.21388 21.4653 9.24372C21.6185 9.36696 21.7739 9.48706 21.9301 9.60652C21.959 9.62867 21.9879 9.65082 22.0177 9.67365C22.1041 9.73973 22.1905 9.80574 22.2769 9.87176C22.7197 10.2113 23.1607 10.5529 23.601 10.8956C23.9566 11.1724 24.3134 11.4474 24.6709 11.7216C25.1138 12.0614 25.5551 12.4031 25.9956 12.746C26.2335 12.9312 26.472 13.1158 26.7112 13.2995C27.036 13.5488 27.3592 13.8003 27.6823 14.0519C27.9203 14.2371 28.1587 14.4217 28.3979 14.6053C28.6799 14.8218 28.9607 15.0398 29.2412 15.2582C29.6391 15.568 30.0381 15.8762 30.4382 16.1831C31.0023 16.616 31.5646 17.0512 32.1249 17.4889C32.2062 17.5524 32.2062 17.5524 32.2892 17.6171C32.6094 17.8697 32.9147 18.1357 33.213 18.4139C33.256 18.4533 33.299 18.4927 33.3433 18.5333C34.9259 20.0418 35.9655 22.3371 36.0491 24.5239C36.0535 24.7327 36.0551 24.9414 36.0559 25.1503C36.0576 25.254 36.0576 25.254 36.0593 25.3598C36.0641 26.5605 35.7577 27.7377 35.5071 28.9054C35.4678 29.0889 35.4286 29.2724 35.3895 29.4559C35.2972 29.8888 35.2045 30.3216 35.1116 30.7543C35.0161 31.1992 34.9212 31.6442 34.8267 32.0893C34.745 32.4737 34.6629 32.8579 34.5805 33.2421C34.5314 33.4707 34.4826 33.6992 34.4341 33.9279C34.3886 34.1424 34.3426 34.3568 34.2962 34.5711C34.2794 34.6494 34.2627 34.7277 34.2462 34.8061C34.0273 35.8465 33.9137 37.6847 32.5045 37.475C31.5011 37.0091 32.1327 35.6273 32.3144 34.8221C32.3238 34.7782 32.3331 34.7343 32.3427 34.689C32.3737 34.5436 32.4057 34.3984 32.4377 34.2531C32.46 34.1494 32.4823 34.0457 32.5045 33.9419C32.5643 33.6635 32.6249 33.3852 32.6857 33.107C32.7486 32.8184 32.8106 32.5297 32.8727 32.2409C32.9733 31.7737 33.0744 31.3066 33.1758 30.8395C33.3566 30.0065 33.5361 29.1732 33.7149 28.3397C33.7673 28.0956 33.82 27.8515 33.8729 27.6074C33.8975 27.4935 33.9221 27.3796 33.9466 27.2658C33.976 27.1294 34.0055 26.9932 34.0352 26.8569C34.4575 24.8903 34.1326 22.8279 33.0483 21.1272C32.4704 20.2481 31.7876 19.5459 30.9459 18.9176C30.7261 18.7534 30.5119 18.5832 30.2988 18.4105C29.9876 18.1592 29.67 17.9179 29.349 17.6794C29.1003 17.4939 28.8568 17.3031 28.6155 17.1081C28.3375 16.8834 28.0556 16.6652 27.7688 16.4518C27.4339 16.2025 27.104 15.9479 26.7765 15.689C26.5459 15.5068 26.3141 15.3263 26.0821 15.146C26.0402 15.1134 25.9983 15.0808 25.9551 15.0472C25.6621 14.8196 25.3682 14.5932 25.0739 14.3673C24.8481 14.1936 24.6236 14.0185 24.3989 13.8436C24.001 13.5338 23.6019 13.2256 23.2019 12.9186C22.759 12.5788 22.3176 12.2372 21.8772 11.8943C21.6392 11.709 21.4008 11.5244 21.1616 11.3408C20.7558 11.0293 20.3521 10.7153 19.9489 10.4005C19.8642 10.3347 19.7792 10.2694 19.6938 10.2045C19.65 10.171 19.6061 10.1375 19.561 10.103C19.5211 10.0728 19.4813 10.0425 19.4402 10.0114C19.2557 9.85623 19.1917 9.70908 19.1572 9.47368C19.138 9.16771 19.1939 8.9674 19.3616 8.71239C19.5622 8.49796 19.7497 8.43371 20.0394 8.43333Z" fill="white"/>
<path d="M9.75634 17.8517C10.0048 17.9902 10.2103 18.1708 10.4225 18.3642C10.5034 18.4364 10.5843 18.5085 10.6652 18.5806C10.705 18.6162 10.7448 18.6517 10.7859 18.6884C10.9484 18.832 11.1144 18.9705 11.2813 19.1083C11.5524 19.3326 11.8201 19.5608 12.0862 19.7916C12.3536 20.0234 12.6225 20.2528 12.8945 20.4785C13.2038 20.735 13.5086 20.997 13.8126 21.2606C14.0436 21.4604 14.2763 21.6575 14.511 21.8522C14.8204 22.1088 15.1252 22.3708 15.4292 22.6344C15.6601 22.8342 15.8928 23.0313 16.1276 23.226C16.4368 23.4825 16.7415 23.7443 17.0454 24.0079C17.2795 24.2106 17.516 24.4097 17.7542 24.6069C18.9811 25.6286 19.8442 26.6938 20.04 28.3909C20.0811 28.8058 20.0609 29.2204 20.046 29.6365C20.0431 29.7333 20.0402 29.8301 20.0373 29.9269C20.0312 30.1331 20.0246 30.3394 20.0178 30.5456C20.007 30.8719 19.9975 31.1983 19.9882 31.5248C19.9719 32.0901 19.9547 32.6553 19.9371 33.2206C19.9281 33.5115 19.9193 33.8025 19.9105 34.0935C19.9036 34.3221 19.8965 34.5506 19.8894 34.7792C19.8861 34.8865 19.8829 34.9939 19.8796 35.1013C19.8504 36.0763 20.1959 38.2834 18.6991 38.2202C18.4314 38.1777 18.2897 38.0303 18.1119 37.826C17.9426 37.5596 17.962 37.3066 17.9704 36.9937C17.9714 36.9472 18.0189 36.1528 18.02 36.1049C18.0235 35.9498 18.0275 35.7948 18.0315 35.6397C18.0341 35.5295 18.0367 35.4193 18.0393 35.3091C18.0594 34.4814 18.0851 33.6539 18.1119 32.8265C18.1157 32.707 18.1195 32.5876 18.1233 32.4682C18.1272 32.3483 18.1311 32.2285 18.1349 32.1086C18.1378 32.0197 18.1378 32.0197 18.1407 31.929C18.1505 31.624 18.1606 31.319 18.1711 31.014C18.1815 30.711 18.1913 30.4079 18.2007 30.1048C18.2043 29.9914 18.2081 29.8781 18.2122 29.7647C18.2502 28.7082 18.2158 27.8035 17.5286 26.9752C17.5017 26.9425 17.4747 26.9099 17.4469 26.8762C17.1936 26.5901 16.8972 26.3572 16.6056 26.1175C16.3921 25.9417 16.1821 25.7614 15.9727 25.58C15.9368 25.549 15.9009 25.5179 15.864 25.486C15.7176 25.3592 15.5712 25.2323 15.4249 25.1054C15.0204 24.7549 14.6147 24.4066 14.2033 24.0653C13.925 23.834 13.6511 23.597 13.3774 23.3597C13.1464 23.1599 12.9137 22.9628 12.679 22.7681C12.3697 22.5115 12.0648 22.2495 11.7608 21.9859C11.5299 21.7861 11.2972 21.589 11.0624 21.3943C10.7534 21.138 10.4487 20.8763 10.1451 20.6128C9.90648 20.4062 9.66527 20.2035 9.42229 20.0027C8.50289 19.2392 8.50289 19.2392 8.45784 18.8708C8.4533 18.5269 8.46501 18.3123 8.69148 18.0458C9.00607 17.7442 9.36704 17.6457 9.75634 17.8517Z" fill="white"/>
<path d="M31.8154 22.8652C32.5102 23.4032 32.8799 24.3672 32.9954 25.215C33.1016 26.4638 32.9224 27.7222 32.0998 28.7186C31.7248 29.1097 31.3163 29.2781 30.7721 29.3026C30.2816 29.2797 29.8779 29.074 29.5133 28.7515C28.784 27.7982 28.4761 26.5603 28.6002 25.3734C28.7113 24.5523 29.0099 23.4787 29.6765 22.9298C30.3697 22.5138 31.1191 22.3656 31.8154 22.8652Z" fill="white"/>
<path d="M54.1634 20.3777C54.1634 21.8843 53.2238 22.4189 52.2032 22.4189H50V11.6297H52.2032C53.2238 11.6297 54.1634 12.2291 54.1634 13.7357V20.3777ZM52.4948 20.3129V13.7357C52.4948 13.3631 52.349 13.1849 52.0574 13.1849H51.6686V20.8799H52.0574C52.349 20.8799 52.4948 20.7017 52.4948 20.3129Z" fill="#1F2226"/>
<path d="M59.3751 20.4101C59.3751 21.7061 58.4517 22.5809 57.2691 22.5809C56.1027 22.5809 55.1631 21.7061 55.1631 20.4101V13.6385C55.1631 12.3587 56.1027 11.4677 57.2691 11.4677C58.4517 11.4677 59.3751 12.3587 59.3751 13.6385V20.4101ZM57.6741 20.5235V13.5251C57.6741 13.2497 57.5121 13.0877 57.2691 13.0877C57.0261 13.0877 56.8641 13.2497 56.8641 13.5251V20.5235C56.8641 20.7989 57.0261 20.9609 57.2691 20.9609C57.5121 20.9609 57.6741 20.7989 57.6741 20.5235Z" fill="#1F2226"/>
<path d="M64.4576 20.4101C64.4576 21.7061 63.761 22.5809 62.5298 22.5809C61.331 22.5809 60.3752 21.6899 60.3752 20.3615V13.6871C60.3752 12.3749 61.331 11.4677 62.5298 11.4677C63.761 11.4677 64.4576 12.3587 64.4576 13.6385V15.4853H63.032V13.5899C63.032 13.2983 62.8862 13.0877 62.546 13.0877C62.2058 13.0877 62.0762 13.2983 62.0762 13.5899V20.4587C62.0762 20.7503 62.2058 20.9609 62.546 20.9609C62.8862 20.9609 63.032 20.7503 63.032 20.4587V18.5633H64.4576V20.4101Z" fill="#1F2226"/>
<path d="M69.1898 13.2659H67.9748V22.4189H66.3062V13.2659H65.0912V11.6297H69.1898V13.2659Z" fill="#1F2226"/>
<path d="M74.0475 20.4101C74.0475 21.7061 73.1241 22.5809 71.9415 22.5809C70.7751 22.5809 69.8355 21.7061 69.8355 20.4101V13.6385C69.8355 12.3587 70.7751 11.4677 71.9415 11.4677C73.1241 11.4677 74.0475 12.3587 74.0475 13.6385V20.4101ZM72.3465 20.5235V13.5251C72.3465 13.2497 72.1845 13.0877 71.9415 13.0877C71.6985 13.0877 71.5365 13.2497 71.5365 13.5251V20.5235C71.5365 20.7989 71.6985 20.9609 71.9415 20.9609C72.1845 20.9609 72.3465 20.7989 72.3465 20.5235Z" fill="#1F2226"/>
<path d="M79.4054 22.4189H77.9798C77.7206 22.4189 77.5748 21.3659 77.5748 20.7503V18.4013C77.5748 18.1421 77.4452 17.9153 77.2184 17.9153H76.8134V22.4189H75.1448V11.6297H77.3966C78.2228 11.6297 79.1462 12.1157 79.1462 13.5251V15.9875C79.1462 16.4897 78.8708 16.9109 78.4334 17.2025C78.8708 17.4941 79.1948 17.8991 79.1948 18.4337V20.6207C79.1948 21.3011 79.292 21.8519 79.4054 22.3703V22.4189ZM77.5262 16.0361V13.6061C77.5262 13.2821 77.429 13.1525 77.2346 13.1525H76.8134V16.4897H77.2346C77.429 16.4897 77.5262 16.3763 77.5262 16.0361Z" fill="#1F2226"/>
<path d="M91.2549 22.4189H89.6511L89.3271 21.3659C88.9221 22.2083 88.0473 22.6943 87.1563 22.6943C85.1799 22.6943 83.9487 21.3011 83.9487 19.7135V14.3351C83.9487 12.8771 85.4229 11.3705 87.6261 11.3705C89.8131 11.3705 91.2063 12.8771 91.2063 14.3351V15.6959H88.4037V14.3675C88.4037 14.0111 88.1607 13.7519 87.6747 13.7519C87.1887 13.7519 86.9295 14.0111 86.9295 14.3675V19.6487C86.9295 20.0051 87.2373 20.2967 87.7071 20.2967C88.2093 20.2967 88.4847 20.0051 88.4847 19.6487V18.7091H87.6747V16.9595H91.2549V22.4189Z" fill="#1F2226"/>
<path d="M100.16 22.4189H97.2606L97.0662 20.9123H95.349L95.106 22.4189H92.4654L94.6524 11.6297H98.022L100.16 22.4189ZM96.7908 18.9197L96.3048 15.2747L95.6892 18.9197H96.7908Z" fill="#1F2226"/>
<path d="M108.043 19.5677C108.043 21.4307 106.552 22.6943 104.495 22.6943C102.454 22.6943 101.077 21.4307 101.077 19.5677V18.1259H103.847V19.7297C103.847 20.0861 104.155 20.2967 104.495 20.2967C104.835 20.2967 105.143 20.0861 105.143 19.7297V11.6297H108.043V19.5677Z" fill="#1F2226"/>
<path d="M112.735 22.4189H109.835V11.6297H112.735V22.4189Z" fill="#1F2226"/>
<path d="M57.2738 35.4189H55.2812V27.6753L54.941 30.2349L54.1958 35.4189H52.8674L52.187 30.2349L51.8792 27.6753V35.4189H50.0486V24.6297H52.7864L53.4506 28.8579L53.6936 31.0449L53.9366 28.8579L54.5846 24.6297H57.2738V35.4189Z" fill="#1F2226"/>
<path d="M62.4401 35.4189H58.0499V24.6297H62.4401V26.4603H60.1235V29.0361H61.6463V30.7209H60.1235V33.5235H62.4401V35.4189Z" fill="#1F2226"/>
<path d="M68.3755 35.4189H66.3019V31.1259H65.1193V35.4189H63.0295V24.6297H65.1193V29.2143H66.3019V24.6297H68.3755V35.4189Z" fill="#1F2226"/>
<path d="M73.5383 35.4189H69.1481V24.6297H73.5383V26.4603H71.2217V29.0361H72.7445V30.7209H71.2217V33.5235H73.5383V35.4189Z" fill="#1F2226"/>
<path d="M79.2955 33.0375C79.2955 34.6575 78.2263 35.4189 76.8169 35.4189H74.1277V24.6297H76.8169C78.2263 24.6297 79.2955 25.5207 79.2955 27.1407V33.0375ZM77.222 32.9403V27.1245C77.222 26.6709 77.0437 26.4279 76.6388 26.4279H76.2176V33.6207H76.6388C77.0437 33.6207 77.222 33.3939 77.222 32.9403Z" fill="#1F2226"/>
<path d="M82.0831 35.4189H79.9933V24.6297H82.0831V35.4189Z" fill="#1F2226"/>
<path d="M90.4018 35.4189H88.3282V31.1259H87.1456V35.4189H85.0558V24.6297H87.1456V29.2143H88.3282V24.6297H90.4018V35.4189Z" fill="#1F2226"/>
<path d="M96.2289 35.4189H94.1391L93.9933 33.6855H92.7621L92.5839 35.4189H90.7047L92.2761 24.6297H94.6737L96.2289 35.4189ZM93.8151 32.0007L93.4587 27.8049L92.9889 32.0007H93.8151Z" fill="#1F2226"/>
<path d="M101.442 32.9079C101.442 34.6089 100.34 35.6295 98.8982 35.6295C97.2944 35.6295 96.3386 34.6899 96.3386 33.0861V32.1465H98.1368V33.1509C98.1368 33.5883 98.3636 33.8799 98.801 33.8799C99.2222 33.8799 99.4328 33.6207 99.4328 33.1671C99.4328 32.2923 98.9144 31.6281 98.1854 30.7209C97.3754 29.8137 96.3872 28.5177 96.3872 27.1731C96.3872 25.6989 97.2458 24.4353 98.9954 24.4353C100.389 24.4353 101.328 25.4397 101.328 26.9625V27.9021H99.53V26.8329C99.53 26.4441 99.3032 26.2173 98.9954 26.2173C98.6876 26.2173 98.396 26.4279 98.396 26.8491C98.396 27.8859 98.9144 28.3395 99.6596 29.3277C100.534 30.3807 101.442 31.5147 101.442 32.9079Z" fill="#1F2226"/>
<path d="M106.979 35.4189H104.889L104.743 33.6855H103.512L103.334 35.4189H101.455L103.026 24.6297H105.424L106.979 35.4189ZM104.565 32.0007L104.209 27.8049L103.739 32.0007H104.565Z" fill="#1F2226"/>
<path d="M112.71 35.4189H110.993L109.616 30.9963L109.13 29.4897V35.4189H107.299V24.6297H109.211L110.458 29.0523L110.896 30.5751V24.6297H112.71V35.4189Z" fill="#1F2226"/>
</svg>
