<?xml version="1.0" encoding="UTF-8" standalone="no"?>
<svg
   xmlns:dc="http://purl.org/dc/elements/1.1/"
   xmlns:cc="http://creativecommons.org/ns#"
   xmlns:rdf="http://www.w3.org/1999/02/22-rdf-syntax-ns#"
   xmlns:svg="http://www.w3.org/2000/svg"
   xmlns="http://www.w3.org/2000/svg"
   xmlns:sodipodi="http://sodipodi.sourceforge.net/DTD/sodipodi-0.dtd"
   xmlns:inkscape="http://www.inkscape.org/namespaces/inkscape"
   version="1.0"
   width="319"
   height="312"
   viewBox="0 0 239.25 234">
  <g
     transform="matrix(0.01919647,0,0,-0.01919089,2.6381697,232.25469)"
     id="g126"
     style="fill:#000000;stroke:none;stroke-width:5.21004868">
    <path
       d="m 5777,11980 c -5,-19 -14,-20 -160,-20 -125,0 -157,-3 -167,-15 -10,-12 -37,-15 -120,-15 -83,0 -110,-3 -120,-15 -9,-11 -33,-15 -90,-15 -57,0 -81,-4 -90,-15 -9,-10 -32,-15 -75,-15 -43,0 -66,-5 -75,-15 -8,-9 -30,-15 -60,-15 -30,0 -52,-6 -60,-15 -9,-10 -32,-15 -75,-15 -43,0 -66,-5 -75,-15 -7,-8 -27,-15 -45,-15 -18,0 -38,-7 -45,-15 -8,-9 -30,-15 -60,-15 -30,0 -52,-6 -60,-15 -7,-8 -27,-15 -45,-15 -18,0 -38,-7 -45,-15 -7,-8 -27,-15 -45,-15 -18,0 -38,-7 -45,-15 -7,-8 -27,-15 -45,-15 -18,0 -38,-7 -45,-15 -7,-8 -27,-15 -45,-15 -18,0 -38,-7 -45,-15 -7,-8 -27,-15 -45,-15 -18,0 -38,-7 -45,-15 -7,-8 -27,-15 -45,-15 -18,0 -38,-7 -45,-15 -7,-8 -20,-15 -30,-15 -10,0 -23,-7 -30,-15 -7,-8 -20,-15 -30,-15 -10,0 -23,-7 -30,-15 -7,-8 -27,-15 -45,-15 -18,0 -38,-7 -45,-15 -7,-8 -20,-15 -30,-15 -10,0 -23,-7 -30,-15 -7,-8 -20,-15 -30,-15 -10,0 -23,-7 -30,-15 -7,-8 -20,-15 -30,-15 -10,0 -23,-7 -30,-15 -7,-8 -20,-15 -30,-15 -10,0 -23,-7 -30,-15 -7,-8 -20,-15 -30,-15 -10,0 -23,-7 -30,-15 -7,-8 -20,-15 -30,-15 -10,0 -23,-7 -30,-15 -7,-8 -20,-15 -30,-15 -10,0 -23,-7 -30,-15 -7,-8 -20,-15 -30,-15 -10,0 -23,-7 -30,-15 -7,-8 -20,-15 -29,-15 -10,0 -30,-13 -46,-30 -16,-16 -36,-30 -46,-30 -9,0 -22,-7 -29,-15 -7,-8 -20,-15 -29,-15 -10,0 -30,-13 -46,-30 -16,-16 -36,-30 -46,-30 -9,0 -22,-7 -29,-15 -7,-8 -20,-15 -29,-15 -10,0 -30,-13 -46,-30 -16,-16 -36,-30 -45,-30 -9,0 -29,-13 -45,-30 -16,-16 -36,-30 -45,-30 -9,0 -36,-20 -60,-45 -24,-25 -51,-45 -60,-45 -9,0 -36,-20 -60,-45 -24,-25 -51,-45 -60,-45 -9,0 -36,-20 -60,-45 -24,-25 -51,-45 -60,-45 -8,0 -49,-34 -90,-75 -41,-41 -81,-75 -90,-75 -20,0 -630,-610 -630,-630 0,-9 -34,-49 -75,-90 -41,-41 -75,-82 -75,-90 0,-9 -20,-36 -45,-60 -25,-24 -45,-51 -45,-60 0,-9 -20,-36 -45,-60 -25,-24 -45,-51 -45,-60 0,-9 -20,-36 -45,-60 -25,-24 -45,-51 -45,-60 0,-9 -13,-29 -30,-45 -16,-16 -30,-36 -30,-45 0,-9 -13,-29 -30,-45 -16,-16 -30,-36 -30,-46 0,-9 -7,-22 -15,-29 -8,-7 -15,-20 -15,-29 0,-10 -13,-30 -30,-46 -16,-16 -30,-36 -30,-46 0,-9 -7,-22 -15,-29 -8,-7 -15,-20 -15,-29 0,-10 -13,-30 -30,-46 -16,-16 -30,-36 -30,-46 0,-9 -7,-22 -15,-29 -8,-7 -15,-20 -15,-30 0,-10 -7,-23 -15,-30 -8,-7 -15,-20 -15,-30 0,-10 -7,-23 -15,-30 -8,-7 -15,-20 -15,-30 0,-10 -7,-23 -15,-30 -8,-7 -15,-20 -15,-30 0,-10 -7,-23 -15,-30 -8,-7 -15,-20 -15,-30 0,-10 -7,-23 -15,-30 -8,-7 -15,-20 -15,-30 0,-10 -7,-23 -15,-30 -8,-7 -15,-20 -15,-30 0,-10 -7,-23 -15,-30 -8,-7 -15,-27 -15,-45 0,-18 -7,-38 -15,-45 -8,-7 -15,-20 -15,-30 0,-10 -7,-23 -15,-30 -8,-7 -15,-20 -15,-30 0,-10 -7,-23 -15,-30 -8,-7 -15,-27 -15,-45 0,-18 -7,-38 -15,-45 -8,-7 -15,-20 -15,-30 0,-10 -7,-23 -15,-30 -8,-7 -15,-27 -15,-45 0,-18 -7,-38 -15,-45 -8,-7 -15,-27 -15,-45 0,-18 -7,-38 -15,-45 -8,-7 -15,-27 -15,-45 0,-18 -7,-38 -15,-45 -8,-7 -15,-27 -15,-45 0,-18 -7,-38 -15,-45 -8,-7 -15,-27 -15,-45 0,-18 -7,-38 -15,-45 -9,-8 -15,-30 -15,-60 0,-30 -6,-52 -15,-60 -9,-8 -15,-30 -15,-60 0,-30 -6,-52 -15,-60 -9,-8 -15,-30 -15,-60 0,-30 -6,-52 -15,-60 -10,-9 -15,-32 -15,-75 0,-43 -5,-66 -15,-75 -10,-9 -15,-32 -15,-75 0,-43 -5,-66 -15,-75 -11,-9 -15,-33 -15,-90 0,-57 -4,-81 -15,-90 -11,-9 -15,-35 -15,-105 0,-70 -4,-96 -15,-105 -12,-10 -15,-45 -15,-196 0,-111 -4,-185 -10,-189 -14,-8 -14,-602 0,-610 6,-4 10,-73 10,-174 0,-138 3,-171 15,-181 12,-10 15,-37 15,-120 0,-83 3,-110 15,-120 11,-9 15,-33 15,-90 0,-57 4,-81 15,-90 10,-9 15,-32 15,-75 0,-43 5,-66 15,-75 9,-8 15,-30 15,-60 0,-30 6,-52 15,-60 10,-9 15,-32 15,-75 0,-43 5,-66 15,-75 8,-7 15,-27 15,-45 0,-18 7,-38 15,-45 9,-8 15,-30 15,-60 0,-30 6,-52 15,-60 8,-7 15,-27 15,-45 0,-18 7,-38 15,-45 9,-8 15,-30 15,-60 0,-30 6,-52 15,-60 8,-7 15,-20 15,-30 0,-10 7,-23 15,-30 8,-7 15,-27 15,-45 0,-18 7,-38 15,-45 8,-7 15,-27 15,-45 0,-18 7,-38 15,-45 8,-7 15,-27 15,-45 0,-18 7,-38 15,-45 8,-7 15,-20 15,-30 0,-10 7,-23 15,-30 8,-7 15,-20 15,-30 0,-10 7,-23 15,-30 8,-7 15,-27 15,-45 0,-18 7,-38 15,-45 8,-7 15,-20 15,-30 0,-10 7,-23 15,-30 8,-7 15,-20 15,-30 0,-10 7,-23 15,-30 8,-7 15,-20 15,-30 0,-10 7,-23 15,-30 8,-7 15,-20 15,-30 0,-10 7,-23 15,-30 8,-7 15,-20 15,-30 0,-10 7,-23 15,-30 8,-7 15,-20 15,-30 0,-10 7,-23 15,-30 8,-7 15,-20 15,-30 0,-10 7,-23 15,-30 8,-7 15,-20 15,-30 0,-10 7,-23 15,-30 8,-7 15,-20 15,-30 0,-10 7,-23 15,-30 8,-7 15,-20 15,-29 0,-10 13,-30 30,-46 16,-16 30,-36 30,-46 0,-9 7,-22 15,-29 8,-7 15,-20 15,-29 0,-10 13,-30 30,-46 16,-16 30,-36 30,-45 0,-9 13,-29 30,-45 16,-16 30,-36 30,-45 0,-9 13,-29 30,-45 16,-16 30,-36 30,-45 0,-9 13,-29 30,-45 16,-16 30,-36 30,-46 0,-9 14,-29 30,-42 17,-14 30,-30 30,-36 0,-17 -105,-14 -120,4 -9,11 -33,15 -90,15 -57,0 -81,4 -90,15 -9,11 -33,15 -90,15 -57,0 -81,4 -90,15 -8,9 -30,15 -59,15 -43,0 -51,-4 -99,-53 -40,-41 -52,-60 -52,-84 0,-17 -7,-36 -15,-43 -8,-7 -15,-20 -15,-30 0,-10 -7,-23 -15,-30 -9,-8 -15,-30 -15,-60 0,-30 -6,-52 -15,-60 -9,-8 -15,-30 -15,-60 0,-30 -6,-52 -15,-60 -9,-8 -15,-30 -15,-60 0,-30 -6,-52 -15,-60 -8,-7 -15,-27 -15,-45 0,-18 -7,-38 -15,-45 -9,-8 -15,-30 -15,-60 0,-30 -6,-52 -15,-60 -8,-7 -15,-27 -15,-45 0,-18 -7,-38 -15,-45 -8,-7 -15,-27 -15,-45 0,-18 -7,-38 -15,-45 -9,-8 -15,-30 -15,-60 0,-30 -6,-52 -15,-60 -8,-7 -15,-27 -15,-45 0,-18 -7,-38 -15,-45 -8,-7 -15,-27 -15,-45 0,-18 -7,-38 -15,-45 -8,-7 -15,-20 -15,-30 0,-10 -7,-23 -15,-30 -8,-7 -15,-27 -15,-45 0,-18 -7,-38 -15,-45 -9,-8 -15,-30 -15,-60 0,-30 -6,-52 -15,-60 -8,-7 -15,-20 -15,-30 0,-10 -7,-23 -15,-30 -11,-9 -15,-33 -15,-89 0,-76 1,-77 38,-114 37,-36 40,-37 114,-37 55,0 79,-4 88,-15 10,-12 37,-15 120,-15 83,0 110,-3 120,-15 9,-11 33,-15 90,-15 57,0 81,-4 90,-15 10,-12 37,-15 120,-15 83,0 110,-3 120,-15 9,-11 33,-15 90,-15 57,0 81,-4 90,-15 10,-12 40,-15 150,-15 110,0 140,-3 150,-15 9,-11 33,-15 90,-15 57,0 81,-4 90,-15 10,-12 42,-15 165,-15 123,0 155,-3 165,-15 10,-12 40,-15 150,-15 110,0 140,-3 150,-15 10,-12 38,-15 135,-15 97,0 125,-3 135,-15 10,-12 40,-15 150,-15 110,0 140,-3 150,-15 10,-12 47,-15 210,-15 163,0 200,-3 210,-15 10,-12 43,-15 180,-15 137,0 170,-3 180,-15 11,-13 57,-15 300,-15 243,0 289,-2 300,-15 11,-13 58,-15 316,-15 191,0 305,-4 309,-10 9,-14 2761,-14 2770,0 4,6 118,10 309,10 258,0 305,2 316,15 11,13 63,15 360,15 297,0 349,2 360,15 10,12 42,15 165,15 123,0 155,3 165,15 10,12 45,15 195,15 150,0 185,3 195,15 10,12 37,15 120,15 83,0 110,3 120,15 10,12 43,15 180,15 137,0 170,3 180,15 10,12 38,15 135,15 97,0 125,3 135,15 10,12 40,15 150,15 110,0 140,3 150,15 10,12 38,15 135,15 97,0 125,3 135,15 10,12 37,15 120,15 83,0 110,3 120,15 9,10 32,15 75,15 43,0 66,5 75,15 10,12 40,15 150,15 110,0 140,3 150,15 9,10 32,15 75,15 43,0 66,5 75,15 9,11 35,15 105,15 70,0 96,4 105,15 7,8 27,15 44,15 36,0 76,34 76,64 0,10 9,20 20,23 16,4 20,14 20,48 0,34 -4,44 -20,48 -17,4 -20,14 -20,55 0,32 -5,54 -15,62 -10,9 -15,32 -15,75 0,43 -5,66 -15,75 -9,8 -15,30 -15,60 0,30 -6,52 -15,60 -9,8 -15,30 -15,60 0,30 -6,52 -15,60 -11,9 -15,33 -15,90 0,57 -4,81 -15,90 -10,9 -15,32 -15,75 0,43 -5,66 -15,75 -9,8 -15,30 -15,60 0,30 -6,52 -15,60 -9,8 -15,30 -15,60 0,30 -6,52 -15,60 -10,9 -15,32 -15,75 0,43 -5,66 -15,75 -11,9 -15,35 -15,105 0,70 -4,96 -15,105 -9,8 -15,30 -15,60 0,30 -6,52 -15,60 -9,8 -15,30 -15,60 0,30 -6,52 -15,60 -8,7 -15,20 -15,29 0,21 -41,61 -62,61 -9,0 -21,7 -28,15 -8,9 -30,15 -60,15 -30,0 -52,-6 -60,-15 -9,-11 -35,-15 -105,-15 -70,0 -96,-4 -105,-15 -8,-9 -30,-15 -60,-15 -30,0 -52,-6 -60,-15 -9,-11 -34,-15 -96,-15 -48,0 -84,4 -84,10 0,5 20,28 45,51 25,23 45,49 45,58 0,10 14,30 30,46 17,16 30,36 30,46 0,9 7,22 15,29 8,7 15,20 15,29 0,10 14,30 30,46 17,16 30,36 30,46 0,9 7,22 15,29 8,7 15,20 15,29 0,10 14,30 30,46 17,16 30,36 30,46 0,9 7,22 15,29 8,7 15,20 15,30 0,10 7,23 15,30 8,7 15,20 15,30 0,10 7,23 15,30 8,7 15,20 15,30 0,10 7,23 15,30 8,7 15,20 15,30 0,10 7,23 15,30 8,7 15,20 15,30 0,10 7,23 15,30 8,7 15,20 15,30 0,10 7,23 15,30 8,7 15,20 15,30 0,10 7,23 15,30 8,7 15,20 15,30 0,10 7,23 15,30 8,7 15,27 15,45 0,18 7,38 15,45 8,7 15,20 15,30 0,10 7,23 15,30 8,7 15,20 15,30 0,10 7,23 15,30 8,7 15,27 15,45 0,18 7,38 15,45 8,7 15,27 15,45 0,18 7,38 15,45 8,7 15,20 15,30 0,10 7,23 15,30 8,7 15,27 15,45 0,18 7,38 15,45 8,7 15,27 15,45 0,18 7,38 15,45 9,8 15,30 15,60 0,30 6,52 15,60 8,7 15,27 15,45 0,18 7,38 15,45 9,8 15,30 15,60 0,30 6,52 15,60 9,8 15,30 15,60 0,30 6,52 15,60 9,8 15,30 15,60 0,30 6,52 15,60 10,9 15,32 15,75 0,43 5,66 15,75 11,9 15,33 15,90 0,57 4,81 15,90 11,9 15,35 15,105 0,70 4,96 15,105 12,10 15,39 15,137 0,116 1,125 20,130 20,5 20,14 20,498 0,484 0,493 -20,498 -19,5 -20,14 -20,130 0,98 -3,127 -15,137 -11,9 -15,35 -15,105 0,70 -4,96 -15,105 -10,9 -15,32 -15,75 0,43 -5,66 -15,75 -10,9 -15,32 -15,75 0,43 -5,66 -15,75 -10,9 -15,32 -15,75 0,43 -5,66 -15,75 -9,8 -15,30 -15,60 0,30 -6,52 -15,60 -9,8 -15,30 -15,60 0,30 -6,52 -15,60 -8,7 -15,27 -15,45 0,18 -7,38 -15,45 -8,7 -15,27 -15,45 0,18 -7,38 -15,45 -8,7 -15,27 -15,45 0,18 -7,38 -15,45 -8,7 -15,27 -15,45 0,18 -7,38 -15,45 -8,7 -15,27 -15,45 0,18 -7,38 -15,45 -8,7 -15,27 -15,45 0,18 -7,38 -15,45 -8,7 -15,20 -15,30 0,10 -7,23 -15,30 -8,7 -15,27 -15,45 0,18 -7,38 -15,45 -8,7 -15,20 -15,30 0,10 -7,23 -15,30 -8,7 -15,27 -15,45 0,18 -7,38 -15,45 -8,7 -15,20 -15,30 0,10 -7,23 -15,30 -8,7 -15,20 -15,30 0,10 -7,23 -15,30 -8,7 -15,20 -15,30 0,10 -7,23 -15,30 -8,7 -15,20 -15,30 0,10 -7,23 -15,30 -8,7 -15,20 -15,30 0,10 -7,23 -15,30 -8,7 -15,20 -15,30 0,10 -7,23 -15,30 -8,7 -15,20 -15,29 0,10 -13,30 -30,46 -16,16 -30,36 -30,46 0,9 -7,22 -15,29 -8,7 -15,20 -15,30 0,10 -7,23 -15,30 -8,7 -15,20 -15,29 0,10 -13,30 -30,46 -16,16 -30,36 -30,46 0,9 -7,22 -15,29 -8,7 -15,20 -15,29 0,10 -13,30 -30,46 -16,16 -30,36 -30,45 0,9 -13,29 -30,45 -16,16 -30,36 -30,45 0,9 -20,36 -45,60 -25,24 -45,51 -45,60 0,9 -13,29 -30,45 -16,16 -30,36 -30,45 0,9 -20,36 -45,60 -25,24 -45,51 -45,60 0,9 -27,42 -60,75 -33,33 -60,66 -60,75 0,8 -54,69 -120,135 -66,66 -120,127 -120,135 0,20 -280,300 -300,300 -9,0 -69,54 -135,120 -66,66 -127,120 -135,120 -9,0 -42,27 -75,60 -33,33 -66,60 -75,60 -9,0 -36,20 -60,45 -24,25 -51,45 -60,45 -9,0 -29,14 -45,30 -16,17 -36,30 -45,30 -9,0 -36,20 -60,45 -24,25 -51,45 -60,45 -9,0 -29,14 -45,30 -16,17 -36,30 -45,30 -9,0 -29,14 -45,30 -16,17 -36,30 -46,30 -9,0 -22,7 -29,15 -7,8 -20,15 -29,15 -10,0 -30,14 -46,30 -16,17 -36,30 -46,30 -9,0 -22,7 -29,15 -7,8 -20,15 -30,15 -10,0 -23,7 -30,15 -7,8 -20,15 -29,15 -10,0 -30,14 -46,30 -16,17 -36,30 -46,30 -9,0 -22,7 -29,15 -7,8 -20,15 -30,15 -10,0 -23,7 -30,15 -7,8 -20,15 -30,15 -10,0 -23,7 -30,15 -7,8 -20,15 -30,15 -10,0 -23,7 -30,15 -7,8 -20,15 -30,15 -10,0 -23,7 -30,15 -7,8 -27,15 -45,15 -18,0 -38,7 -45,15 -7,8 -20,15 -30,15 -10,0 -23,7 -30,15 -7,8 -20,15 -30,15 -10,0 -23,7 -30,15 -7,8 -27,15 -45,15 -18,0 -38,7 -45,15 -7,8 -20,15 -30,15 -10,0 -23,7 -30,15 -7,8 -27,15 -45,15 -18,0 -38,7 -45,15 -7,8 -27,15 -45,15 -18,0 -38,7 -45,15 -7,8 -20,15 -30,15 -10,0 -23,7 -30,15 -7,8 -27,15 -45,15 -18,0 -38,7 -45,15 -7,8 -27,15 -45,15 -18,0 -38,7 -45,15 -8,9 -30,15 -60,15 -30,0 -52,6 -60,15 -7,8 -27,15 -45,15 -18,0 -38,7 -45,15 -8,9 -30,15 -60,15 -30,0 -52,6 -60,15 -8,9 -30,15 -60,15 -30,0 -52,6 -60,15 -9,10 -32,15 -75,15 -43,0 -66,5 -75,15 -9,10 -32,15 -75,15 -43,0 -66,5 -75,15 -9,11 -33,15 -90,15 -57,0 -81,4 -90,15 -9,11 -35,15 -105,15 -70,0 -96,4 -105,15 -10,12 -44,15 -182,15 -161,0 -170,1 -175,20 -5,20 -14,20 -348,20 -334,0 -343,0 -348,-20 z m 843,-155 c 10,-12 40,-15 150,-15 110,0 140,-3 150,-15 9,-11 35,-15 105,-15 70,0 96,-4 105,-15 9,-10 32,-15 75,-15 43,0 66,-5 75,-15 9,-10 32,-15 75,-15 43,0 66,-5 75,-15 8,-9 30,-15 60,-15 30,0 52,-6 60,-15 8,-9 30,-15 60,-15 30,0 52,-6 60,-15 8,-9 30,-15 60,-15 30,0 52,-6 60,-15 7,-8 27,-15 45,-15 18,0 38,-7 45,-15 7,-8 27,-15 45,-15 18,0 38,-7 45,-15 8,-9 30,-15 60,-15 30,0 52,-6 60,-15 7,-8 20,-15 30,-15 10,0 23,-7 30,-15 7,-8 27,-15 45,-15 18,0 38,-7 45,-15 7,-8 27,-15 45,-15 18,0 38,-7 45,-15 7,-8 20,-15 30,-15 10,0 23,-7 30,-15 7,-8 20,-15 30,-15 10,0 23,-7 30,-15 7,-8 27,-15 45,-15 18,0 38,-7 45,-15 7,-8 20,-15 30,-15 10,0 23,-7 30,-15 7,-8 20,-15 30,-15 10,0 23,-7 30,-15 7,-8 20,-15 30,-15 10,0 23,-7 30,-15 7,-8 20,-15 30,-15 10,0 23,-7 30,-15 7,-8 20,-15 30,-15 10,0 23,-7 30,-15 7,-8 20,-15 30,-15 10,0 23,-7 30,-15 7,-8 20,-15 30,-15 10,0 23,-7 30,-15 7,-8 20,-15 30,-15 10,0 23,-7 30,-15 7,-8 20,-15 29,-15 10,0 30,-13 46,-30 16,-16 36,-30 46,-30 9,0 22,-7 29,-15 7,-8 20,-15 29,-15 10,0 30,-13 46,-30 16,-16 36,-30 46,-30 9,0 22,-7 29,-15 7,-8 20,-15 29,-15 10,0 30,-13 46,-30 16,-16 36,-30 45,-30 9,0 29,-13 45,-30 16,-16 36,-30 45,-30 9,0 36,-20 60,-45 24,-25 51,-45 60,-45 9,0 36,-20 60,-45 24,-25 51,-45 60,-45 9,0 36,-20 60,-45 24,-25 51,-45 60,-45 8,0 56,-40 105,-90 49,-49 96,-90 105,-90 20,0 540,-520 540,-540 0,-9 34,-49 75,-90 41,-41 75,-82 75,-90 0,-9 27,-42 60,-75 33,-33 60,-66 60,-75 0,-9 20,-36 45,-60 25,-24 45,-51 45,-60 0,-9 14,-29 30,-45 17,-16 30,-36 30,-45 0,-9 14,-29 30,-45 17,-16 30,-36 30,-45 0,-9 14,-29 30,-45 17,-16 30,-36 30,-45 0,-9 14,-29 30,-45 17,-16 30,-36 30,-46 0,-9 7,-22 15,-29 8,-7 15,-20 15,-29 0,-10 14,-30 30,-46 17,-16 30,-36 30,-46 0,-9 7,-22 15,-29 8,-7 15,-20 15,-30 0,-10 7,-23 15,-30 8,-7 15,-20 15,-30 0,-10 7,-23 15,-30 8,-7 15,-20 15,-29 0,-10 14,-30 30,-46 17,-16 30,-36 30,-46 0,-9 7,-22 15,-29 8,-7 15,-20 15,-30 0,-10 7,-23 15,-30 8,-7 15,-27 15,-45 0,-18 7,-38 15,-45 8,-7 15,-20 15,-30 0,-10 7,-23 15,-30 8,-7 15,-20 15,-30 0,-10 7,-23 15,-30 8,-7 15,-20 15,-30 0,-10 7,-23 15,-30 8,-7 15,-27 15,-45 0,-18 7,-38 15,-45 8,-7 15,-20 15,-30 0,-10 7,-23 15,-30 8,-7 15,-27 15,-45 0,-18 7,-38 15,-45 8,-7 15,-20 15,-30 0,-10 7,-23 15,-30 8,-7 15,-27 15,-45 0,-18 7,-38 15,-45 8,-7 15,-27 15,-45 0,-18 7,-38 15,-45 8,-7 15,-27 15,-45 0,-18 7,-38 15,-45 9,-8 15,-30 15,-60 0,-30 6,-52 15,-60 8,-7 15,-27 15,-45 0,-18 7,-38 15,-45 9,-8 15,-30 15,-60 0,-30 6,-52 15,-60 9,-8 15,-30 15,-60 0,-30 6,-52 15,-60 10,-9 15,-32 15,-75 0,-43 5,-66 15,-75 10,-9 15,-32 15,-75 0,-43 5,-66 15,-75 11,-9 15,-33 15,-90 0,-57 4,-81 15,-90 12,-10 15,-38 15,-135 0,-97 3,-125 15,-135 23,-19 23,-1181 0,-1200 -12,-10 -15,-37 -15,-120 0,-83 -3,-110 -15,-120 -11,-9 -15,-33 -15,-90 0,-57 -4,-81 -15,-90 -11,-9 -15,-33 -15,-90 0,-57 -4,-81 -15,-90 -9,-8 -15,-30 -15,-60 0,-30 -6,-52 -15,-60 -9,-8 -15,-30 -15,-60 0,-30 -6,-52 -15,-60 -9,-8 -15,-30 -15,-60 0,-30 -6,-52 -15,-60 -9,-8 -15,-30 -15,-60 0,-30 -6,-52 -15,-60 -8,-7 -15,-27 -15,-45 0,-18 -7,-38 -15,-45 -8,-7 -15,-27 -15,-45 0,-18 -7,-38 -15,-45 -8,-7 -15,-27 -15,-45 0,-18 -7,-38 -15,-45 -8,-7 -15,-27 -15,-45 0,-18 -7,-38 -15,-45 -8,-7 -15,-27 -15,-45 0,-18 -7,-38 -15,-45 -8,-7 -15,-20 -15,-30 0,-10 -7,-23 -15,-30 -8,-7 -15,-27 -15,-45 0,-18 -7,-38 -15,-45 -8,-7 -15,-20 -15,-30 0,-10 -7,-23 -15,-30 -8,-7 -15,-20 -15,-30 0,-10 -7,-23 -15,-30 -8,-7 -15,-27 -15,-45 0,-18 -7,-38 -15,-45 -8,-7 -15,-20 -15,-30 0,-10 -7,-23 -15,-30 -8,-7 -15,-20 -15,-30 0,-10 -7,-23 -15,-30 -8,-7 -15,-20 -15,-30 0,-10 -7,-23 -15,-30 -8,-7 -15,-20 -15,-30 0,-10 -7,-23 -15,-30 -8,-7 -15,-20 -15,-30 0,-10 -7,-23 -15,-30 -8,-7 -15,-20 -15,-30 0,-10 -7,-23 -15,-30 -8,-7 -15,-20 -15,-29 0,-10 -13,-30 -30,-46 -16,-16 -30,-36 -30,-46 0,-9 -7,-22 -15,-29 -8,-7 -15,-20 -15,-29 0,-10 -13,-30 -30,-46 -16,-16 -30,-36 -30,-46 0,-9 -7,-22 -15,-29 -8,-7 -15,-20 -15,-29 0,-10 -13,-30 -30,-46 -16,-16 -30,-36 -30,-45 0,-9 -13,-29 -30,-45 -16,-16 -30,-36 -30,-45 0,-9 -13,-29 -30,-45 -16,-16 -30,-36 -30,-44 0,-21 -100,-121 -121,-121 -9,0 -22,-7 -29,-15 -9,-11 -35,-15 -105,-15 -70,0 -96,-4 -105,-15 -9,-10 -32,-15 -75,-15 -43,0 -66,-5 -75,-15 -9,-10 -32,-15 -75,-15 -43,0 -66,-5 -75,-15 -8,-9 -30,-15 -59,-15 -44,0 -50,4 -106,60 -33,33 -66,60 -75,60 -8,0 -69,54 -135,120 -66,66 -127,120 -135,120 -8,0 -62,47 -120,105 -57,57 -112,105 -121,107 -15,3 -179,153 -179,164 0,2 20,22 45,45 25,23 45,49 45,58 0,9 27,43 60,76 33,33 60,66 60,75 0,9 20,36 45,60 25,24 45,51 45,60 0,9 14,29 30,45 17,16 30,36 30,45 0,9 14,29 30,45 17,16 30,36 30,45 0,9 14,29 30,45 17,16 30,36 30,45 0,9 14,29 30,45 17,16 30,36 30,46 0,9 7,22 15,29 8,7 15,20 15,30 0,10 7,23 15,30 8,7 15,20 15,30 0,10 7,23 15,30 8,7 15,20 15,30 0,10 7,23 15,30 8,7 15,20 15,30 0,10 7,23 15,30 8,7 15,20 15,30 0,10 7,23 15,30 8,7 15,20 15,30 0,10 7,23 15,30 8,7 15,20 15,30 0,10 7,23 15,30 8,7 15,27 15,45 0,18 7,38 15,45 8,7 15,20 15,30 0,10 7,23 15,30 8,7 15,27 15,45 0,18 7,38 15,45 8,7 15,27 15,45 0,18 7,38 15,45 8,7 15,27 15,45 0,18 7,38 15,45 8,7 15,27 15,45 0,18 7,38 15,45 9,8 15,30 15,60 0,30 6,52 15,60 8,7 15,27 15,45 0,18 7,38 15,45 10,9 15,32 15,75 0,43 5,66 15,75 10,9 15,32 15,75 0,43 5,66 15,75 11,9 15,35 15,105 0,70 4,96 15,105 12,10 15,43 15,180 0,137 3,170 15,180 12,10 15,42 15,165 0,123 -3,155 -15,165 -12,10 -15,45 -15,195 0,150 -3,185 -15,195 -11,9 -15,35 -15,105 0,70 -4,96 -15,105 -10,9 -15,32 -15,75 0,43 -5,66 -15,75 -10,9 -15,32 -15,75 0,43 -5,66 -15,75 -9,8 -15,30 -15,60 0,30 -6,52 -15,60 -8,7 -15,27 -15,45 0,18 -7,38 -15,45 -8,7 -15,27 -15,45 0,18 -7,38 -15,45 -8,7 -15,27 -15,45 0,18 -7,38 -15,45 -8,7 -15,27 -15,45 0,18 -7,38 -15,45 -8,7 -15,27 -15,45 0,18 -7,38 -15,45 -8,7 -15,20 -15,30 0,10 -7,23 -15,30 -8,7 -15,27 -15,45 0,18 -7,38 -15,45 -8,7 -15,20 -15,30 0,10 -7,23 -15,30 -8,7 -15,20 -15,30 0,10 -7,23 -15,30 -8,7 -15,20 -15,30 0,10 -7,23 -15,30 -8,7 -15,20 -15,30 0,10 -7,23 -15,30 -8,7 -15,20 -15,30 0,10 -7,23 -15,30 -8,7 -15,20 -15,30 0,10 -7,23 -15,30 -8,7 -15,20 -15,30 0,10 -7,23 -15,30 -8,7 -15,20 -15,29 0,10 -13,30 -30,46 -16,16 -30,36 -30,45 0,9 -13,29 -30,45 -16,16 -30,36 -30,45 0,9 -13,29 -30,45 -16,16 -30,36 -30,45 0,9 -13,29 -30,45 -16,16 -30,36 -30,45 0,9 -20,36 -45,60 -25,24 -45,51 -45,60 0,9 -20,36 -45,60 -25,24 -45,51 -45,60 0,8 -54,69 -120,135 -65,65 -120,128 -122,139 -2,12 -12,22 -24,24 -11,2 -87,70 -169,152 -83,83 -157,150 -165,150 -9,0 -36,20 -60,45 -24,25 -51,45 -60,45 -9,0 -36,20 -60,45 -24,25 -51,45 -60,45 -9,0 -36,20 -60,45 -24,25 -51,45 -60,45 -9,0 -29,14 -45,30 -16,17 -36,30 -46,30 -9,0 -22,7 -29,15 -7,8 -20,15 -29,15 -10,0 -30,14 -46,30 -16,17 -36,30 -46,30 -9,0 -22,7 -29,15 -7,8 -20,15 -30,15 -10,0 -23,7 -30,15 -7,8 -20,15 -30,15 -10,0 -23,7 -30,15 -7,8 -20,15 -30,15 -10,0 -23,7 -30,15 -7,8 -20,15 -30,15 -10,0 -23,7 -30,15 -7,8 -20,15 -30,15 -10,0 -23,7 -30,15 -7,8 -20,15 -30,15 -10,0 -23,7 -30,15 -7,8 -20,15 -30,15 -10,0 -23,7 -30,15 -7,8 -20,15 -30,15 -10,0 -23,7 -30,15 -7,8 -27,15 -45,15 -18,0 -38,7 -45,15 -7,8 -20,15 -30,15 -10,0 -23,7 -30,15 -7,8 -27,15 -45,15 -18,0 -38,7 -45,15 -7,8 -27,15 -45,15 -18,0 -38,7 -45,15 -7,8 -27,15 -45,15 -18,0 -38,7 -45,15 -8,9 -30,15 -60,15 -30,0 -52,6 -60,15 -8,9 -30,15 -60,15 -30,0 -52,6 -60,15 -8,9 -30,15 -60,15 -30,0 -52,6 -60,15 -9,10 -32,15 -75,15 -43,0 -66,5 -75,15 -9,10 -32,15 -75,15 -43,0 -66,5 -75,15 -10,12 -40,15 -150,15 -110,0 -140,3 -150,15 -11,13 -62,15 -345,15 -283,0 -334,-2 -345,-15 -10,-12 -38,-15 -135,-15 -97,0 -125,-3 -135,-15 -9,-11 -33,-15 -90,-15 -57,0 -81,-4 -90,-15 -8,-9 -30,-15 -60,-15 -30,0 -52,-6 -60,-15 -9,-10 -32,-15 -75,-15 -43,0 -66,-5 -75,-15 -7,-8 -27,-15 -45,-15 -18,0 -38,-7 -45,-15 -8,-9 -30,-15 -60,-15 -30,0 -52,-6 -60,-15 -7,-8 -27,-15 -45,-15 -18,0 -38,-7 -45,-15 -7,-8 -27,-15 -45,-15 -18,0 -38,-7 -45,-15 -7,-8 -27,-15 -45,-15 -18,0 -38,-7 -45,-15 -7,-8 -27,-15 -45,-15 -18,0 -38,-7 -45,-15 -7,-8 -20,-15 -30,-15 -10,0 -23,-7 -30,-15 -7,-8 -20,-15 -30,-15 -10,0 -23,-7 -30,-15 -7,-8 -20,-15 -30,-15 -10,0 -23,-7 -30,-15 -7,-8 -27,-15 -45,-15 -18,0 -38,-7 -45,-15 -7,-8 -20,-15 -30,-15 -10,0 -23,-7 -30,-15 -7,-8 -20,-15 -30,-15 -10,0 -23,-7 -30,-15 -7,-8 -20,-15 -29,-15 -10,0 -30,-13 -46,-30 -16,-16 -36,-30 -46,-30 -9,0 -22,-7 -29,-15 -7,-8 -20,-15 -30,-15 -10,0 -23,-7 -30,-15 -7,-8 -20,-15 -29,-15 -10,0 -30,-13 -46,-30 -16,-16 -36,-30 -45,-30 -9,0 -29,-13 -45,-30 -16,-16 -36,-30 -45,-30 -9,0 -29,-13 -45,-30 -16,-16 -36,-30 -45,-30 -9,0 -36,-20 -60,-45 -24,-25 -51,-45 -60,-45 -9,0 -36,-20 -60,-45 -24,-25 -51,-45 -60,-45 -8,0 -76,-61 -150,-135 -74,-74 -141,-135 -150,-135 -19,0 -120,-100 -120,-120 0,-8 -47,-62 -105,-120 -58,-58 -105,-112 -105,-120 0,-9 -27,-42 -60,-75 -33,-33 -60,-66 -60,-75 0,-9 -20,-36 -45,-60 -25,-24 -45,-51 -45,-60 0,-9 -14,-29 -30,-45 -16,-16 -30,-36 -30,-45 0,-9 -13,-29 -30,-45 -17,-16 -30,-36 -30,-46 0,-9 -7,-22 -15,-29 -8,-7 -15,-20 -15,-29 0,-10 -14,-30 -30,-46 -16,-16 -30,-36 -30,-46 0,-9 -7,-22 -15,-29 -8,-7 -15,-20 -15,-30 0,-10 -7,-23 -15,-30 -8,-7 -15,-20 -15,-30 0,-10 -7,-23 -15,-30 -8,-7 -15,-20 -15,-29 0,-10 -13,-30 -30,-46 -16,-16 -30,-36 -30,-46 0,-9 -7,-22 -15,-29 -8,-7 -15,-27 -15,-45 0,-18 -7,-38 -15,-45 -8,-7 -15,-20 -15,-30 0,-10 -7,-23 -15,-30 -8,-7 -15,-20 -15,-30 0,-10 -7,-23 -15,-30 -8,-7 -15,-27 -15,-45 0,-18 -7,-38 -15,-45 -8,-7 -15,-20 -15,-30 0,-10 -7,-23 -15,-30 -8,-7 -15,-27 -15,-45 0,-18 -7,-38 -15,-45 -8,-7 -15,-27 -15,-45 0,-18 -7,-38 -15,-45 -8,-7 -15,-27 -15,-45 0,-18 -7,-38 -15,-45 -9,-8 -15,-30 -15,-60 0,-30 -6,-52 -15,-60 -9,-8 -15,-30 -15,-60 0,-30 -6,-52 -15,-60 -9,-8 -15,-30 -15,-60 0,-30 -6,-52 -15,-60 -10,-9 -15,-32 -15,-75 0,-43 -5,-66 -15,-75 -11,-9 -15,-35 -15,-105 0,-70 -4,-96 -15,-105 -12,-10 -15,-40 -15,-150 0,-110 -3,-140 -15,-150 -22,-19 -22,-491 0,-510 12,-10 15,-40 15,-150 0,-110 3,-140 15,-150 11,-9 15,-35 15,-105 0,-70 4,-96 15,-105 10,-9 15,-32 15,-75 0,-43 5,-66 15,-75 10,-9 15,-32 15,-75 0,-43 5,-66 15,-75 9,-8 15,-30 15,-60 0,-30 6,-52 15,-60 9,-8 15,-30 15,-60 0,-30 6,-52 15,-60 8,-7 15,-27 15,-45 0,-18 7,-38 15,-45 8,-7 15,-27 15,-45 0,-18 7,-38 15,-45 8,-7 15,-27 15,-45 0,-18 7,-38 15,-45 8,-7 15,-20 15,-30 0,-10 7,-23 15,-30 8,-7 15,-20 15,-30 0,-10 7,-23 15,-30 8,-7 15,-27 15,-45 0,-18 7,-38 15,-45 8,-7 15,-20 15,-30 0,-10 7,-23 15,-30 8,-7 15,-20 15,-30 0,-10 7,-23 15,-30 8,-7 15,-20 15,-30 0,-10 7,-23 15,-30 8,-7 15,-20 15,-30 0,-10 7,-23 15,-30 8,-7 15,-20 15,-30 0,-10 7,-23 15,-30 8,-7 15,-20 15,-30 0,-10 7,-23 15,-30 8,-7 15,-20 15,-30 0,-10 7,-23 15,-30 8,-7 15,-20 15,-29 0,-10 13,-30 30,-46 16,-16 30,-36 30,-46 0,-9 7,-22 15,-29 8,-7 15,-20 15,-29 0,-10 13,-30 30,-46 16,-16 30,-36 30,-45 0,-9 20,-36 45,-60 25,-24 45,-51 45,-60 0,-9 20,-36 45,-60 25,-24 45,-51 45,-60 0,-9 20,-36 45,-60 25,-24 45,-51 45,-60 0,-9 27,-42 60,-75 33,-33 60,-66 60,-74 0,-20 -100,-121 -120,-121 -9,0 -36,-20 -60,-45 -24,-25 -51,-45 -60,-45 -9,0 -36,-20 -60,-45 -24,-25 -51,-45 -60,-45 -9,0 -42,-27 -75,-60 -33,-33 -66,-60 -75,-60 -9,0 -36,-20 -60,-45 -24,-25 -51,-45 -60,-45 -9,0 -36,-20 -60,-45 -24,-25 -51,-45 -60,-45 -9,0 -36,-20 -60,-45 -24,-25 -51,-45 -60,-45 -9,0 -36,-20 -60,-45 -40,-41 -49,-45 -91,-45 -29,0 -51,6 -59,15 -9,11 -33,15 -90,15 -57,0 -81,4 -90,15 -8,9 -30,15 -60,15 -30,0 -52,6 -60,15 -7,8 -26,15 -43,15 -34,0 -77,34 -77,60 0,9 -13,29 -30,45 -16,16 -30,36 -30,45 0,9 -20,36 -45,60 -25,24 -45,51 -45,60 0,9 -13,29 -30,45 -16,16 -30,36 -30,45 0,9 -13,29 -30,45 -17,16 -30,36 -30,46 0,9 -7,22 -15,29 -8,7 -15,20 -15,29 0,10 -13,30 -30,46 -17,16 -30,36 -30,46 0,9 -7,22 -15,29 -8,7 -15,20 -15,29 0,10 -14,30 -30,46 -17,16 -30,36 -30,46 0,9 -7,22 -15,29 -8,7 -15,20 -15,30 0,10 -7,23 -15,30 -8,7 -15,20 -15,30 0,10 -7,23 -15,30 -8,7 -15,20 -15,30 0,10 -7,23 -15,30 -8,7 -15,20 -15,30 0,10 -7,23 -15,30 -8,7 -15,20 -15,30 0,10 -7,23 -15,30 -8,7 -15,20 -15,30 0,10 -7,23 -15,30 -8,7 -15,20 -15,30 0,10 -7,23 -15,30 -8,7 -15,20 -15,30 0,10 -7,23 -15,30 -8,7 -15,27 -15,45 0,18 -7,38 -15,45 -8,7 -15,20 -15,30 0,10 -7,23 -15,30 -8,7 -15,27 -15,45 0,18 -7,38 -15,45 -8,7 -15,20 -15,30 0,10 -7,23 -15,30 -8,7 -15,27 -15,45 0,18 -7,38 -15,45 -8,7 -15,27 -15,45 0,18 -7,38 -15,45 -8,7 -15,27 -15,45 0,18 -7,38 -15,45 -8,7 -15,27 -15,45 0,18 -7,38 -15,45 -9,8 -15,30 -15,60 0,30 -6,52 -15,60 -8,7 -15,27 -15,45 0,18 -7,38 -15,45 -9,8 -15,30 -15,60 0,30 -6,52 -15,60 -10,9 -15,32 -15,75 0,43 -5,66 -15,75 -10,9 -15,32 -15,75 0,43 -5,66 -15,75 -10,9 -15,32 -15,75 0,43 -5,66 -15,75 -11,9 -15,35 -15,105 0,70 -4,96 -15,105 -12,10 -15,42 -15,165 0,123 -3,155 -15,165 -13,11 -15,72 -15,435 0,363 2,424 15,435 12,10 15,42 15,165 0,123 3,155 15,165 11,9 15,33 15,90 0,57 4,81 15,90 11,9 15,33 15,90 0,57 4,81 15,90 10,9 15,32 15,75 0,43 5,66 15,75 9,8 15,30 15,60 0,30 6,52 15,60 9,8 15,30 15,60 0,30 6,52 15,60 9,8 15,30 15,60 0,30 6,52 15,60 8,7 15,27 15,45 0,18 7,38 15,45 9,8 15,30 15,60 0,30 6,52 15,60 8,7 15,27 15,45 0,18 7,38 15,45 8,7 15,20 15,30 0,10 7,23 15,30 8,7 15,27 15,45 0,18 7,38 15,45 8,7 15,27 15,45 0,18 7,38 15,45 8,7 15,20 15,30 0,10 7,23 15,30 8,7 15,27 15,45 0,18 7,38 15,45 8,7 15,20 15,30 0,10 7,23 15,30 8,7 15,20 15,30 0,10 7,23 15,30 8,7 15,27 15,45 0,18 7,38 15,45 8,7 15,20 15,30 0,10 7,23 15,30 8,7 15,20 15,30 0,10 7,23 15,30 8,7 15,20 15,30 0,10 7,23 15,30 8,7 15,20 15,30 0,10 7,23 15,30 8,7 15,20 15,29 0,10 14,30 30,46 17,16 30,36 30,46 0,9 7,22 15,29 8,7 15,20 15,30 0,10 7,23 15,30 8,7 15,20 15,29 0,10 14,30 30,46 16,16 30,36 30,46 0,9 7,22 15,29 8,7 15,20 15,29 0,10 14,30 30,46 17,16 30,36 30,45 0,9 14,29 30,45 16,16 30,36 30,45 0,9 13,29 30,45 16,16 30,36 30,45 0,9 20,36 45,60 25,24 45,51 45,60 0,9 20,36 45,60 25,24 45,51 45,60 0,9 27,42 60,75 33,33 60,66 60,75 0,8 47,62 105,120 58,58 105,111 105,120 0,20 280,300 300,300 8,0 69,54 135,120 66,66 127,120 135,120 9,0 42,27 75,60 33,33 66,60 75,60 9,0 36,20 60,45 24,25 51,45 60,45 9,0 36,20 60,45 24,25 51,45 60,45 9,0 29,14 45,30 16,17 36,30 45,30 9,0 29,14 45,30 16,17 36,30 45,30 9,0 29,14 45,30 16,17 36,30 46,30 9,0 22,7 29,15 7,8 20,15 29,15 10,0 30,14 46,30 16,17 36,30 46,30 9,0 22,7 29,15 7,8 20,15 29,15 10,0 30,14 46,30 16,17 36,30 46,30 9,0 22,7 29,15 7,8 20,15 30,15 10,0 23,7 30,15 7,8 20,15 30,15 10,0 23,7 30,15 7,8 20,15 30,15 10,0 23,7 30,15 7,8 20,15 30,15 10,0 23,7 30,15 7,8 20,15 30,15 10,0 23,7 30,15 7,8 20,15 30,15 10,0 23,7 30,15 7,8 27,15 45,15 18,0 38,7 45,15 7,8 20,15 30,15 10,0 23,7 30,15 7,8 20,15 30,15 10,0 23,7 30,15 7,8 27,15 45,15 18,0 38,7 45,15 7,8 20,15 30,15 10,0 23,7 30,15 7,8 27,15 45,15 18,0 38,7 45,15 7,8 27,15 45,15 18,0 38,7 45,15 7,8 27,15 45,15 18,0 38,7 45,15 7,8 27,15 45,15 18,0 38,7 45,15 8,9 30,15 60,15 30,0 52,6 60,15 7,8 27,15 45,15 18,0 38,7 45,15 8,9 30,15 60,15 30,0 52,6 60,15 8,9 30,15 60,15 30,0 52,6 60,15 9,10 32,15 75,15 43,0 66,5 75,15 9,11 33,15 90,15 57,0 81,4 90,15 9,11 35,15 105,15 70,0 96,4 105,15 10,12 38,15 135,15 97,0 125,3 135,15 11,13 78,15 495,15 417,0 484,-2 495,-15 z m -30,-1710 c 9,-11 35,-15 105,-15 70,0 96,-4 105,-15 9,-11 33,-15 90,-15 57,0 81,-4 90,-15 8,-9 30,-15 60,-15 30,0 52,-6 60,-15 9,-10 32,-15 75,-15 43,0 66,-5 75,-15 7,-8 27,-15 45,-15 18,0 38,-7 45,-15 8,-9 30,-15 60,-15 30,0 52,-6 60,-15 7,-8 27,-15 45,-15 18,0 38,-7 45,-15 7,-8 20,-15 30,-15 10,0 23,-7 30,-15 7,-8 27,-15 45,-15 18,0 38,-7 45,-15 7,-8 27,-15 45,-15 18,0 38,-7 45,-15 7,-8 20,-15 30,-15 10,0 23,-7 30,-15 7,-8 20,-15 30,-15 10,0 23,-7 30,-15 7,-8 20,-15 30,-15 10,0 23,-7 30,-15 7,-8 20,-15 30,-15 10,0 23,-7 30,-15 7,-8 20,-15 30,-15 10,0 23,-7 30,-15 7,-8 20,-15 30,-15 10,0 23,-7 30,-15 7,-8 20,-15 30,-15 10,0 23,-7 30,-15 7,-8 20,-15 30,-15 10,0 23,-7 30,-15 7,-8 20,-15 29,-15 10,0 30,-13 46,-30 16,-16 36,-30 45,-30 9,0 29,-13 45,-30 16,-16 36,-30 45,-30 9,0 29,-13 45,-30 16,-16 36,-30 45,-30 9,0 29,-13 45,-30 16,-16 36,-30 45,-30 9,0 36,-20 60,-45 24,-25 51,-45 60,-45 8,0 49,-34 90,-75 41,-41 81,-75 90,-75 20,0 420,-400 420,-420 0,-9 34,-49 75,-90 41,-41 75,-82 75,-90 0,-9 20,-36 45,-60 25,-24 45,-51 45,-60 0,-9 14,-29 30,-45 17,-16 30,-36 30,-45 0,-9 14,-29 30,-45 17,-16 30,-36 30,-45 0,-9 14,-29 30,-45 17,-16 30,-36 30,-46 0,-9 7,-22 15,-29 8,-7 15,-20 15,-29 0,-10 14,-30 30,-46 17,-16 30,-36 30,-46 0,-9 7,-22 15,-29 8,-7 15,-20 15,-30 0,-10 7,-23 15,-30 8,-7 15,-20 15,-30 0,-10 7,-23 15,-30 8,-7 15,-20 15,-30 0,-10 7,-23 15,-30 8,-7 15,-20 15,-30 0,-10 7,-23 15,-30 8,-7 15,-20 15,-30 0,-10 7,-23 15,-30 8,-7 15,-20 15,-30 0,-10 7,-23 15,-30 8,-7 15,-27 15,-45 0,-18 7,-38 15,-45 8,-7 15,-20 15,-30 0,-10 7,-23 15,-30 8,-7 15,-27 15,-45 0,-18 7,-38 15,-45 8,-7 15,-27 15,-45 0,-18 7,-38 15,-45 8,-7 15,-27 15,-45 0,-18 7,-38 15,-45 8,-7 15,-27 15,-45 0,-18 7,-38 15,-45 9,-8 15,-30 15,-60 0,-30 6,-52 15,-60 9,-8 15,-30 15,-60 0,-30 6,-52 15,-60 10,-9 15,-32 15,-75 0,-43 5,-66 15,-75 10,-9 15,-32 15,-75 0,-43 5,-66 15,-75 12,-10 15,-38 15,-135 0,-97 3,-125 15,-135 13,-11 15,-67 15,-390 0,-323 -2,-379 -15,-390 -12,-10 -15,-38 -15,-135 0,-97 -3,-125 -15,-135 -10,-9 -15,-32 -15,-75 0,-43 -5,-66 -15,-75 -10,-9 -15,-32 -15,-75 0,-43 -5,-66 -15,-75 -9,-8 -15,-30 -15,-60 0,-30 -6,-52 -15,-60 -9,-8 -15,-30 -15,-60 0,-30 -6,-52 -15,-60 -8,-7 -15,-27 -15,-45 0,-18 -7,-38 -15,-45 -8,-7 -15,-27 -15,-45 0,-18 -7,-38 -15,-45 -8,-7 -15,-27 -15,-45 0,-18 -7,-38 -15,-45 -8,-7 -15,-20 -15,-30 0,-10 -7,-23 -15,-30 -8,-7 -15,-27 -15,-45 0,-18 -7,-38 -15,-45 -8,-7 -15,-20 -15,-30 0,-10 -7,-23 -15,-30 -8,-7 -15,-27 -15,-45 0,-18 -7,-38 -15,-45 -8,-7 -15,-20 -15,-30 0,-10 -7,-23 -15,-30 -8,-7 -15,-20 -15,-30 0,-10 -7,-23 -15,-30 -8,-7 -15,-20 -15,-30 0,-10 -7,-23 -15,-30 -8,-7 -15,-20 -15,-30 0,-10 -7,-23 -15,-30 -8,-7 -15,-20 -15,-29 0,-10 -13,-30 -30,-46 -16,-16 -30,-36 -30,-46 0,-9 -7,-22 -15,-29 -8,-7 -15,-20 -15,-30 0,-10 -7,-23 -15,-30 -8,-7 -15,-20 -15,-29 0,-10 -13,-30 -30,-46 -16,-16 -30,-36 -30,-45 0,-9 -13,-29 -30,-45 -16,-16 -30,-36 -30,-45 0,-9 -20,-36 -45,-60 -25,-24 -45,-51 -45,-60 0,-9 -20,-36 -45,-60 -25,-24 -45,-51 -45,-60 0,-8 -40,-56 -90,-105 -49,-49 -90,-97 -90,-106 0,-9 -20,-35 -45,-58 -50,-46 -56,-61 -22,-61 15,0 52,-29 112,-90 49,-49 97,-90 105,-90 8,0 62,-47 120,-105 58,-58 112,-105 120,-105 8,0 62,-47 120,-105 58,-58 111,-105 120,-105 16,0 120,-96 120,-111 0,-5 -44,-9 -99,-9 -75,0 -101,-4 -111,-15 -9,-11 -35,-15 -105,-15 -70,0 -96,-4 -105,-15 -9,-11 -33,-15 -90,-15 -57,0 -81,-4 -90,-15 -10,-12 -43,-15 -180,-15 -137,0 -170,-3 -180,-15 -9,-11 -33,-15 -90,-15 -57,0 -81,-4 -90,-15 -10,-12 -42,-15 -165,-15 -123,0 -155,-3 -165,-15 -10,-12 -45,-15 -195,-15 -150,0 -185,-3 -195,-15 -10,-12 -48,-15 -225,-15 -177,0 -215,-3 -225,-15 -10,-13 -50,-15 -240,-15 -190,0 -230,-2 -240,-15 -18,-22 -342,-22 -360,0 -7,8 -27,15 -45,15 -18,0 -38,-7 -45,-15 -10,-12 -48,-15 -225,-15 -177,0 -215,-3 -225,-15 -19,-23 -911,-23 -930,0 -11,13 -75,15 -465,15 -390,0 -454,2 -465,15 -11,13 -62,15 -345,15 -283,0 -334,2 -345,15 -10,13 -52,15 -255,15 -203,0 -245,2 -255,15 -10,12 -38,15 -135,15 -97,0 -125,3 -135,15 -10,12 -40,15 -150,15 -110,0 -140,3 -150,15 -10,12 -40,15 -150,15 -110,0 -140,3 -150,15 -10,12 -37,15 -120,15 -83,0 -110,3 -120,15 -9,11 -32,15 -81,15 -39,0 -69,4 -69,10 0,15 73,79 90,80 9,0 36,20 60,45 24,25 51,45 60,45 9,0 36,20 60,45 24,25 51,45 60,45 9,0 36,20 60,45 24,25 51,45 60,45 9,0 36,20 60,45 24,25 51,45 60,45 9,0 36,20 60,45 24,25 51,45 60,45 9,0 36,20 60,45 24,25 51,45 60,45 9,0 29,14 45,30 16,17 36,30 46,30 9,0 22,6 29,14 6,8 28,16 48,18 64,5 54,32 -48,133 -49,49 -90,97 -90,105 0,9 -34,49 -75,90 -41,41 -75,82 -75,90 0,9 -20,36 -45,60 -25,24 -45,51 -45,60 0,9 -14,29 -30,45 -17,16 -30,36 -30,45 0,9 -14,29 -30,45 -17,16 -30,36 -30,45 0,9 -14,29 -30,45 -17,16 -30,36 -30,45 0,9 -13,29 -30,45 -17,16 -30,36 -30,46 0,9 -7,22 -15,29 -8,7 -15,20 -15,30 0,10 -7,23 -15,30 -8,7 -15,20 -15,30 0,10 -7,23 -15,30 -8,7 -15,20 -15,30 0,10 -7,23 -15,30 -8,7 -15,20 -15,30 0,10 -7,23 -15,30 -8,7 -15,20 -15,30 0,10 -7,23 -15,30 -8,7 -15,20 -15,30 0,10 -7,23 -15,30 -8,7 -15,20 -15,30 0,10 -7,23 -15,30 -8,7 -15,27 -15,45 0,18 -7,38 -15,45 -8,7 -15,20 -15,30 0,10 -7,23 -15,30 -8,7 -15,27 -15,45 0,18 -7,38 -15,45 -8,7 -15,27 -15,45 0,18 -7,38 -15,45 -8,7 -15,27 -15,45 0,18 -7,38 -15,45 -8,7 -15,27 -15,45 0,18 -7,38 -15,45 -9,8 -15,30 -15,60 0,30 -6,52 -15,60 -8,7 -15,27 -15,45 0,18 -7,38 -15,45 -10,9 -15,32 -15,75 0,43 -5,66 -15,75 -10,9 -15,32 -15,75 0,43 -5,66 -15,75 -12,10 -15,37 -15,120 0,83 -3,110 -15,120 -23,19 -23,851 0,870 12,10 15,38 15,135 0,97 3,125 15,135 10,9 15,32 15,75 0,43 5,66 15,75 10,9 15,32 15,75 0,43 5,66 15,75 8,7 15,27 15,45 0,18 7,38 15,45 9,8 15,30 15,60 0,30 6,52 15,60 8,7 15,27 15,45 0,18 7,38 15,45 9,8 15,30 15,60 0,30 6,52 15,60 8,7 15,20 15,30 0,10 7,23 15,30 8,7 15,27 15,45 0,18 7,38 15,45 8,7 15,27 15,45 0,18 7,38 15,45 8,7 15,20 15,30 0,10 7,23 15,30 8,7 15,20 15,30 0,10 7,23 15,30 8,7 15,20 15,30 0,10 7,23 15,30 8,7 15,20 15,30 0,10 7,23 15,30 8,7 15,20 15,30 0,10 7,23 15,30 8,7 15,20 15,30 0,10 7,23 15,30 8,7 15,20 15,30 0,10 7,23 15,30 8,7 15,20 15,30 0,10 7,23 15,30 8,7 15,20 15,29 0,10 14,30 30,46 17,16 30,36 30,46 0,9 7,22 15,29 8,7 15,20 15,29 0,10 14,30 30,46 17,16 30,36 30,45 0,9 14,29 30,45 17,16 30,36 30,45 0,8 27,42 60,75 33,33 60,66 60,75 0,9 27,42 60,75 33,33 60,66 60,75 0,20 460,480 480,480 9,0 42,27 75,60 33,33 66,60 75,60 9,0 36,20 60,45 24,25 51,45 60,45 9,0 36,20 60,45 24,25 52,45 61,45 9,0 22,7 29,15 7,8 20,15 29,15 10,0 30,14 46,30 16,17 36,30 45,30 9,0 29,14 45,30 16,17 36,30 46,30 9,0 22,7 29,15 7,8 20,15 30,15 10,0 23,7 30,15 7,8 20,15 30,15 10,0 23,7 30,15 7,8 20,15 30,15 10,0 23,7 30,15 7,8 20,15 30,15 10,0 23,7 30,15 7,8 20,15 30,15 10,0 23,7 30,15 7,8 20,15 30,15 10,0 23,7 30,15 7,8 20,15 30,15 10,0 23,7 30,15 7,8 20,15 30,15 10,0 23,7 30,15 7,8 27,15 45,15 18,0 38,7 45,15 7,8 20,15 30,15 10,0 23,7 30,15 7,8 27,15 45,15 18,0 38,7 45,15 7,8 27,15 45,15 18,0 38,7 45,15 8,9 30,15 60,15 30,0 52,6 60,15 7,8 27,15 45,15 18,0 38,7 45,15 8,9 30,15 60,15 30,0 52,6 60,15 9,10 32,15 75,15 43,0 66,5 75,15 9,11 33,15 90,15 57,0 81,4 90,15 9,11 35,15 105,15 70,0 96,4 105,15 11,13 73,15 450,15 377,0 439,-2 450,-15 z m 5158,-7872 c 2,-12 10,-27 18,-33 9,-9 14,-33 14,-75 0,-43 5,-66 15,-75 10,-9 15,-32 15,-75 0,-43 5,-66 15,-75 10,-9 15,-32 15,-75 0,-43 5,-66 15,-75 10,-9 15,-32 15,-75 0,-43 5,-66 15,-75 10,-9 15,-32 15,-75 0,-43 5,-66 15,-75 10,-9 15,-32 15,-75 0,-43 5,-66 15,-75 10,-9 15,-32 15,-75 0,-43 5,-66 15,-75 9,-8 15,-30 15,-60 0,-30 6,-52 15,-60 9,-8 15,-30 15,-60 0,-30 6,-52 15,-60 10,-9 15,-32 15,-75 0,-43 5,-66 15,-75 9,-8 15,-30 15,-60 0,-31 5,-52 16,-60 10,-9 14,-26 12,-49 l -3,-36 -82,-3 c -56,-2 -85,-7 -93,-17 -9,-11 -36,-15 -105,-15 -70,0 -96,-4 -105,-15 -9,-11 -35,-15 -105,-15 -70,0 -96,-4 -105,-15 -9,-11 -35,-15 -105,-15 -70,0 -96,-4 -105,-15 -10,-12 -37,-15 -120,-15 -83,0 -110,-3 -120,-15 -10,-12 -37,-15 -120,-15 -83,0 -110,-3 -120,-15 -10,-12 -38,-15 -135,-15 -97,0 -125,-3 -135,-15 -10,-12 -38,-15 -135,-15 -97,0 -125,-3 -135,-15 -10,-12 -42,-15 -165,-15 -123,0 -155,-3 -165,-15 -10,-12 -40,-15 -150,-15 -110,0 -140,-3 -150,-15 -10,-12 -42,-15 -165,-15 -123,0 -155,-3 -165,-15 -10,-12 -48,-15 -225,-15 -177,0 -215,-3 -225,-15 -10,-13 -52,-15 -255,-15 -203,0 -245,-2 -255,-15 -11,-13 -58,-15 -315,-15 -257,0 -304,-2 -315,-15 -11,-13 -100,-15 -692,-15 -594,0 -679,-2 -684,-15 -8,-19 -30,-19 -38,0 -5,13 -107,15 -834,15 -725,0 -831,2 -842,15 -10,13 -53,15 -270,15 -217,0 -260,2 -270,15 -10,13 -52,15 -255,15 -203,0 -245,2 -255,15 -10,13 -53,15 -270,15 -217,0 -260,2 -270,15 -10,12 -38,15 -135,15 -97,0 -125,3 -135,15 -10,12 -42,15 -165,15 -123,0 -155,3 -165,15 -10,12 -40,15 -150,15 -110,0 -140,3 -150,15 -10,12 -42,15 -165,15 -123,0 -155,3 -165,15 -10,12 -38,15 -135,15 -97,0 -125,3 -135,15 -9,11 -35,15 -105,15 -70,0 -96,4 -105,15 -10,12 -37,15 -120,15 -83,0 -110,3 -120,15 -9,11 -35,15 -105,15 -70,0 -96,4 -105,15 -10,12 -37,15 -120,15 -83,0 -110,3 -120,15 -9,11 -35,15 -105,15 -70,0 -96,4 -105,15 -10,12 -37,15 -120,15 -83,0 -110,3 -120,15 -7,8 -23,15 -36,15 -27,0 -33,24 -9,34 8,3 15,14 15,24 0,11 7,25 15,32 8,7 15,27 15,45 0,18 7,38 15,45 8,7 15,27 15,45 0,18 7,38 15,45 8,7 15,20 15,30 0,10 7,23 15,30 8,7 15,27 15,45 0,18 7,38 15,45 8,7 15,27 15,45 0,18 7,38 15,45 8,7 15,27 15,45 0,18 7,38 15,45 9,8 15,30 15,60 0,30 6,52 15,60 8,7 15,27 15,45 0,18 7,38 15,45 9,8 15,30 15,60 0,30 6,52 15,60 8,7 15,27 15,45 0,18 7,38 15,45 9,8 15,30 15,60 0,30 6,52 15,60 9,8 15,30 15,60 0,30 6,52 15,60 8,7 15,27 15,45 0,18 7,38 15,45 9,8 15,30 15,60 0,29 6,52 14,60 8,6 16,28 18,48 l 3,37 66,3 c 50,2 69,-1 79,-13 9,-10 31,-15 75,-15 43,0 66,-5 75,-15 9,-11 33,-15 90,-15 57,0 81,-4 90,-15 9,-10 32,-15 75,-15 43,0 66,-5 75,-15 9,-11 35,-15 105,-15 70,0 96,-4 105,-15 9,-11 33,-15 90,-15 57,0 81,-4 90,-15 9,-11 33,-15 90,-15 57,0 81,-4 90,-15 9,-11 35,-15 105,-15 70,0 96,-4 105,-15 10,-12 38,-15 135,-15 97,0 125,-3 135,-15 10,-12 38,-15 135,-15 97,0 125,-3 135,-15 10,-12 38,-15 135,-15 97,0 125,-3 135,-15 9,-11 35,-15 107,-15 74,0 95,-3 99,-15 8,-19 34,-19 34,0 0,19 26,19 34,0 4,-13 35,-15 189,-15 152,0 187,-3 197,-15 10,-13 50,-15 240,-15 190,0 230,-2 240,-15 10,-13 52,-15 255,-15 203,0 245,-2 255,-15 11,-13 157,-15 1200,-15 1043,0 1189,2 1200,15 11,13 70,15 420,15 350,0 409,2 420,15 10,12 42,15 165,15 123,0 155,3 165,15 10,12 48,15 225,15 177,0 215,3 225,15 10,12 45,15 195,15 150,0 185,3 195,15 10,12 37,15 120,15 83,0 110,3 120,15 10,12 37,15 120,15 83,0 110,3 120,15 10,12 38,15 135,15 97,0 125,3 135,15 9,11 35,15 105,15 70,0 96,4 105,15 10,12 38,15 135,15 97,0 125,3 135,15 9,11 35,15 105,15 70,0 96,4 105,15 9,11 33,15 90,15 57,0 81,4 90,15 9,10 32,15 75,15 43,0 66,5 75,15 9,10 32,15 75,15 43,0 66,5 75,15 9,10 32,15 75,15 43,0 66,5 75,15 9,11 33,15 90,15 57,0 81,4 90,15 9,10 32,15 75,15 43,0 66,5 75,15 9,10 32,15 75,15 43,0 66,5 75,15 9,10 32,15 75,15 44,0 66,5 75,15 10,12 29,15 79,13 59,-3 66,-5 69,-25 z"
       id="path12"
       inkscape:connector-curvature="0"
       style="stroke-width:5.21004868" />
    <path
       d="m 5931,11436 c -7,-8 -29,-16 -49,-18 l -37,-3 -3,-66 c -2,-50 1,-69 13,-79 13,-10 15,-46 15,-225 0,-174 3,-215 15,-225 10,-9 15,-39 17,-108 l 3,-97 319,-3 c 317,-2 320,-2 343,20 31,29 31,77 0,106 -22,21 -33,22 -252,24 l -230,3 -3,140 c -2,104 -6,143 -17,155 -11,13 -15,57 -17,201 l -3,184 -51,3 c -36,2 -54,-1 -63,-12 z"
       id="path14"
       inkscape:connector-curvature="0"
       style="stroke-width:5.21004868" />
    <path
       d="m 6807,11413 c -4,-3 -7,-14 -7,-23 0,-10 -7,-23 -15,-30 -12,-10 -15,-38 -15,-135 0,-97 -3,-125 -15,-135 -12,-10 -15,-38 -15,-135 0,-97 -3,-125 -15,-135 -11,-9 -15,-35 -15,-104 0,-84 2,-95 23,-114 20,-19 35,-22 114,-22 68,0 94,-4 103,-15 9,-10 32,-15 75,-15 43,0 66,-5 75,-15 9,-10 32,-15 75,-15 43,0 66,-5 75,-15 9,-10 32,-15 74,-15 53,0 66,4 85,24 30,32 27,90 -6,94 -12,2 -27,10 -33,18 -9,9 -33,14 -75,14 -43,0 -66,5 -75,15 -8,9 -30,15 -60,15 -30,0 -52,6 -60,15 -8,10 -37,15 -93,17 l -82,3 v 100 100 l 81,3 c 63,2 84,-1 94,-13 9,-10 31,-15 75,-15 43,0 66,-5 75,-15 9,-10 32,-15 77,-15 47,0 65,-4 69,-15 18,-47 66,17 62,83 -3,46 -4,47 -40,50 -20,2 -42,10 -48,18 -9,9 -33,14 -75,14 -43,0 -66,5 -75,15 -9,10 -32,15 -75,15 -42,0 -66,5 -75,15 -7,8 -34,15 -63,17 -57,3 -73,24 -44,56 9,10 17,40 19,67 l 3,50 51,3 c 36,2 54,-1 64,-13 9,-11 32,-15 90,-15 57,0 81,-4 90,-15 8,-9 30,-15 60,-15 30,0 52,-6 60,-15 8,-10 30,-15 62,-15 34,0 50,-4 54,-15 18,-47 66,17 62,83 -3,40 -6,47 -25,50 -12,2 -27,10 -33,18 -9,9 -33,14 -75,14 -43,0 -66,5 -75,15 -9,10 -32,15 -75,15 -43,0 -66,5 -75,15 -9,10 -32,15 -75,15 -43,0 -66,5 -75,15 -9,11 -35,15 -105,15 -70,0 -96,4 -105,15 -13,16 -42,20 -53,8 z"
       id="path16"
       inkscape:connector-curvature="0"
       style="stroke-width:5.21004868" />
    <path
       d="m 5031,11316 c -8,-9 -34,-16 -64,-18 -52,-3 -52,-3 -55,-39 -2,-23 2,-40 12,-49 11,-8 16,-29 16,-60 0,-30 6,-52 15,-60 9,-8 15,-30 15,-60 0,-30 6,-52 15,-60 9,-8 15,-30 15,-60 0,-30 6,-52 15,-60 9,-8 15,-30 15,-60 0,-30 6,-52 15,-60 10,-9 15,-32 15,-75 0,-43 5,-66 15,-75 8,-7 15,-20 15,-29 1,-19 34,-61 48,-61 5,0 12,7 16,15 4,11 22,15 69,15 45,0 68,5 77,15 9,10 32,15 75,15 43,0 66,5 75,15 10,12 37,15 120,15 81,0 110,4 120,14 6,8 21,16 33,18 20,3 22,9 22,58 v 55 l -126,3 c -103,2 -128,0 -139,-13 -9,-11 -33,-15 -90,-15 -58,0 -81,-4 -90,-15 -7,-9 -23,-15 -34,-13 -18,3 -21,11 -24,55 -2,29 -9,56 -17,63 -10,9 -15,33 -15,75 0,43 -5,66 -15,75 -10,9 -15,32 -15,75 0,43 -5,66 -15,75 -10,9 -15,32 -15,75 0,42 -5,66 -14,75 -8,6 -16,28 -18,48 -3,35 -5,37 -39,40 -23,2 -40,-2 -48,-12 z"
       id="path18"
       inkscape:connector-curvature="0"
       style="stroke-width:5.21004868" />
    <path
       d="m 4430,11135 c -9,-11 -33,-15 -90,-15 -57,0 -81,-4 -90,-15 -7,-8 -20,-15 -30,-15 -10,0 -23,-7 -30,-15 -7,-8 -20,-15 -30,-15 -10,0 -23,-7 -30,-15 -7,-8 -20,-15 -30,-15 -10,0 -23,-7 -30,-15 -7,-8 -20,-15 -29,-15 -21,0 -121,-100 -121,-122 0,-8 -7,-21 -15,-28 -8,-7 -15,-20 -15,-30 0,-10 -7,-23 -15,-30 -12,-10 -15,-38 -15,-135 0,-97 3,-125 15,-135 8,-7 15,-20 15,-30 0,-10 7,-23 15,-30 8,-7 15,-20 15,-29 0,-21 100,-121 122,-121 8,0 21,-7 28,-15 7,-8 20,-15 30,-15 10,0 23,-7 30,-15 10,-12 40,-15 150,-15 110,0 140,3 150,15 7,8 27,15 45,15 18,0 38,7 45,15 7,8 20,15 30,15 10,0 23,7 30,15 7,8 20,15 29,15 10,0 30,14 46,30 16,17 36,30 45,30 20,0 60,41 60,61 0,9 14,28 30,44 17,16 30,36 30,46 0,9 7,22 15,29 12,10 15,40 15,150 0,110 -3,140 -15,150 -8,7 -15,20 -15,30 0,10 -7,23 -15,30 -8,7 -15,20 -15,29 0,21 -70,91 -92,91 -8,0 -21,7 -28,15 -7,8 -20,15 -30,15 -10,0 -23,7 -30,15 -8,9 -30,15 -60,15 -30,0 -52,6 -60,15 -7,8 -20,15 -30,15 -10,0 -23,-7 -30,-15 z m 90,-180 c 7,-8 19,-15 28,-15 21,0 62,-40 62,-61 0,-9 7,-22 15,-29 8,-7 15,-20 15,-30 0,-10 7,-23 15,-30 11,-9 15,-33 15,-90 0,-57 -4,-81 -15,-90 -8,-7 -15,-20 -15,-28 0,-22 -100,-122 -121,-122 -9,0 -22,-7 -29,-15 -7,-8 -20,-15 -30,-15 -10,0 -23,-7 -30,-15 -9,-11 -33,-15 -90,-15 -57,0 -81,4 -90,15 -7,8 -26,15 -43,15 -35,0 -107,61 -107,91 0,9 -7,22 -15,29 -8,7 -15,20 -15,30 0,10 -7,23 -15,30 -10,9 -15,32 -15,75 0,43 5,66 15,75 8,7 15,20 15,28 0,22 130,152 151,152 9,0 22,7 29,15 10,12 38,15 135,15 97,0 125,-3 135,-15 z"
       id="path20"
       inkscape:connector-curvature="0"
       style="stroke-width:5.21004868" />
    <path
       d="m 8000,11105 c -9,-10 -32,-15 -75,-15 -43,0 -66,-5 -75,-15 -7,-8 -20,-15 -29,-15 -21,0 -151,-130 -151,-152 0,-8 -7,-21 -15,-28 -9,-8 -15,-30 -15,-60 0,-30 -6,-52 -15,-60 -9,-8 -15,-30 -15,-60 0,-30 6,-52 15,-60 9,-8 15,-30 15,-59 0,-39 5,-52 30,-76 17,-16 30,-36 30,-45 0,-20 71,-90 91,-90 8,0 28,-13 44,-30 16,-16 36,-30 46,-30 9,0 22,-7 29,-15 7,-8 20,-15 30,-15 10,0 23,-7 30,-15 7,-8 27,-15 45,-15 18,0 38,-7 45,-15 9,-10 32,-15 75,-15 44,0 66,-5 75,-15 10,-13 32,-15 109,-13 90,3 96,4 99,25 2,12 10,27 18,33 8,7 14,20 14,30 0,10 7,23 15,30 8,7 15,20 15,30 0,10 7,23 15,30 8,7 15,20 15,30 0,10 7,23 16,30 10,9 14,26 12,49 -2,28 -8,37 -25,39 -12,2 -27,10 -33,18 -7,8 -27,14 -45,14 -18,0 -38,7 -45,15 -7,8 -20,15 -30,15 -10,0 -23,7 -30,15 -7,8 -20,15 -30,15 -10,0 -23,7 -30,15 -7,8 -20,15 -30,15 -10,0 -23,7 -30,16 -9,10 -26,14 -49,12 -34,-3 -36,-5 -39,-41 -2,-22 -10,-41 -18,-44 -8,-3 -14,-10 -14,-15 0,-19 45,-47 76,-48 17,0 37,-7 44,-15 7,-8 20,-15 29,-15 31,0 63,-44 59,-81 l -3,-34 -111,-3 c -90,-2 -113,0 -124,13 -7,8 -27,15 -44,15 -23,0 -41,9 -61,30 -16,17 -36,30 -45,30 -20,0 -60,41 -60,62 0,9 -7,21 -15,28 -12,10 -15,37 -15,120 0,83 3,110 15,120 8,7 15,20 15,29 0,9 24,40 53,69 l 53,52 h 121 c 95,0 123,-3 133,-15 7,-8 20,-15 30,-15 10,0 23,-7 30,-15 7,-8 20,-15 29,-15 9,0 40,-24 69,-53 40,-40 52,-60 52,-83 0,-33 35,-74 62,-74 9,0 21,-7 28,-15 7,-8 28,-15 47,-15 21,0 36,-6 39,-15 4,-8 12,-15 20,-15 21,0 20,133 -1,150 -8,7 -15,20 -15,30 0,10 -7,23 -15,30 -8,7 -15,20 -15,29 0,21 -70,91 -91,91 -8,0 -28,14 -44,30 -16,17 -36,30 -46,30 -9,0 -22,7 -29,15 -7,8 -20,15 -30,15 -10,0 -23,7 -30,15 -7,8 -27,15 -45,15 -18,0 -38,7 -45,15 -9,10 -32,15 -75,15 -43,0 -66,5 -75,15 -7,8 -20,15 -30,15 -10,0 -23,-7 -30,-15 z"
       id="path22"
       inkscape:connector-curvature="0"
       style="stroke-width:5.21004868" />
    <path
       d="m 8907,10693 c -4,-3 -7,-14 -7,-23 0,-10 -7,-23 -15,-30 -8,-7 -15,-20 -15,-29 0,-10 -13,-30 -30,-46 -16,-16 -30,-36 -30,-46 0,-9 -7,-22 -15,-29 -8,-7 -15,-20 -15,-30 0,-10 -7,-23 -15,-30 -8,-7 -15,-20 -15,-30 0,-10 -7,-23 -15,-30 -8,-7 -15,-20 -15,-29 0,-10 -13,-30 -30,-46 -16,-16 -30,-36 -30,-46 0,-9 -7,-22 -15,-29 -8,-7 -15,-20 -15,-30 0,-10 -7,-23 -15,-30 -8,-7 -15,-20 -15,-29 0,-10 -14,-30 -30,-46 -25,-24 -30,-37 -28,-65 2,-27 8,-36 25,-38 12,-2 27,-10 33,-18 7,-8 20,-14 29,-14 10,0 30,-13 46,-30 16,-16 36,-30 45,-30 9,0 29,-13 45,-30 16,-16 36,-30 45,-30 9,0 29,-13 45,-30 16,-16 36,-30 45,-30 9,0 29,-13 45,-30 16,-16 36,-30 45,-30 9,0 36,-20 60,-45 56,-57 89,-59 143,-10 20,20 37,37 37,40 0,11 -76,74 -90,75 -9,0 -36,20 -60,45 -24,25 -51,45 -60,45 -9,0 -36,20 -60,45 -24,25 -51,45 -60,45 -9,0 -29,13 -45,29 -15,17 -37,31 -49,33 -26,4 -33,40 -11,58 8,7 15,20 15,30 0,10 6,23 14,30 8,6 16,21 18,33 2,17 11,23 39,25 23,2 40,-2 49,-12 7,-9 20,-16 29,-16 9,0 37,-20 61,-45 24,-25 51,-45 60,-45 9,0 29,-13 45,-30 16,-16 36,-30 45,-30 9,0 36,-20 60,-45 39,-40 50,-45 80,-43 27,2 36,8 38,25 2,12 10,27 18,33 8,7 14,20 14,29 0,21 -70,91 -91,91 -8,0 -35,20 -59,45 -24,25 -51,45 -60,45 -9,0 -29,14 -45,30 -16,17 -36,30 -45,30 -9,0 -29,13 -45,29 -15,17 -37,31 -49,33 -26,4 -33,40 -11,58 8,7 15,20 15,29 0,46 91,81 120,46 7,-8 20,-15 29,-15 10,0 30,-13 46,-30 16,-16 36,-30 45,-30 9,0 36,-20 60,-45 24,-25 51,-45 60,-45 9,0 36,-20 60,-45 24,-25 52,-45 61,-45 10,0 29,-13 42,-30 14,-16 29,-30 32,-30 12,0 44,45 45,61 0,9 7,22 15,29 22,18 15,54 -11,58 -11,2 -40,23 -64,47 -25,25 -51,45 -60,45 -9,0 -36,20 -60,45 -24,25 -51,45 -60,45 -9,0 -29,14 -45,30 -16,17 -36,30 -45,30 -9,0 -29,14 -45,30 -16,17 -36,30 -46,30 -9,0 -22,7 -29,15 -7,8 -20,15 -29,15 -10,0 -30,14 -46,30 -16,17 -36,30 -46,30 -9,0 -22,7 -29,15 -12,15 -71,21 -83,8 z"
       id="path24"
       inkscape:connector-curvature="0"
       style="stroke-width:5.21004868" />
    <path
       d="m 3410,10655 c -7,-8 -27,-15 -45,-15 -18,0 -38,-7 -45,-15 -7,-8 -27,-15 -44,-15 -23,0 -41,-9 -61,-30 -16,-16 -36,-30 -45,-30 -20,0 -210,-191 -210,-211 0,-9 -7,-22 -15,-29 -8,-7 -15,-20 -15,-30 0,-10 -7,-23 -15,-30 -11,-9 -15,-35 -15,-105 0,-70 4,-96 15,-105 8,-7 15,-27 15,-44 0,-26 15,-47 98,-129 81,-81 102,-97 128,-97 18,0 37,-7 44,-15 9,-11 35,-15 105,-15 70,0 96,4 105,15 7,8 27,15 45,15 18,0 38,7 45,15 7,8 20,15 30,15 10,0 23,7 30,15 7,8 20,15 29,15 9,0 37,20 61,45 24,25 51,45 60,45 20,0 60,41 60,61 0,9 14,28 30,44 21,20 30,38 30,61 0,17 7,37 15,44 12,10 15,29 13,79 l -3,66 -51,3 c -36,2 -54,-1 -64,-13 -7,-8 -20,-15 -29,-15 -10,0 -27,-10 -39,-23 -18,-19 -22,-35 -22,-83 v -60 l -68,-67 c -37,-37 -75,-67 -84,-67 -8,0 -21,-7 -28,-15 -9,-11 -35,-15 -105,-15 -70,0 -96,4 -105,15 -7,8 -20,15 -29,15 -21,0 -61,40 -61,61 0,9 -13,28 -30,44 -16,16 -30,36 -30,46 0,9 -7,22 -15,29 -9,8 -15,30 -15,60 0,30 6,52 15,60 8,7 15,20 15,30 0,10 7,23 15,30 8,7 15,20 15,29 0,21 40,61 61,61 9,0 28,14 44,30 16,17 36,30 46,30 9,0 22,7 29,15 9,10 32,15 75,15 43,0 66,-5 75,-15 7,-8 27,-15 45,-15 18,0 38,7 45,15 7,8 20,15 29,15 9,0 34,18 55,39 41,42 45,74 9,79 -12,2 -27,10 -33,18 -7,8 -27,14 -45,14 -18,0 -38,7 -45,15 -8,9 -30,15 -60,15 -30,0 -52,-6 -60,-15 z"
       id="path26"
       inkscape:connector-curvature="0"
       style="stroke-width:5.21004868" />
    <path
       d="m 2187,8803 c -4,-3 -7,-14 -7,-23 0,-9 -20,-36 -45,-60 -25,-24 -45,-51 -45,-60 0,-9 -20,-36 -45,-60 -25,-24 -45,-51 -45,-60 0,-9 -13,-29 -30,-45 -16,-16 -30,-36 -30,-45 0,-20 -41,-60 -61,-60 -9,0 -28,14 -44,30 -16,17 -36,30 -46,30 -9,0 -22,7 -29,15 -7,8 -20,15 -29,15 -10,0 -30,14 -46,30 -16,17 -36,30 -45,30 -9,0 -29,14 -45,30 -16,17 -36,30 -45,30 -9,0 -29,14 -45,30 -16,17 -36,30 -45,30 -9,0 -29,14 -45,30 -41,43 -80,41 -128,-8 -20,-21 -37,-45 -37,-54 0,-8 -7,-21 -15,-28 -8,-7 -15,-20 -15,-29 0,-21 41,-61 62,-61 9,0 21,-7 28,-15 7,-8 20,-15 29,-15 10,0 30,-13 46,-30 16,-16 36,-30 46,-30 9,0 22,-7 29,-15 7,-8 20,-15 29,-15 10,0 30,-13 46,-30 16,-16 36,-30 46,-30 9,0 22,-7 29,-15 7,-8 20,-15 29,-15 10,0 30,-13 46,-30 16,-16 36,-30 46,-30 9,0 22,-7 29,-15 7,-8 20,-15 30,-15 10,0 23,-7 30,-15 7,-8 21,-15 32,-15 10,0 21,-7 24,-15 4,-8 10,-15 15,-15 14,0 78,74 79,91 0,8 14,28 30,44 17,16 30,36 30,45 0,9 14,29 30,45 17,16 30,36 30,45 0,9 14,29 30,45 17,16 30,36 30,45 0,9 20,36 45,60 25,24 45,51 45,60 0,9 14,29 30,45 17,16 30,36 30,45 0,9 -17,33 -38,53 -36,35 -61,45 -75,30 z"
       id="path28"
       inkscape:connector-curvature="0"
       style="stroke-width:5.21004868" />
    <path
       d="m 10850,8645 c -7,-8 -20,-15 -29,-15 -9,0 -37,-20 -61,-45 -24,-25 -51,-45 -60,-45 -9,0 -29,-13 -45,-30 -16,-16 -36,-30 -45,-30 -9,0 -29,-13 -45,-30 -16,-16 -36,-30 -45,-30 -9,0 -36,-20 -60,-45 -24,-25 -51,-45 -60,-45 -9,0 -29,-13 -45,-30 -16,-16 -36,-30 -45,-30 -46,0 -80,-91 -45,-120 8,-7 15,-20 15,-29 0,-10 14,-30 30,-46 17,-16 30,-36 30,-45 0,-9 14,-29 30,-45 17,-16 30,-36 30,-46 0,-9 7,-22 15,-29 8,-7 15,-20 15,-29 0,-10 14,-30 30,-46 17,-16 30,-36 30,-46 0,-9 7,-22 15,-29 8,-7 15,-20 15,-29 0,-10 13,-30 29,-46 17,-15 31,-37 33,-49 2,-12 12,-22 24,-24 12,-2 34,-16 49,-33 27,-27 34,-29 106,-29 56,0 80,4 89,15 7,8 20,15 29,15 21,0 61,41 61,62 0,9 7,21 15,28 10,8 15,31 15,66 0,40 4,54 14,54 8,0 16,-7 20,-15 3,-8 14,-15 24,-15 11,0 25,-7 32,-15 16,-20 103,-20 120,-1 6,8 21,16 33,18 14,2 23,11 25,25 2,12 10,27 18,33 21,18 20,222 -1,240 -8,7 -15,20 -15,30 0,10 -7,23 -15,30 -8,7 -15,20 -15,30 0,10 -7,23 -15,30 -8,7 -15,20 -15,30 0,10 -7,23 -15,30 -8,7 -15,20 -15,30 0,10 -7,23 -15,30 -8,7 -15,20 -15,29 0,10 -13,30 -30,46 -16,16 -30,36 -30,46 0,9 -7,22 -15,29 -8,7 -15,20 -15,29 0,10 -13,30 -30,46 -16,16 -30,36 -30,45 0,20 -71,90 -92,90 -8,0 -21,-7 -28,-15 z m 88,-282 c 2,-12 10,-27 18,-33 8,-7 14,-20 14,-29 0,-10 14,-30 30,-46 17,-16 30,-36 30,-46 0,-9 7,-22 15,-29 8,-7 15,-20 15,-30 0,-10 7,-23 15,-30 8,-7 15,-27 15,-45 0,-18 7,-38 15,-45 23,-19 18,-42 -20,-82 -38,-41 -50,-46 -59,-23 -3,8 -13,15 -23,15 -22,0 -93,69 -93,91 0,9 -7,22 -15,29 -8,7 -15,20 -15,30 0,10 -7,23 -15,30 -8,7 -15,20 -15,29 0,10 -13,30 -30,46 -16,16 -30,36 -30,46 0,9 -7,22 -15,29 -8,7 -15,19 -15,28 0,21 40,62 61,62 9,0 22,7 29,16 9,10 26,14 49,12 28,-2 37,-8 39,-25 z m -287,-145 c 10,-13 18,-30 19,-39 0,-9 7,-22 15,-29 8,-7 15,-20 15,-30 0,-10 7,-23 15,-30 8,-7 15,-20 15,-29 0,-10 14,-30 30,-46 17,-16 30,-36 30,-46 0,-9 7,-22 15,-29 11,-9 15,-33 15,-88 0,-64 -3,-79 -22,-99 -37,-39 -74,-31 -135,29 -29,29 -53,60 -53,69 0,9 -7,22 -15,29 -8,7 -15,20 -15,29 0,10 -13,30 -30,46 -16,16 -30,36 -30,46 0,9 -7,22 -15,29 -8,7 -15,20 -15,30 0,10 -7,23 -15,30 -22,18 -15,54 11,58 12,2 34,16 49,33 16,16 37,29 47,29 10,0 21,7 24,15 8,21 23,19 45,-7 z"
       id="path30"
       inkscape:connector-curvature="0"
       style="stroke-width:5.21004868" />
    <path
       d="m 1070,8015 c -9,-10 -32,-15 -74,-15 -52,0 -66,-4 -84,-23 -12,-13 -22,-30 -22,-39 0,-9 -7,-21 -15,-28 -8,-7 -15,-28 -15,-47 0,-21 -6,-36 -15,-39 -24,-10 -19,-19 45,-80 33,-31 60,-64 60,-73 0,-21 430,-451 452,-451 9,0 28,-13 41,-30 34,-40 47,-38 47,9 0,22 6,44 15,51 9,8 15,30 15,59 0,44 -4,50 -60,106 -48,48 -60,66 -60,91 0,17 7,37 15,44 8,7 15,20 15,30 0,10 7,23 15,30 8,7 15,27 15,45 0,18 7,38 15,45 8,7 15,20 15,30 0,10 7,23 15,30 8,7 15,20 15,29 0,10 10,27 23,39 19,18 37,22 117,24 89,3 95,4 98,25 2,12 10,27 18,33 8,7 14,21 14,32 0,10 7,21 15,24 24,10 18,34 -9,34 -13,0 -29,7 -36,15 -11,13 -62,15 -345,15 -283,0 -334,-2 -345,-15 z m 298,-206 c 2,-23 -2,-40 -12,-49 -9,-7 -16,-20 -16,-30 0,-10 -6,-23 -14,-30 -8,-6 -16,-28 -18,-48 -5,-61 -34,-50 -142,57 -53,51 -96,96 -96,98 0,3 10,13 23,24 19,16 37,18 147,16 l 125,-2 z"
       id="path32"
       inkscape:connector-curvature="0"
       style="stroke-width:5.21004868" />
    <path
       d="m 11390,7596 c -7,-9 -27,-16 -45,-16 -18,0 -38,-7 -45,-15 -7,-8 -20,-15 -30,-15 -10,0 -23,-7 -30,-15 -7,-8 -27,-15 -45,-15 -18,0 -38,-7 -45,-15 -7,-8 -27,-15 -45,-15 -18,0 -38,-7 -45,-15 -7,-8 -20,-15 -30,-15 -10,0 -23,-7 -30,-15 -7,-8 -27,-15 -45,-15 -18,0 -38,-7 -45,-15 -7,-8 -20,-15 -30,-15 -10,0 -23,-7 -30,-15 -7,-8 -27,-15 -45,-15 -18,0 -38,-6 -45,-14 -6,-8 -21,-16 -33,-18 -27,-4 -34,-39 -12,-58 8,-7 15,-27 15,-45 0,-18 7,-38 15,-45 8,-7 15,-27 15,-45 0,-18 7,-38 15,-45 8,-7 15,-27 15,-45 0,-18 7,-38 15,-45 9,-8 15,-30 15,-60 0,-30 6,-52 15,-60 9,-8 15,-30 15,-60 0,-30 6,-52 15,-60 9,-8 15,-30 15,-59 1,-62 47,-119 63,-77 3,8 22,16 44,18 l 38,3 3,51 c 2,36 -1,54 -13,64 -10,8 -15,29 -15,60 0,30 -6,52 -15,60 -9,8 -15,30 -15,60 0,30 -6,52 -15,60 -8,7 -15,27 -15,45 0,18 -7,38 -15,45 -12,10 -15,28 -13,64 3,51 3,51 40,54 20,2 42,10 48,18 7,8 27,14 44,14 41,0 76,-35 76,-77 0,-17 7,-36 15,-43 9,-8 15,-30 15,-60 0,-30 6,-52 15,-60 8,-7 15,-27 15,-45 0,-18 7,-38 15,-45 9,-7 15,-35 17,-78 l 3,-67 h 70 70 l 3,51 c 2,36 -1,54 -13,64 -10,8 -15,29 -15,60 0,30 -6,52 -15,60 -9,8 -15,30 -15,60 0,30 -6,52 -15,60 -8,7 -15,27 -15,45 0,18 -7,38 -15,45 -8,7 -15,27 -15,44 0,42 35,76 78,76 20,0 35,6 38,15 4,8 11,15 16,15 19,0 47,-45 48,-76 0,-17 7,-37 15,-44 8,-7 15,-27 15,-45 0,-18 7,-38 15,-45 9,-8 15,-30 15,-60 0,-30 6,-52 15,-60 9,-8 15,-30 15,-60 0,-30 6,-52 15,-60 9,-8 15,-30 15,-59 1,-62 47,-119 63,-77 3,8 22,16 44,18 36,3 38,5 41,39 2,23 -2,40 -12,49 -11,9 -16,31 -16,75 0,43 -5,66 -15,75 -8,7 -15,27 -15,45 0,18 -7,38 -15,45 -9,8 -15,30 -15,60 0,30 -6,52 -15,60 -8,7 -15,27 -15,45 0,18 -7,38 -15,45 -8,7 -15,27 -15,45 0,18 -7,38 -15,45 -8,7 -15,27 -15,45 0,18 -6,38 -14,45 -8,6 -16,28 -18,48 -3,35 -5,37 -39,40 -23,2 -40,-2 -49,-12 z"
       id="path34"
       inkscape:connector-curvature="0"
       style="stroke-width:5.21004868" />
    <path
       d="m 830,7235 c -7,-8 -27,-15 -44,-15 -26,0 -44,-13 -99,-68 -37,-37 -67,-75 -67,-84 0,-8 -7,-21 -15,-28 -8,-7 -15,-27 -15,-45 0,-18 -7,-38 -15,-45 -9,-8 -15,-30 -15,-60 0,-30 -6,-52 -15,-60 -22,-18 -22,-192 0,-210 8,-7 15,-27 15,-45 0,-18 7,-38 15,-45 8,-7 15,-20 15,-30 0,-10 7,-23 15,-30 8,-7 15,-20 15,-29 0,-21 70,-91 92,-91 8,0 21,-7 28,-15 7,-8 27,-15 45,-15 18,0 38,-7 45,-15 9,-11 35,-15 105,-15 70,0 96,4 105,15 7,8 27,15 44,15 23,0 41,9 61,30 16,17 36,30 45,30 20,0 60,41 60,61 0,9 14,28 30,44 17,16 30,36 30,46 0,9 7,22 15,29 8,7 15,27 15,45 0,18 7,38 15,45 12,10 15,42 15,165 0,123 -3,155 -15,165 -8,7 -15,20 -15,29 0,14 -124,151 -137,151 -10,0 -42,-46 -43,-61 0,-9 -7,-22 -15,-29 -12,-10 -15,-28 -13,-64 3,-44 6,-51 28,-56 15,-4 26,-14 28,-27 2,-12 10,-27 18,-33 21,-18 20,-222 -1,-240 -8,-7 -15,-20 -15,-29 0,-9 -24,-40 -53,-69 l -53,-52 H 963 c -95,0 -123,3 -133,15 -7,8 -20,15 -29,15 -21,0 -91,70 -91,92 0,8 -7,21 -15,28 -11,9 -15,35 -15,105 0,70 4,96 15,105 8,7 15,27 15,44 0,25 11,43 53,84 29,29 60,52 68,52 9,0 25,11 38,24 19,21 22,32 19,102 -3,71 -5,79 -24,82 -11,2 -27,-4 -34,-13 z"
       id="path36"
       inkscape:connector-curvature="0"
       style="stroke-width:5.21004868" />
    <path
       d="m 11686,6575 c -4,-12 -25,-15 -99,-15 -72,0 -98,-4 -107,-15 -9,-11 -33,-15 -90,-15 -57,0 -81,-4 -90,-15 -9,-11 -35,-15 -105,-15 -69,0 -96,-4 -105,-15 -7,-9 -35,-15 -78,-17 l -67,-3 v -85 -85 l 141,-3 c 117,-2 143,0 154,13 10,12 35,15 111,15 55,0 99,-4 99,-8 0,-15 -250,-257 -269,-260 -9,-2 -44,-30 -76,-62 -33,-33 -67,-60 -75,-60 -9,0 -26,-11 -39,-24 -20,-21 -22,-32 -19,-117 l 3,-94 214,-3 c 175,-2 218,-5 232,-17 13,-13 46,-15 185,-13 l 169,3 v 100 100 l -252,3 c -141,1 -253,6 -253,11 0,14 129,136 148,139 9,2 88,74 175,160 l 157,157 v 105 c -1,88 -4,109 -19,128 -22,26 -37,28 -45,7 z"
       id="path38"
       inkscape:connector-curvature="0"
       style="stroke-width:5.21004868" />
    <path
       d="m 474,6127 c -3,-8 -4,-54 -2,-103 l 3,-89 h 400 400 v 85 85 l -186,3 c -150,2 -189,5 -199,17 -17,21 -408,22 -416,2 z"
       id="path40"
       inkscape:connector-curvature="0"
       style="stroke-width:5.21004868" />
    <path
       d="m 740,5765 c -7,-8 -20,-15 -29,-15 -10,0 -30,-13 -46,-29 -15,-17 -37,-31 -49,-33 -12,-2 -22,-12 -24,-24 -2,-12 -16,-34 -33,-49 -20,-20 -29,-38 -29,-61 0,-17 -7,-37 -15,-44 -12,-10 -15,-40 -15,-150 0,-110 3,-140 15,-150 11,-9 15,-35 15,-105 0,-70 4,-96 15,-105 10,-9 15,-32 15,-74 0,-52 4,-66 23,-84 27,-26 50,-28 67,-7 9,10 32,15 75,15 43,0 66,5 75,15 9,10 32,15 75,15 43,0 66,5 75,15 9,10 32,15 75,15 43,0 66,5 75,15 9,10 32,15 75,15 42,0 66,5 75,15 7,8 34,15 63,17 l 52,3 3,51 c 2,36 -1,54 -13,64 -11,10 -15,34 -15,105 0,70 -4,96 -15,105 -11,9 -15,33 -15,90 0,57 -4,81 -15,90 -8,7 -15,27 -15,45 0,18 -7,38 -15,45 -8,7 -15,20 -15,29 0,21 -100,121 -122,121 -8,0 -21,7 -28,15 -7,8 -20,15 -30,15 -10,0 -23,7 -30,15 -10,12 -40,15 -150,15 -110,0 -140,-3 -150,-15 z m 240,-180 c 7,-8 26,-15 43,-15 24,0 43,-12 84,-52 49,-48 53,-56 53,-99 0,-30 6,-51 15,-59 13,-11 15,-34 13,-124 l -3,-111 -97,-3 c -69,-2 -99,-7 -108,-17 -9,-11 -34,-15 -90,-15 -58,0 -81,-4 -90,-15 -10,-12 -28,-15 -64,-13 -44,3 -51,6 -54,25 -2,12 -10,27 -18,33 -21,18 -21,312 1,330 8,7 15,20 15,28 0,9 17,33 37,54 32,33 43,38 84,38 29,0 51,6 59,15 8,9 30,15 60,15 30,0 52,-6 60,-15 z"
       id="path42"
       inkscape:connector-curvature="0"
       style="stroke-width:5.21004868" />
    <path
       d="m 11210,5495 c -7,-8 -20,-15 -30,-15 -10,0 -23,-7 -30,-15 -7,-8 -20,-15 -29,-15 -21,0 -151,-130 -151,-152 0,-8 -7,-21 -15,-28 -8,-7 -15,-20 -15,-30 0,-10 -7,-23 -15,-30 -9,-8 -15,-30 -15,-60 0,-30 -6,-52 -15,-60 -22,-18 -22,-401 -1,-420 8,-6 16,-21 18,-33 2,-17 11,-23 40,-25 20,-2 42,-10 48,-18 8,-8 31,-14 60,-14 31,0 52,-5 60,-15 10,-12 28,-15 64,-13 51,3 51,3 54,40 2,20 10,42 18,48 8,8 14,31 14,60 0,30 6,52 15,60 9,8 15,30 15,60 0,30 6,52 15,60 23,19 19,73 -9,99 -19,18 -33,22 -72,19 l -49,-3 -3,-50 c -2,-27 -9,-57 -17,-65 -8,-8 -15,-38 -17,-65 -3,-55 -24,-70 -56,-42 -9,8 -26,17 -37,19 -19,3 -20,12 -23,144 -2,117 0,143 13,154 8,7 15,27 15,44 0,26 13,44 68,99 l 68,67 h 121 c 95,0 123,-3 133,-15 7,-8 20,-15 29,-15 21,0 61,-41 61,-62 0,-9 7,-21 15,-28 8,-7 15,-20 15,-30 0,-10 7,-23 15,-30 11,-9 15,-33 15,-90 0,-57 -4,-81 -15,-90 -8,-7 -15,-27 -15,-45 0,-18 -7,-38 -15,-45 -8,-7 -15,-20 -15,-29 0,-21 -99,-118 -125,-123 -15,-2 -21,-12 -23,-38 -2,-19 -10,-42 -18,-51 -10,-11 -14,-33 -12,-65 3,-48 4,-49 39,-52 23,-2 40,2 49,12 7,9 20,16 30,16 10,0 23,7 30,15 7,8 20,15 29,15 21,0 61,40 61,61 0,9 14,28 30,44 21,20 30,38 30,61 0,17 7,37 15,44 8,7 15,27 15,45 0,18 7,38 15,45 11,9 15,33 15,90 0,57 4,81 15,90 8,7 15,27 15,45 0,18 -7,38 -15,45 -10,9 -15,32 -15,75 0,43 -5,66 -15,75 -8,7 -15,20 -15,29 0,10 -13,30 -29,46 -17,15 -31,37 -33,49 -2,12 -12,22 -24,24 -12,2 -34,16 -49,33 -16,16 -36,29 -46,29 -9,0 -22,7 -29,15 -10,12 -38,15 -135,15 -97,0 -125,-3 -135,-15 z"
       id="path44"
       inkscape:connector-curvature="0"
       style="stroke-width:5.21004868" />
    <path
       d="m 1367,4806 c -3,-8 -22,-16 -44,-18 -30,-2 -39,-8 -41,-24 -2,-11 4,-27 13,-34 10,-8 15,-29 15,-60 0,-30 6,-52 15,-60 8,-7 15,-27 15,-45 0,-18 7,-38 15,-45 9,-8 15,-30 15,-60 0,-30 6,-52 15,-60 8,-7 15,-20 15,-30 0,-10 7,-23 15,-30 42,-35 -1,-120 -62,-120 -17,0 -36,-7 -43,-15 -7,-8 -20,-15 -29,-15 -21,0 -61,41 -61,62 0,9 -7,21 -15,28 -8,7 -15,27 -15,45 0,18 -7,38 -15,45 -8,7 -15,27 -15,45 0,18 -7,38 -15,45 -9,8 -15,30 -15,60 0,29 -6,52 -14,60 -8,6 -16,28 -18,48 -3,34 -6,37 -36,40 -20,2 -41,-3 -50,-11 -10,-8 -26,-17 -37,-19 -25,-4 -31,-40 -10,-58 8,-7 15,-27 15,-45 0,-18 7,-38 15,-45 8,-7 15,-27 15,-45 0,-18 7,-38 15,-45 8,-7 15,-27 15,-45 0,-18 7,-38 15,-45 8,-7 15,-27 15,-45 0,-18 7,-38 15,-45 12,-10 15,-28 13,-64 -3,-51 -3,-51 -40,-54 -20,-2 -42,-10 -48,-18 -7,-8 -20,-14 -29,-14 -21,0 -61,41 -61,62 0,9 -7,21 -15,28 -8,7 -15,27 -15,45 0,18 -7,38 -15,45 -8,7 -15,27 -15,45 0,18 -7,38 -15,45 -9,8 -15,30 -15,60 0,30 -6,52 -15,60 -8,7 -15,27 -15,45 0,18 -6,38 -14,45 -8,6 -16,21 -18,33 -3,20 -9,22 -58,22 h -55 l -3,-66 c -2,-50 1,-69 13,-79 8,-7 15,-27 15,-45 0,-18 7,-38 15,-45 9,-8 15,-30 15,-60 0,-30 6,-52 15,-60 8,-7 15,-27 15,-45 0,-18 7,-38 15,-45 8,-7 15,-20 15,-30 0,-10 7,-23 15,-30 8,-7 15,-27 15,-45 0,-18 7,-38 15,-45 8,-7 15,-27 15,-45 0,-18 7,-38 15,-45 8,-7 15,-20 15,-29 0,-46 91,-81 120,-46 7,8 20,15 30,15 10,0 23,7 30,15 7,8 27,15 45,15 18,0 38,7 45,15 7,8 20,15 30,15 10,0 23,7 30,15 7,8 20,15 30,15 10,0 23,7 30,15 7,8 27,15 45,15 18,0 38,7 45,15 7,8 20,15 30,15 10,0 23,7 30,15 7,8 20,15 30,15 10,0 23,7 30,15 7,8 27,15 45,15 18,0 38,7 45,15 7,8 20,15 29,15 21,0 61,41 61,62 0,9 -7,21 -15,28 -8,7 -15,20 -15,30 0,10 -7,23 -15,30 -8,7 -15,27 -15,45 0,18 -7,38 -15,45 -8,7 -15,27 -15,45 0,18 -7,38 -15,45 -8,7 -15,27 -15,45 0,18 -7,38 -15,45 -8,7 -15,27 -15,45 0,18 -7,38 -15,45 -8,7 -15,27 -15,45 0,18 -7,38 -15,45 -8,7 -15,27 -15,44 -1,31 -29,76 -48,76 -5,0 -12,-6 -15,-14 z"
       id="path46"
       inkscape:connector-curvature="0"
       style="stroke-width:5.21004868" />
    <path
       d="m 10767,4543 c -4,-3 -7,-21 -7,-38 0,-18 -7,-38 -15,-45 -8,-7 -15,-27 -15,-44 0,-25 12,-43 60,-91 48,-48 60,-66 60,-91 0,-17 -7,-37 -15,-44 -8,-7 -15,-27 -15,-45 0,-18 -7,-38 -15,-45 -8,-7 -15,-20 -15,-30 0,-10 -7,-23 -15,-30 -8,-7 -15,-20 -15,-30 0,-10 -7,-23 -15,-30 -8,-7 -15,-20 -15,-29 0,-10 -10,-27 -23,-39 -20,-19 -35,-22 -113,-22 -82,0 -93,-2 -112,-23 -12,-13 -22,-30 -22,-39 0,-9 -7,-21 -16,-28 -10,-9 -14,-26 -12,-49 l 3,-36 141,-3 c 110,-2 145,-6 154,-17 18,-22 462,-22 480,0 7,8 34,15 63,17 45,3 52,6 55,25 2,12 10,27 18,33 8,7 14,20 14,30 0,10 7,23 15,30 9,8 15,30 15,59 0,44 -4,50 -60,106 -33,33 -60,66 -60,75 0,20 -461,480 -481,480 -9,0 -19,-3 -22,-7 z m 302,-527 c 107,-108 107,-120 -6,-124 -56,-2 -85,-7 -93,-17 -17,-21 -71,-18 -97,4 -27,22 -29,37 -8,45 8,3 15,14 15,24 0,11 7,25 15,32 8,7 15,20 15,30 0,10 7,23 15,30 8,7 15,20 15,30 0,9 3,20 7,23 17,18 45,0 122,-77 z"
       id="path48"
       inkscape:connector-curvature="0"
       style="stroke-width:5.21004868" />
    <path
       d="m 1670,3935 c -7,-8 -27,-15 -45,-15 -18,0 -38,-7 -45,-15 -7,-8 -20,-15 -30,-15 -10,0 -23,-7 -30,-15 -7,-8 -20,-15 -30,-15 -10,0 -23,-7 -30,-15 -7,-8 -20,-15 -30,-15 -10,0 -23,-7 -30,-15 -7,-8 -20,-15 -30,-15 -10,0 -23,-7 -30,-15 -7,-8 -20,-15 -30,-15 -10,0 -23,-7 -30,-15 -7,-8 -20,-15 -30,-15 -10,0 -23,-7 -30,-15 -7,-8 -20,-15 -30,-15 -10,0 -23,-7 -30,-15 -7,-8 -20,-15 -30,-15 -10,0 -23,-7 -30,-15 -7,-8 -20,-15 -30,-15 -10,0 -23,-7 -30,-15 -7,-8 -23,-15 -36,-15 -27,0 -33,-24 -9,-34 8,-3 15,-14 15,-24 0,-11 7,-25 15,-32 8,-7 15,-20 15,-30 0,-10 7,-23 15,-30 8,-7 15,-20 15,-30 0,-10 7,-23 15,-30 8,-7 15,-20 15,-30 0,-10 6,-23 14,-30 8,-6 16,-21 18,-33 3,-20 10,-22 69,-25 50,-2 69,1 79,13 9,10 31,15 75,15 43,0 66,5 75,15 9,10 32,15 75,15 43,0 66,5 75,15 15,18 120,21 120,4 0,-6 -13,-22 -30,-36 -16,-13 -30,-32 -30,-42 0,-9 -27,-43 -60,-76 -33,-33 -60,-66 -60,-75 0,-9 -20,-36 -45,-60 -25,-24 -45,-51 -45,-60 0,-9 -13,-29 -30,-45 -16,-16 -30,-36 -30,-45 0,-9 20,-36 45,-60 25,-24 45,-51 45,-60 0,-9 14,-29 30,-45 17,-16 30,-36 30,-44 1,-15 64,-91 76,-91 3,0 17,14 31,30 13,17 32,30 42,30 9,0 37,20 61,45 24,25 51,45 60,45 9,0 42,27 75,60 33,33 66,60 75,60 9,0 42,27 75,60 33,33 66,60 75,60 20,0 120,101 120,122 0,8 -7,21 -15,28 -8,7 -15,20 -15,29 0,27 -43,61 -76,61 -21,0 -40,-10 -59,-30 -16,-16 -36,-30 -45,-30 -9,0 -29,-13 -45,-30 -16,-16 -36,-30 -45,-30 -9,0 -36,-20 -60,-45 -24,-25 -51,-45 -60,-45 -9,0 -29,-13 -45,-30 -16,-16 -39,-30 -52,-30 -14,0 -23,-6 -23,-15 0,-8 -7,-15 -15,-15 -8,0 -15,7 -15,15 0,8 7,15 15,15 9,0 15,9 15,23 0,13 14,36 30,52 17,16 30,36 30,45 0,8 27,42 60,75 33,33 60,66 60,75 0,8 34,49 75,90 88,87 96,116 45,165 -16,16 -30,36 -30,45 0,46 -91,80 -120,45 -9,-10 -32,-15 -75,-15 -43,0 -66,-5 -75,-15 -8,-9 -30,-15 -60,-15 -30,0 -52,-6 -60,-15 -9,-10 -32,-15 -75,-15 -43,0 -66,-5 -75,-15 -14,-17 -90,-21 -90,-4 0,15 42,48 61,49 9,0 22,7 29,15 7,8 20,15 30,15 10,0 23,7 30,15 7,8 20,15 29,15 10,0 30,14 46,30 16,17 36,30 46,30 9,0 22,7 29,15 7,8 20,15 30,15 10,0 23,7 30,15 7,8 20,15 29,15 21,0 91,70 91,92 0,8 -7,21 -15,28 -8,7 -15,20 -15,29 0,21 -41,61 -62,61 -9,0 -21,-7 -28,-15 z"
       id="path50"
       inkscape:connector-curvature="0"
       style="stroke-width:5.21004868" />
    <path
       d="m 10298,3565 c -10,-13 -18,-30 -18,-38 0,-7 -13,-26 -30,-42 -16,-16 -30,-36 -30,-45 0,-9 -20,-36 -45,-60 -25,-24 -45,-51 -45,-60 0,-9 -27,-42 -60,-75 -33,-33 -60,-66 -60,-75 0,-9 -27,-42 -60,-75 -33,-33 -60,-67 -60,-75 0,-21 41,-60 63,-60 10,0 20,-7 23,-15 4,-8 10,-15 15,-15 14,0 78,74 79,90 0,9 34,49 75,90 41,41 75,82 75,90 0,9 14,29 30,45 17,16 30,36 30,44 1,19 34,61 48,61 5,0 12,-7 16,-15 3,-8 14,-15 24,-15 10,0 38,-20 62,-45 24,-25 51,-45 60,-45 9,0 29,-13 45,-30 16,-16 36,-30 45,-30 9,0 29,-13 45,-30 16,-16 36,-30 45,-30 9,0 36,-20 60,-45 24,-25 52,-45 61,-45 10,0 29,-13 42,-30 14,-16 28,-30 31,-30 12,0 75,76 76,91 0,8 14,28 30,44 35,34 37,68 4,73 -12,2 -34,16 -49,33 -16,16 -36,29 -45,29 -9,0 -29,14 -45,30 -16,17 -36,30 -45,30 -9,0 -29,14 -45,30 -16,17 -36,30 -46,30 -9,0 -22,7 -29,15 -7,8 -20,15 -29,15 -10,0 -30,14 -46,30 -16,17 -36,30 -45,30 -9,0 -29,14 -45,30 -16,17 -36,30 -45,30 -9,0 -29,14 -45,30 -16,17 -37,30 -47,30 -10,0 -21,7 -24,15 -9,22 -26,18 -46,-10 z"
       id="path52"
       inkscape:connector-curvature="0"
       style="stroke-width:5.21004868" />
    <path
       d="m 5757,9583 c -4,-3 -7,-48 -7,-98 0,-70 4,-96 15,-105 10,-9 15,-32 15,-74 0,-52 -4,-66 -23,-84 -27,-26 -79,-29 -97,-7 -9,10 -32,15 -75,15 -43,0 -66,5 -75,15 -7,8 -20,15 -30,15 -10,0 -23,7 -30,15 -7,8 -27,15 -45,15 -18,0 -38,7 -45,15 -10,12 -45,15 -194,15 -162,-1 -183,-3 -203,-19 -13,-11 -23,-22 -23,-26 0,-12 44,-44 61,-45 9,0 22,-7 29,-15 7,-8 20,-15 29,-15 21,0 211,-190 211,-211 0,-9 -10,-25 -23,-37 -21,-20 -34,-22 -129,-22 -82,0 -108,-3 -118,-15 -8,-9 -30,-15 -60,-15 -30,0 -52,-6 -60,-15 -7,-8 -27,-15 -45,-15 -18,0 -38,-7 -45,-15 -7,-8 -20,-15 -30,-15 -10,0 -23,-7 -30,-15 -7,-8 -27,-15 -45,-15 -18,0 -38,-7 -45,-15 -7,-8 -27,-15 -45,-15 -18,0 -38,-7 -45,-15 -7,-8 -20,-15 -29,-15 -15,-1 -91,-64 -91,-76 0,-20 50,-43 91,-44 29,0 51,-6 59,-15 10,-12 40,-15 150,-15 108,0 140,-3 150,-14 6,-8 21,-16 33,-18 40,-6 32,-38 -24,-94 -29,-30 -61,-54 -70,-54 -9,0 -22,-7 -29,-15 -7,-8 -20,-15 -29,-15 -9,0 -43,-27 -76,-60 -32,-32 -68,-60 -79,-62 -12,-2 -22,-12 -24,-24 -2,-11 -36,-54 -77,-94 -41,-41 -75,-82 -75,-91 0,-9 -7,-22 -15,-29 -23,-19 -19,-73 8,-98 19,-18 35,-22 84,-22 42,0 64,5 73,15 8,9 30,15 60,15 30,0 52,6 60,15 8,9 30,15 60,15 30,0 52,6 60,15 7,8 27,15 45,15 18,0 38,7 45,15 7,8 27,15 45,15 18,0 38,7 45,15 14,17 150,22 150,5 0,-5 -20,-28 -45,-51 -25,-23 -45,-49 -45,-58 0,-9 -40,-57 -90,-106 -49,-49 -90,-97 -90,-106 0,-9 -7,-22 -15,-29 -8,-7 -15,-20 -15,-29 0,-10 -13,-30 -30,-46 -16,-16 -30,-36 -30,-46 0,-9 -7,-22 -15,-29 -8,-7 -15,-27 -15,-44 0,-23 -9,-41 -30,-61 -16,-16 -30,-36 -30,-46 0,-9 -7,-22 -15,-29 -8,-7 -15,-27 -15,-45 0,-18 -7,-38 -15,-45 -9,-8 -15,-30 -15,-60 0,-30 -6,-52 -15,-60 -23,-19 -19,-73 8,-98 31,-29 48,-28 82,8 16,17 36,30 45,30 9,0 29,14 45,30 16,17 36,30 45,30 9,0 36,20 60,45 24,25 51,45 60,45 8,0 49,34 90,75 41,41 82,75 90,75 9,0 36,20 60,45 24,25 51,45 60,45 9,0 29,14 45,30 16,17 36,30 45,30 9,0 29,14 45,30 53,55 135,27 135,-47 0,-17 6,-36 14,-43 8,-6 16,-21 18,-33 2,-14 11,-23 25,-25 12,-2 27,-10 33,-18 10,-11 40,-14 134,-14 115,0 124,-1 144,-23 26,-27 28,-50 7,-67 -9,-8 -15,-30 -15,-59 0,-42 -4,-51 -45,-91 -25,-24 -45,-52 -45,-61 0,-9 -7,-22 -15,-29 -8,-7 -15,-20 -15,-30 0,-10 -7,-23 -15,-30 -9,-8 -15,-30 -15,-60 0,-30 -6,-52 -15,-60 -8,-7 -15,-27 -15,-45 0,-18 7,-38 15,-45 8,-7 15,-20 15,-30 0,-10 7,-23 15,-30 8,-7 15,-20 15,-30 0,-10 7,-23 15,-30 8,-7 15,-20 15,-29 0,-10 14,-30 30,-46 17,-16 30,-36 30,-46 0,-9 7,-22 15,-29 11,-9 15,-33 15,-90 0,-57 4,-81 15,-90 21,-18 22,-222 1,-240 -8,-6 -16,-21 -18,-33 -2,-14 -11,-23 -25,-25 -12,-2 -27,-10 -33,-18 -8,-8 -31,-14 -59,-14 -39,0 -52,-5 -76,-30 -16,-16 -36,-30 -45,-30 -8,0 -39,-24 -68,-53 -40,-41 -52,-60 -52,-84 0,-17 -7,-36 -15,-43 -8,-7 -15,-20 -15,-30 0,-10 -7,-23 -15,-30 -8,-7 -15,-21 -15,-32 0,-10 -7,-21 -15,-24 -8,-4 -15,-12 -15,-19 0,-7 7,-15 15,-19 9,-3 15,-18 15,-39 0,-19 7,-40 15,-47 8,-7 15,-27 15,-45 0,-18 7,-38 15,-45 8,-7 15,-20 15,-29 0,-21 100,-121 121,-121 20,0 119,-101 119,-122 0,-8 7,-21 15,-28 9,-8 15,-30 15,-60 0,-30 -6,-52 -15,-60 -8,-7 -15,-27 -15,-45 0,-18 7,-38 15,-45 8,-7 15,-20 15,-29 0,-21 -160,-181 -181,-181 -9,0 -22,-7 -29,-15 -9,-11 -35,-15 -105,-15 -70,0 -96,-4 -105,-15 -9,-11 -35,-15 -104,-15 h -92 l -37,-38 c -20,-21 -37,-45 -37,-54 0,-8 -7,-21 -15,-28 -21,-17 -20,-103 1,-120 10,-9 14,-26 12,-49 l -3,-36 -68,-3 c -48,-2 -70,-7 -74,-17 -7,-19 -29,-19 -37,0 -3,8 -14,15 -24,15 -11,0 -25,-7 -32,-15 -7,-8 -20,-15 -29,-15 -21,0 -181,-160 -181,-181 0,-9 -7,-22 -15,-29 -9,-8 -15,-30 -15,-59 0,-41 5,-52 38,-84 41,-40 89,-50 112,-22 7,8 20,15 30,15 10,0 23,-7 30,-15 17,-21 133,-21 150,0 19,22 378,22 386,0 8,-19 30,-19 38,0 8,22 397,22 416,0 16,-19 44,-19 60,0 10,12 38,15 135,15 97,0 125,-3 135,-15 7,-8 20,-15 30,-15 10,0 23,7 30,15 9,11 35,15 105,15 70,0 96,-4 105,-15 17,-20 103,-20 120,0 9,10 32,15 77,15 47,0 65,4 69,15 4,8 12,15 19,15 7,0 15,-7 19,-15 8,-21 104,-21 112,0 4,8 12,15 19,15 7,0 15,-7 19,-15 7,-19 45,-19 52,0 8,19 30,19 38,0 7,-20 70,-20 86,0 10,12 67,15 364,17 l 351,3 3,23 c 2,13 10,26 18,29 18,7 18,29 0,36 -8,3 -16,16 -18,29 -2,19 -10,24 -40,26 -20,2 -42,10 -48,18 -7,8 -20,14 -30,14 -10,0 -23,7 -30,15 -8,9 -30,15 -60,15 -30,0 -52,6 -60,15 -7,8 -27,15 -44,15 -26,0 -46,15 -121,90 l -90,90 h -151 c -123,0 -154,-3 -164,-15 -9,-11 -35,-15 -104,-15 -84,0 -95,2 -114,23 -12,13 -22,30 -22,39 0,9 -7,21 -15,28 -10,9 -15,32 -15,75 0,43 -5,66 -15,75 -11,9 -15,35 -15,105 0,70 4,96 15,105 8,7 15,20 15,30 0,10 6,23 14,30 8,6 16,21 18,33 2,13 13,23 28,27 15,4 26,14 28,27 2,12 10,27 18,33 8,8 14,31 14,60 0,30 6,52 15,60 8,7 15,27 15,45 0,18 -7,38 -15,45 -8,7 -15,20 -15,30 0,10 -7,23 -15,30 -8,7 -15,20 -15,29 0,9 -34,50 -75,91 -41,41 -75,82 -75,91 0,9 -7,22 -15,29 -8,7 -15,20 -15,30 0,10 -7,23 -15,30 -10,8 -15,30 -15,62 0,34 -4,50 -15,54 -8,4 -15,12 -15,19 0,7 7,15 15,19 9,3 15,18 15,39 0,19 7,40 15,47 8,7 15,20 15,30 0,10 7,23 15,30 8,7 15,20 15,29 0,10 14,30 30,46 17,16 30,36 30,45 0,9 20,36 45,60 41,40 45,49 45,91 0,29 6,51 15,59 9,8 15,30 15,60 0,30 6,52 15,60 8,7 15,20 15,30 0,10 -7,23 -15,30 -8,7 -15,27 -15,45 0,18 -7,38 -15,45 -8,7 -15,20 -15,30 0,10 -7,23 -15,30 -8,7 -15,20 -15,29 0,21 -160,181 -181,181 -20,0 -89,71 -89,92 0,8 -7,21 -15,28 -11,9 -15,35 -15,105 0,70 4,96 15,105 8,7 15,20 15,29 0,9 34,50 75,91 72,71 75,76 75,121 0,29 -6,51 -15,59 -8,7 -15,20 -15,29 0,21 -70,91 -91,91 -8,0 -38,24 -67,53 -55,56 -68,101 -37,127 9,8 15,30 15,59 0,57 29,91 76,91 33,0 104,-63 104,-92 0,-8 7,-21 15,-28 8,-7 15,-20 15,-30 0,-10 6,-23 14,-30 8,-6 16,-21 18,-33 2,-14 11,-23 25,-25 12,-2 27,-10 33,-18 7,-8 20,-14 30,-14 10,0 23,-7 30,-15 7,-8 27,-15 45,-15 18,0 38,-7 45,-15 16,-19 44,-19 60,-1 6,8 21,16 33,18 14,2 23,11 25,25 2,12 10,27 18,33 8,7 14,20 14,29 0,21 41,61 62,61 9,0 21,-7 28,-15 7,-8 20,-15 30,-15 10,0 23,-7 30,-15 7,-8 20,-15 29,-15 9,0 43,-27 76,-60 33,-33 66,-60 75,-60 9,0 42,-27 75,-60 33,-33 67,-60 76,-60 9,0 22,-7 29,-15 7,-8 28,-15 47,-15 21,0 36,-6 39,-15 8,-21 23,-19 45,8 23,28 26,109 4,127 -9,8 -15,30 -15,60 0,30 -6,52 -15,60 -8,7 -15,20 -15,29 0,10 -13,30 -30,46 -16,16 -30,36 -30,46 0,9 -7,22 -15,29 -8,7 -15,20 -15,29 0,10 -13,30 -30,46 -16,16 -30,36 -30,45 0,9 -13,29 -30,45 -16,16 -30,36 -30,45 0,8 -47,63 -105,120 l -106,105 3,50 c 3,50 3,50 40,53 20,2 42,10 48,18 9,9 33,14 75,14 43,0 66,5 75,15 9,11 33,15 90,15 57,0 81,4 90,15 7,8 27,15 44,15 24,0 41,10 69,38 20,21 37,45 37,53 0,20 -71,89 -92,89 -8,0 -21,7 -28,15 -7,8 -20,15 -30,15 -10,0 -23,7 -30,15 -7,8 -20,15 -30,15 -10,0 -23,7 -30,15 -7,8 -27,15 -45,15 -18,0 -38,7 -45,15 -7,8 -20,15 -30,15 -10,0 -23,7 -30,15 -8,9 -30,15 -60,15 -30,0 -52,6 -60,15 -9,10 -32,15 -74,15 -52,0 -66,4 -84,23 -12,13 -22,30 -22,38 0,19 101,119 120,119 14,1 90,64 90,75 0,3 -17,20 -37,40 -26,24 -48,35 -69,35 -17,0 -37,7 -44,15 -9,11 -42,15 -138,17 -122,3 -127,4 -130,25 -2,12 -10,27 -18,33 -26,22 -15,45 61,120 97,96 98,114 4,118 -50,2 -69,-1 -79,-13 -7,-8 -27,-15 -44,-15 -23,0 -41,-9 -61,-30 -16,-16 -36,-30 -46,-30 -9,0 -22,-7 -29,-15 -7,-8 -27,-15 -45,-15 -18,0 -38,-7 -45,-15 -7,-8 -20,-15 -29,-15 -9,0 -37,-20 -61,-45 -24,-25 -52,-45 -61,-45 -9,0 -22,-7 -29,-15 -21,-25 -102,-20 -128,8 -12,13 -22,30 -22,38 0,9 -13,28 -30,44 -16,16 -30,36 -30,45 0,9 -13,29 -30,45 -16,16 -30,36 -30,45 0,20 -161,180 -181,180 -9,0 -22,7 -29,15 -7,8 -27,15 -45,15 -18,0 -38,7 -45,15 -13,16 -42,20 -53,8 z m 471,-2000 c 2,-12 10,-27 18,-33 18,-16 18,-44 0,-60 -8,-6 -16,-28 -18,-48 -3,-37 -3,-37 -52,-40 -39,-3 -53,1 -72,19 -20,19 -24,32 -24,83 0,82 23,108 95,104 43,-3 50,-6 53,-25 z m -30,-540 c 2,-12 10,-27 18,-33 11,-10 14,-56 14,-257 0,-207 2,-244 15,-249 8,-4 15,-12 15,-19 0,-7 -7,-15 -15,-19 -11,-4 -15,-22 -15,-69 0,-45 -5,-68 -15,-77 -8,-7 -15,-26 -15,-43 0,-67 -78,-101 -127,-55 l -23,21 v 333 c 0,282 2,333 15,344 8,7 15,26 15,43 0,22 11,42 37,69 42,43 76,47 81,11 z m -51,-1345 c 21,-19 23,-30 23,-114 0,-69 4,-95 15,-104 11,-9 15,-35 15,-105 0,-71 4,-96 15,-105 13,-11 15,-34 13,-124 -3,-105 -4,-111 -25,-114 -12,-2 -27,-10 -33,-18 -7,-8 -20,-14 -30,-14 -10,0 -23,-7 -30,-15 -17,-21 -40,-19 -67,7 -18,16 -23,32 -23,69 0,29 -6,51 -15,59 -10,9 -15,32 -15,75 0,43 5,66 15,75 8,7 15,20 15,30 0,10 7,23 15,30 12,10 15,37 15,120 0,83 -3,110 -15,120 -8,7 -15,20 -15,30 0,10 7,23 15,30 8,7 15,19 15,28 0,21 39,62 59,62 8,0 25,-10 38,-22 z m 210,-900 c 13,-12 23,-29 23,-39 0,-9 7,-22 15,-29 11,-9 15,-35 15,-104 v -91 l -112,-112 c -62,-62 -120,-113 -128,-113 -9,0 -36,-20 -60,-45 -50,-51 -64,-54 -97,-23 -23,21 -23,25 -23,219 0,162 3,199 15,209 8,7 15,20 15,28 0,9 17,33 37,54 32,33 43,38 84,38 29,0 51,6 59,15 9,10 31,15 73,15 49,0 65,-4 84,-22 z"
       id="path54"
       inkscape:connector-curvature="0"
       style="stroke-width:5.21004868" />
    <path
       d="m 5180,3425 c -8,-9 -30,-15 -59,-15 -41,0 -52,-5 -84,-38 -20,-21 -37,-45 -37,-54 0,-8 -7,-21 -15,-28 -12,-10 -15,-37 -15,-120 0,-83 3,-110 15,-120 8,-7 15,-20 15,-29 0,-30 72,-91 107,-91 17,0 36,-7 43,-15 8,-9 30,-15 60,-15 30,0 52,6 60,15 7,8 20,15 30,15 10,0 23,7 30,15 7,8 20,15 29,15 21,0 61,41 61,62 0,9 7,21 15,28 11,9 15,35 15,105 0,70 -4,96 -15,105 -8,7 -15,20 -15,30 0,10 -6,23 -14,30 -8,6 -16,21 -18,33 -2,14 -11,23 -25,25 -12,2 -27,10 -33,18 -7,8 -27,14 -45,14 -18,0 -38,7 -45,15 -7,8 -20,15 -30,15 -10,0 -23,-7 -30,-15 z m 60,-90 c 7,-8 19,-15 28,-15 28,0 62,-41 62,-76 0,-17 7,-37 15,-44 8,-7 15,-20 15,-30 0,-10 -7,-23 -15,-30 -8,-7 -15,-26 -15,-43 0,-22 -11,-42 -37,-69 -32,-33 -43,-38 -82,-38 -39,0 -51,5 -83,37 -21,20 -38,45 -38,54 0,9 -7,22 -15,29 -9,8 -15,30 -15,60 0,30 6,52 15,60 8,7 15,20 15,28 0,9 17,33 37,54 40,41 89,51 113,23 z"
       id="path56"
       inkscape:connector-curvature="0"
       style="stroke-width:5.21004868" />
    <path
       d="m 4555,3398 c -3,-8 -4,-115 -3,-238 l 3,-225 h 40 40 l 3,53 c 2,35 8,55 18,59 19,7 18,33 -1,33 -22,0 -18,19 8,41 18,15 39,18 120,19 76,0 97,3 97,14 0,8 -6,16 -14,19 -8,3 -16,16 -18,29 -3,22 -8,23 -103,28 l -100,5 -3,32 c -5,52 46,108 62,68 4,-12 23,-15 84,-15 70,0 81,3 101,24 13,13 21,32 19,43 -3,16 -17,18 -176,21 -134,2 -174,0 -177,-10 z"
       id="path58"
       inkscape:connector-curvature="0"
       style="stroke-width:5.21004868" />
    <path
       d="m 5547,3404 c -4,-4 -7,-96 -7,-204 v -196 l 38,-37 c 21,-20 45,-37 54,-37 8,0 21,-7 28,-15 9,-10 32,-15 75,-15 43,0 66,5 75,15 7,8 20,15 29,15 9,0 34,17 54,38 l 37,38 -2,200 -3,199 h -40 -40 l -3,-170 -3,-170 -36,-37 c -27,-28 -45,-38 -68,-38 -23,0 -41,10 -68,38 l -36,37 -3,170 -3,170 -35,3 c -20,2 -39,0 -43,-4 z"
       id="path60"
       inkscape:connector-curvature="0"
       style="stroke-width:5.21004868" />
    <path
       d="m 6055,3398 c -3,-7 -4,-115 -3,-238 l 3,-225 h 40 40 l 3,133 c 2,84 6,132 13,132 15,0 48,-42 49,-61 0,-8 14,-28 30,-44 17,-16 30,-36 30,-46 0,-9 7,-22 15,-29 8,-7 15,-20 15,-29 0,-10 11,-28 24,-40 19,-18 33,-22 72,-19 l 49,3 v 235 235 h -40 -40 l -3,-147 c -2,-96 -6,-148 -13,-148 -15,0 -48,42 -49,61 0,9 -7,22 -15,29 -8,7 -15,20 -15,29 0,10 -13,30 -30,46 -16,16 -30,36 -30,46 0,9 -6,22 -14,29 -8,6 -16,21 -18,33 -3,19 -10,22 -56,25 -36,2 -54,-1 -57,-10 z"
       id="path62"
       inkscape:connector-curvature="0"
       style="stroke-width:5.21004868" />
    <path
       d="m 6564,3397 c -2,-7 -3,-114 -2,-237 l 3,-225 139,-3 c 109,-2 142,0 155,12 9,8 25,16 36,18 11,2 21,13 23,25 2,12 10,27 18,33 8,7 14,20 14,30 0,10 7,23 15,30 11,9 15,33 15,90 0,57 -4,81 -15,90 -8,7 -15,20 -15,30 0,10 -6,23 -14,30 -8,6 -16,21 -18,33 -2,14 -11,23 -25,25 -12,2 -27,10 -33,18 -17,19 -288,21 -296,1 z m 273,-99 c 21,-20 23,-30 23,-127 0,-94 -2,-107 -22,-128 -14,-15 -33,-23 -54,-23 -17,0 -37,-7 -44,-15 -17,-21 -40,-19 -67,7 -22,20 -23,28 -23,158 0,75 3,140 7,143 3,4 40,7 82,7 63,0 78,-3 98,-22 z"
       id="path64"
       inkscape:connector-curvature="0"
       style="stroke-width:5.21004868" />
    <path
       d="m 7075,3398 c -3,-8 -4,-115 -3,-238 l 3,-225 193,-3 c 201,-3 215,1 170,39 -19,15 -40,18 -129,19 -98,0 -107,2 -128,24 -18,19 -22,33 -19,72 l 3,49 110,5 c 107,5 155,19 155,45 0,26 -48,40 -155,45 l -110,5 v 40 40 l 110,3 c 96,2 112,5 133,24 13,13 22,31 20,43 -3,19 -11,20 -176,23 -134,2 -174,0 -177,-10 z"
       id="path66"
       inkscape:connector-curvature="0"
       style="stroke-width:5.21004868" />
    <path
       d="m 7524,3397 c -2,-7 -3,-114 -2,-237 l 3,-225 154,-3 155,-3 53,53 53,52 v 136 136 l -53,52 -53,52 h -152 c -114,0 -154,-3 -158,-13 z m 294,-104 c 2,-12 10,-27 18,-33 20,-17 20,-163 0,-180 -8,-6 -16,-21 -18,-33 -2,-12 -12,-23 -23,-25 -11,-2 -27,-11 -36,-19 -11,-9 -33,-13 -65,-11 l -49,3 -3,150 c -1,82 0,155 3,162 3,10 26,13 87,11 77,-3 83,-5 86,-25 z"
       id="path68"
       inkscape:connector-curvature="0"
       style="stroke-width:5.21004868" />
    <path
       d="m 5630,2675 c -24,-25 -51,-45 -60,-45 -23,0 -62,-45 -58,-67 4,-24 75,-32 84,-9 3,9 12,16 20,16 11,0 14,-33 16,-162 l 3,-163 h 55 55 l 3,214 c 2,209 2,215 -20,238 -31,33 -48,29 -98,-22 z"
       id="path70"
       inkscape:connector-curvature="0"
       style="stroke-width:5.21004868" />
    <path
       d="m 5937,2682 c -32,-32 -37,-44 -37,-84 0,-28 6,-50 15,-58 26,-21 18,-73 -15,-105 -33,-32 -41,-84 -15,-105 8,-7 15,-20 15,-29 0,-21 41,-61 62,-61 9,0 21,-7 28,-15 8,-9 30,-15 60,-15 30,0 52,6 60,15 7,8 20,15 29,15 10,0 27,10 39,23 19,20 22,35 22,99 0,72 -2,77 -30,101 -16,14 -30,29 -30,32 0,3 14,18 30,32 26,21 30,32 30,72 0,41 -5,51 -38,84 -37,36 -40,37 -113,37 -74,0 -76,-1 -112,-38 z m 150,-44 c 29,-27 29,-49 -1,-77 -17,-16 -33,-22 -57,-19 -30,3 -34,7 -37,37 -3,24 3,40 19,57 28,30 46,30 76,2 z m 0,-210 c 51,-48 12,-133 -58,-126 -34,3 -34,3 -37,62 -2,32 -1,65 2,72 8,22 67,17 93,-8 z"
       id="path72"
       inkscape:connector-curvature="0"
       style="stroke-width:5.21004868" />
    <path
       d="m 6326,2681 c -47,-49 -46,-75 5,-79 30,-3 41,2 62,27 31,37 37,38 60,5 26,-36 19,-86 -13,-94 -21,-5 -25,-11 -25,-45 0,-39 1,-40 40,-45 40,-5 40,-5 43,-54 3,-39 -1,-53 -19,-72 -30,-32 -49,-30 -84,6 -25,26 -36,30 -82,30 -39,0 -53,-4 -53,-14 0,-8 7,-16 15,-20 8,-3 15,-14 15,-24 0,-22 40,-62 62,-62 9,0 21,-7 28,-15 8,-9 30,-15 60,-15 30,0 52,6 60,15 7,8 20,15 29,15 28,0 61,43 61,78 0,20 6,35 15,38 8,4 15,12 15,19 0,7 -7,15 -15,19 -8,3 -15,14 -15,25 0,10 -13,31 -30,44 -33,29 -37,42 -15,51 8,3 15,14 15,24 0,11 7,25 15,32 8,7 15,20 15,30 0,10 -7,23 -15,30 -8,7 -15,20 -15,29 0,10 -10,27 -23,39 -20,19 -35,22 -98,22 -74,0 -75,-1 -113,-39 z"
       id="path74"
       inkscape:connector-curvature="0"
       style="stroke-width:5.21004868" />
    <path
       d="m 6732,2697 c -18,-19 -22,-35 -22,-84 0,-42 -5,-64 -16,-73 -10,-9 -14,-26 -12,-49 3,-33 6,-36 36,-39 21,-2 41,3 52,13 13,11 32,15 66,13 42,-3 49,-6 52,-25 2,-12 10,-27 18,-33 8,-7 14,-20 14,-30 0,-10 -6,-23 -14,-30 -8,-6 -16,-21 -18,-33 -2,-17 -11,-23 -37,-25 -27,-3 -40,3 -66,28 -26,25 -39,31 -66,28 -30,-3 -34,-7 -37,-37 -4,-37 28,-81 59,-81 9,0 22,-7 29,-15 8,-9 30,-15 60,-15 30,0 52,6 60,15 7,8 20,15 29,15 21,0 61,41 61,62 0,9 7,21 15,28 9,8 15,30 15,60 0,30 -6,52 -15,60 -8,7 -15,20 -15,29 0,21 -41,61 -62,61 -9,0 -21,6 -28,14 -6,8 -28,16 -48,18 -32,3 -37,6 -37,28 0,24 2,25 85,30 l 85,5 v 40 40 l -110,3 c -105,2 -112,1 -133,-21 z"
       id="path76"
       inkscape:connector-curvature="0"
       style="stroke-width:5.21004868" />
    <path
       d="m 890,1595 c -7,-8 -20,-15 -30,-15 -10,0 -23,-6 -30,-14 -6,-8 -21,-16 -33,-18 -13,-2 -23,-11 -25,-24 -2,-12 -16,-34 -33,-49 -16,-16 -29,-36 -29,-46 0,-9 -7,-22 -15,-29 -12,-10 -15,-38 -15,-135 0,-97 3,-125 15,-135 8,-7 15,-20 15,-29 0,-21 100,-121 122,-121 8,0 21,-7 28,-15 18,-22 222,-22 240,0 7,8 20,15 29,15 9,0 34,17 55,39 31,32 37,44 34,72 -2,25 -9,35 -23,37 -11,2 -28,11 -37,19 -22,19 -52,13 -56,-12 -5,-27 -42,-65 -63,-65 -9,0 -22,-7 -29,-15 -7,-8 -27,-15 -45,-15 -18,0 -38,7 -45,15 -7,8 -20,15 -29,15 -21,0 -61,41 -61,62 0,9 -7,21 -15,28 -11,9 -15,33 -15,90 0,57 4,81 15,90 8,7 15,27 15,44 0,24 10,41 38,69 37,36 40,37 114,37 54,0 79,-4 88,-14 6,-8 21,-16 33,-18 14,-2 23,-11 25,-24 2,-12 14,-31 26,-43 19,-18 33,-22 72,-19 41,2 49,6 52,24 2,11 -4,27 -13,34 -8,7 -15,20 -15,29 0,21 -100,121 -122,121 -8,0 -21,7 -28,15 -9,11 -35,15 -105,15 -70,0 -96,-4 -105,-15 z"
       id="path78"
       inkscape:connector-curvature="0"
       style="stroke-width:5.21004868" />
    <path
       d="m 11094,1537 c -3,-8 -4,-34 -2,-58 3,-49 26,-63 56,-36 9,8 26,17 37,19 16,3 20,11 20,43 v 40 l -53,3 c -38,2 -54,-1 -58,-11 z"
       id="path80"
       inkscape:connector-curvature="0"
       style="stroke-width:5.21004868" />
    <path
       d="m 10827,1452 c -32,-33 -37,-44 -37,-84 0,-29 -6,-50 -16,-58 -9,-9 -14,-26 -12,-49 2,-28 8,-36 28,-41 24,-6 25,-10 28,-87 2,-56 7,-85 17,-93 10,-9 15,-32 15,-74 0,-53 4,-66 24,-85 21,-20 32,-22 117,-19 l 94,3 v 40 c 0,38 -1,40 -35,43 -58,6 -80,35 -80,108 0,43 -5,65 -15,74 -12,10 -15,28 -13,64 l 3,51 40,5 c 39,5 40,6 40,45 0,39 -1,40 -36,43 -51,4 -77,35 -81,97 -4,66 -28,71 -81,17 z"
       id="path82"
       inkscape:connector-curvature="0"
       style="stroke-width:5.21004868" />
    <path
       d="m 11570,1445 c -8,-9 -30,-15 -60,-15 -29,0 -52,-6 -60,-14 -6,-8 -21,-16 -33,-18 -12,-2 -23,-12 -25,-23 -2,-11 -11,-28 -19,-37 -28,-31 -13,-53 41,-56 43,-3 52,0 81,28 29,28 38,31 81,28 38,-2 50,-7 52,-21 6,-29 -36,-67 -74,-67 -17,0 -37,-7 -44,-15 -7,-8 -20,-15 -29,-15 -9,0 -40,-24 -69,-53 -55,-56 -68,-101 -37,-127 8,-7 15,-20 15,-29 0,-21 41,-61 62,-61 9,0 21,-7 28,-15 7,-8 27,-15 45,-15 18,0 38,7 45,15 7,8 20,15 30,15 10,0 30,14 43,30 29,34 42,37 51,15 5,-13 20,-15 73,-13 60,3 68,5 71,24 2,11 -4,27 -13,34 -8,7 -15,27 -15,45 0,18 -7,38 -15,45 -11,9 -15,33 -15,90 0,57 -4,81 -15,90 -8,7 -15,27 -15,44 0,41 -35,76 -77,76 -17,0 -36,7 -43,15 -7,8 -20,15 -30,15 -10,0 -23,-7 -30,-15 z m 88,-325 c 4,-54 -30,-82 -94,-78 -48,3 -49,4 -52,37 -3,24 3,40 19,58 20,20 31,23 74,21 49,-3 50,-3 53,-38 z"
       id="path84"
       inkscape:connector-curvature="0"
       style="stroke-width:5.21004868" />
    <path
       d="m 9463,1351 c -26,-22 -29,-37 -9,-44 8,-3 16,-16 18,-29 3,-21 8,-23 58,-23 h 55 l 3,34 c 7,67 -72,106 -125,62 z"
       id="path86"
       inkscape:connector-curvature="0"
       style="stroke-width:5.21004868" />
    <path
       d="m 11127,1364 c -4,-4 -7,-56 -7,-114 0,-83 3,-110 15,-120 11,-9 15,-35 15,-104 0,-84 2,-95 23,-114 31,-29 77,-29 105,1 26,27 29,79 7,97 -11,9 -15,35 -15,105 0,69 -4,96 -15,105 -9,7 -15,35 -17,78 l -3,67 -50,3 c -28,2 -54,0 -58,-4 z"
       id="path88"
       inkscape:connector-curvature="0"
       style="stroke-width:5.21004868" />
    <path
       d="m 1392,1317 c -20,-21 -22,-34 -22,-129 0,-82 -3,-108 -15,-118 -9,-8 -15,-30 -15,-60 0,-30 6,-52 15,-60 8,-7 15,-20 15,-29 0,-10 10,-27 23,-39 20,-19 35,-22 115,-22 73,0 94,3 98,15 9,22 22,18 51,-15 32,-38 79,-41 111,-7 20,21 22,34 22,129 0,83 3,108 15,118 13,10 15,32 13,109 l -3,96 h -55 -55 l -3,-67 c -2,-43 -8,-71 -17,-78 -11,-9 -15,-34 -15,-89 0,-69 -3,-80 -24,-100 -20,-19 -33,-22 -87,-19 l -64,3 -3,124 c -2,102 0,127 13,141 11,13 15,33 13,66 l -3,49 -50,3 c -43,2 -54,-1 -73,-21 z"
       id="path90"
       inkscape:connector-curvature="0"
       style="stroke-width:5.21004868" />
    <path
       d="m 3057,1334 c -4,-4 -7,-35 -7,-69 0,-43 -5,-66 -15,-75 -12,-10 -15,-42 -15,-165 0,-123 -3,-155 -15,-165 -10,-9 -15,-32 -15,-74 0,-53 4,-66 24,-85 31,-29 89,-26 94,4 2,11 10,27 18,35 9,11 14,51 16,125 l 3,110 79,3 c 58,2 83,-1 95,-12 9,-8 32,-16 51,-18 l 35,-3 5,-145 5,-145 h 55 55 l 3,140 c 2,106 6,143 18,156 12,13 14,46 12,185 l -3,169 h -55 -55 l -3,-95 c -4,-131 -13,-140 -137,-140 -127,0 -133,7 -137,155 l -3,110 -50,3 c -28,2 -54,0 -58,-4 z"
       id="path92"
       inkscape:connector-curvature="0"
       style="stroke-width:5.21004868" />
    <path
       d="m 8510,1295 c -7,-8 -27,-15 -45,-15 -18,0 -38,-6 -45,-14 -6,-8 -21,-16 -33,-18 -14,-2 -23,-11 -25,-25 -2,-12 -10,-27 -18,-33 -10,-9 -14,-35 -14,-89 0,-76 1,-77 38,-114 21,-20 45,-37 54,-37 8,0 21,-7 28,-15 8,-9 30,-15 60,-15 30,0 52,-6 60,-15 8,-9 30,-15 59,-15 37,0 53,-5 69,-23 25,-27 28,-50 8,-67 -8,-6 -16,-21 -18,-33 -3,-21 -9,-22 -97,-25 -85,-3 -96,-1 -117,19 -13,12 -24,31 -26,43 -3,18 -10,21 -58,21 h -55 l -3,-49 c -3,-45 0,-52 34,-87 21,-22 46,-39 55,-39 9,0 22,-7 29,-15 18,-22 222,-22 240,0 7,8 20,15 29,15 9,0 40,24 69,53 51,52 52,54 52,114 0,42 -5,64 -15,73 -8,7 -15,20 -15,29 0,30 -72,91 -107,91 -17,0 -36,7 -43,15 -9,10 -32,15 -75,15 -42,0 -66,5 -75,14 -6,8 -21,16 -33,18 -34,5 -36,66 -4,96 21,20 33,23 88,20 57,-3 64,-5 67,-24 2,-12 14,-31 26,-43 19,-18 33,-22 72,-19 47,3 49,4 52,36 2,20 -3,41 -11,50 -8,10 -17,26 -19,37 -2,11 -13,21 -25,23 -12,2 -27,10 -33,18 -7,8 -20,14 -30,14 -10,0 -23,7 -30,15 -8,9 -30,15 -60,15 -30,0 -52,-6 -60,-15 z"
       id="path94"
       inkscape:connector-curvature="0"
       style="stroke-width:5.21004868" />
    <path
       d="m 10490,1295 c -7,-8 -20,-15 -30,-15 -10,0 -30,-13 -43,-30 -29,-34 -42,-37 -51,-14 -4,11 -18,14 -58,12 l -53,-3 -3,-111 c -2,-90 0,-113 13,-124 11,-9 15,-34 15,-104 1,-74 4,-95 19,-113 22,-26 37,-29 44,-9 3,8 16,16 29,18 23,3 23,4 26,173 2,158 4,171 24,193 19,19 31,22 73,20 43,-3 50,-6 53,-25 2,-12 10,-27 18,-33 10,-9 14,-37 14,-105 0,-68 4,-96 14,-105 8,-6 16,-28 18,-48 l 3,-37 h 55 55 l 3,81 c 2,63 -1,84 -13,94 -11,9 -15,32 -15,90 0,57 -4,81 -15,90 -8,7 -15,20 -15,29 0,21 -41,61 -62,61 -9,0 -21,7 -28,15 -7,8 -27,15 -45,15 -18,0 -38,-7 -45,-15 z"
       id="path96"
       inkscape:connector-curvature="0"
       style="stroke-width:5.21004868" />
    <path
       d="m 1962,1257 c -20,-21 -22,-34 -22,-129 0,-83 -3,-108 -15,-118 -13,-10 -15,-32 -13,-109 l 3,-96 h 55 55 l 3,67 c 2,43 8,71 17,78 11,9 15,34 15,89 0,76 1,77 38,114 44,43 60,46 90,14 20,-22 22,-33 22,-159 0,-110 -3,-138 -16,-148 -10,-9 -14,-26 -12,-49 3,-35 4,-36 52,-39 39,-3 53,1 72,19 22,21 24,30 24,130 0,82 3,109 15,119 8,7 15,20 15,29 1,17 64,91 79,91 5,0 11,-6 14,-14 3,-8 16,-16 29,-18 22,-3 23,-8 26,-82 2,-61 -1,-82 -13,-96 -13,-14 -15,-37 -13,-111 l 3,-94 h 55 55 l 3,52 c 2,29 9,56 17,63 22,18 22,282 1,300 -8,6 -16,21 -18,33 -2,17 -11,23 -40,25 -20,2 -42,10 -48,18 -16,18 -44,18 -60,-1 -7,-8 -20,-15 -30,-15 -10,0 -23,-7 -30,-15 -19,-23 -43,-18 -75,15 -16,17 -36,30 -46,30 -9,0 -22,7 -29,15 -7,8 -20,15 -30,15 -10,0 -23,-7 -30,-15 -7,-8 -21,-15 -32,-15 -10,0 -21,-7 -24,-15 -9,-22 -22,-18 -51,15 -32,38 -79,41 -111,7 z"
       id="path98"
       inkscape:connector-curvature="0"
       style="stroke-width:5.21004868" />
    <path
       d="m 6191,1197 c -16,-18 -22,-34 -19,-58 l 3,-34 h 55 55 v 55 55 l -35,3 c -27,2 -41,-3 -59,-21 z"
       id="path100"
       inkscape:connector-curvature="0"
       style="stroke-width:5.21004868" />
    <path
       d="m 9777,1182 c -20,-21 -37,-45 -37,-54 0,-8 -7,-21 -15,-28 -12,-10 -15,-37 -15,-120 0,-83 3,-110 15,-120 8,-7 15,-20 15,-29 0,-9 17,-34 38,-54 l 38,-37 h 120 120 l 37,38 c 20,21 37,46 37,55 0,10 7,20 15,23 8,4 15,12 15,20 0,11 -17,14 -68,14 -63,0 -71,-2 -97,-30 -40,-42 -79,-40 -127,5 -44,41 -48,55 -14,55 13,0 29,7 36,15 9,11 42,15 138,17 l 127,3 3,51 c 2,36 -1,54 -13,64 -8,7 -15,20 -15,29 0,9 -24,40 -53,69 l -53,52 h -105 -105 z m 212,-76 c 16,-17 22,-33 19,-57 l -3,-34 -83,-3 c -67,-2 -83,0 -88,13 -6,15 -3,26 15,55 5,8 12,23 15,33 9,28 96,24 125,-7 z"
       id="path102"
       inkscape:connector-curvature="0"
       style="stroke-width:5.21004868" />
    <path
       d="m 6478,1153 c -25,-26 -38,-49 -40,-73 -2,-27 -8,-35 -28,-40 -23,-5 -25,-11 -25,-60 0,-49 2,-55 25,-60 l 25,-6 3,-154 3,-155 36,-37 c 35,-36 41,-38 98,-38 51,0 65,4 83,23 12,13 22,30 22,38 0,25 -43,57 -80,61 l -35,3 v 130 130 l 40,5 40,5 v 55 55 l -40,5 -40,5 -5,70 c -4,60 -8,70 -25,73 -13,2 -34,-11 -57,-35 z"
       id="path104"
       inkscape:connector-curvature="0"
       style="stroke-width:5.21004868" />
    <path
       d="m 7311,1176 c -7,-8 -22,-16 -34,-18 -19,-3 -23,-11 -27,-58 -4,-48 -8,-55 -30,-60 -21,-5 -25,-12 -25,-45 0,-33 4,-40 25,-45 25,-6 25,-7 28,-132 2,-96 6,-129 17,-138 8,-7 15,-27 15,-44 0,-56 33,-76 121,-76 67,0 78,3 98,24 37,40 25,60 -39,66 l -55,5 v 145 145 l 40,5 c 39,5 40,6 40,45 0,39 -1,40 -36,43 -51,4 -77,35 -81,97 -2,42 -6,50 -24,53 -11,2 -26,-4 -33,-12 z"
       id="path106"
       inkscape:connector-curvature="0"
       style="stroke-width:5.21004868" />
    <path
       d="m 9477,1184 c -4,-4 -7,-49 -7,-99 0,-69 4,-96 15,-105 11,-9 15,-42 17,-138 l 3,-127 h 55 55 l 3,169 c 2,137 0,172 -12,185 -8,9 -16,39 -18,66 l -3,50 -50,3 c -28,2 -54,0 -58,-4 z"
       id="path108"
       inkscape:connector-curvature="0"
       style="stroke-width:5.21004868" />
    <path
       d="m 9080,1145 c -7,-8 -20,-15 -29,-15 -30,0 -91,-72 -91,-107 0,-17 -7,-36 -15,-43 -9,-8 -15,-30 -15,-60 0,-30 6,-52 15,-60 8,-7 15,-27 15,-45 0,-18 6,-38 14,-45 8,-6 16,-21 18,-33 2,-14 11,-23 25,-25 12,-2 27,-10 33,-18 7,-8 20,-14 30,-14 10,0 23,-7 30,-15 8,-9 30,-15 60,-15 30,0 52,6 60,15 7,8 20,15 30,15 10,0 23,6 30,14 6,8 21,16 33,18 12,2 23,12 25,23 2,11 11,27 19,37 8,9 13,30 11,50 l -3,33 h -55 c -47,0 -55,-3 -58,-20 -2,-11 -13,-30 -25,-42 -30,-33 -105,-32 -136,1 -20,21 -21,31 -19,132 3,103 4,109 25,112 12,2 27,10 33,18 19,22 44,17 75,-16 26,-28 35,-31 80,-28 55,3 70,24 42,56 -8,9 -17,26 -19,37 -2,11 -13,21 -25,23 -12,2 -27,10 -33,18 -18,20 -163,20 -180,-1 z"
       id="path110"
       inkscape:connector-curvature="0"
       style="stroke-width:5.21004868" />
    <path
       d="m 3702,1077 c -21,-22 -22,-31 -22,-203 V 694 l 38,-37 c 37,-36 40,-37 114,-37 55,0 79,4 88,15 16,19 44,19 60,0 10,-12 29,-15 79,-13 l 66,3 v 235 235 h -55 -55 l -3,-127 c -2,-96 -6,-129 -17,-138 -8,-7 -15,-27 -15,-44 0,-51 -36,-78 -96,-74 -42,3 -49,6 -52,25 -2,12 -10,27 -18,33 -20,17 -19,104 1,120 13,10 15,32 13,109 l -3,96 -50,3 c -43,2 -54,-1 -73,-21 z"
       id="path112"
       inkscape:connector-curvature="0"
       style="stroke-width:5.21004868" />
    <path
       d="m 4272,1047 c -22,-23 -22,-29 -20,-238 l 3,-214 h 55 55 l 3,127 c 2,96 6,129 17,138 8,7 15,27 15,44 0,67 83,101 128,53 19,-20 22,-35 22,-114 0,-69 -4,-94 -15,-103 -12,-10 -15,-29 -13,-79 l 3,-66 h 70 70 l 3,155 3,155 36,37 c 43,44 61,47 91,15 21,-22 22,-33 22,-188 0,-162 1,-166 24,-188 17,-16 33,-22 57,-19 l 34,3 3,127 c 2,96 6,129 17,138 20,17 20,103 0,120 -8,7 -15,20 -15,29 0,9 -17,34 -38,54 -35,34 -42,37 -98,37 -54,0 -63,-3 -89,-30 -16,-16 -36,-30 -45,-30 -9,0 -29,14 -45,30 -27,28 -33,30 -107,30 -61,0 -80,-3 -84,-15 -4,-8 -12,-15 -19,-15 -7,0 -15,7 -19,15 -4,10 -20,15 -54,15 -38,0 -53,-5 -70,-23 z"
       id="path114"
       inkscape:connector-curvature="0"
       style="stroke-width:5.21004868" />
    <path
       d="m 7670,1055 c -7,-8 -20,-15 -29,-15 -30,0 -91,-72 -91,-107 0,-17 -7,-36 -15,-43 -10,-9 -15,-32 -15,-75 0,-43 5,-66 15,-75 8,-7 15,-20 15,-30 0,-10 7,-23 15,-30 8,-7 15,-20 15,-29 0,-27 43,-61 77,-61 17,0 36,-7 43,-15 17,-20 103,-20 120,0 7,8 27,15 44,15 35,0 76,34 76,62 0,9 7,21 15,28 9,7 15,23 13,34 -3,18 -11,21 -53,24 -45,3 -54,0 -80,-28 -24,-25 -36,-30 -75,-30 -36,0 -52,5 -69,24 -13,13 -21,32 -19,43 3,16 17,18 143,21 127,2 141,5 162,24 27,25 29,50 8,68 -8,7 -15,27 -15,45 0,18 -7,38 -15,45 -8,7 -15,20 -15,29 0,21 -41,61 -62,61 -9,0 -21,7 -28,15 -9,11 -33,15 -90,15 -57,0 -81,-4 -90,-15 z m 144,-114 c 23,-24 36,-46 34,-57 -3,-17 -13,-19 -88,-19 h -85 l -3,34 c -4,44 29,81 73,81 23,0 41,-10 69,-39 z"
       id="path116"
       inkscape:connector-curvature="0"
       style="stroke-width:5.21004868" />
    <path
       d="m 5112,1017 c -12,-13 -22,-31 -22,-40 0,-10 -7,-20 -15,-23 -8,-4 -15,-12 -15,-20 0,-21 103,-19 120,1 10,12 29,15 79,13 l 66,-3 v -40 -40 l -67,-3 c -43,-2 -71,-8 -78,-17 -7,-8 -27,-15 -44,-15 -35,0 -76,-34 -76,-62 0,-9 -7,-21 -15,-28 -8,-7 -15,-27 -15,-45 0,-18 7,-38 15,-45 8,-7 15,-20 15,-29 0,-10 10,-27 23,-39 20,-19 35,-22 114,-22 68,0 94,4 103,15 16,19 44,19 60,0 10,-12 28,-15 64,-13 l 51,3 3,186 c 2,157 0,188 -13,199 -8,7 -15,20 -15,29 0,10 -10,27 -23,39 -22,20 -33,22 -158,22 -129,0 -137,-1 -157,-23 z m 216,-287 c 4,-54 -30,-82 -94,-78 -48,3 -49,4 -52,37 -3,24 3,40 19,58 20,20 31,23 74,21 49,-3 50,-3 53,-38 z"
       id="path118"
       inkscape:connector-curvature="0"
       style="stroke-width:5.21004868" />
    <path
       d="m 5622,1017 c -22,-23 -22,-29 -20,-238 l 3,-214 h 55 55 l 3,141 c 2,110 6,145 17,154 8,7 15,20 15,29 0,27 43,61 76,61 21,0 40,-11 67,-38 l 36,-37 3,-155 3,-155 h 55 55 l 3,184 c 2,148 0,187 -12,200 -8,9 -16,25 -18,36 -2,11 -13,21 -25,23 -12,2 -27,10 -33,18 -9,9 -33,14 -75,14 -58,0 -65,-3 -88,-30 -14,-16 -29,-30 -32,-30 -3,0 -18,14 -32,30 -32,38 -79,41 -111,7 z"
       id="path120"
       inkscape:connector-curvature="0"
       style="stroke-width:5.21004868" />
    <path
       d="m 6192,1017 c -22,-23 -22,-28 -20,-238 l 3,-214 h 55 55 v 235 235 l -35,3 c -27,2 -41,-3 -58,-21 z"
       id="path122"
       inkscape:connector-curvature="0"
       style="stroke-width:5.21004868" />
    <path
       d="m 6763,989 c -29,-28 -53,-53 -53,-56 0,-2 10,-13 23,-24 34,-28 78,-24 112,11 24,25 36,30 74,30 42,-1 91,-25 91,-45 0,-16 -48,-44 -76,-45 -17,0 -37,-7 -44,-15 -8,-9 -30,-15 -59,-15 -41,0 -52,-5 -84,-38 -34,-35 -37,-42 -37,-99 0,-40 5,-64 14,-73 8,-6 16,-21 18,-33 2,-17 11,-23 40,-25 20,-2 42,-10 48,-18 16,-18 44,-18 60,1 7,8 27,15 45,15 18,0 38,7 45,15 16,19 44,19 60,0 10,-12 28,-15 64,-13 43,3 51,6 54,24 2,11 -4,27 -13,34 -12,10 -15,39 -15,165 0,123 -3,155 -15,165 -8,7 -15,20 -15,29 0,10 -10,27 -23,39 -21,20 -34,22 -143,22 h -119 z m 245,-242 c 2,-10 -3,-26 -11,-35 -8,-9 -17,-26 -19,-37 -3,-18 -11,-20 -73,-20 h -70 v 40 c 0,33 4,41 22,43 12,2 27,10 34,18 19,23 113,15 117,-9 z"
       id="path124"
       inkscape:connector-curvature="0"
       style="stroke-width:5.21004868" />
  </g>
</svg>
